<?xml version="1.0" standalone="no"?>
<!DOCTYPE svg PUBLIC "-//W3C//DTD SVG 1.1//EN" "http://www.w3.org/Graphics/SVG/1.1/DTD/svg11.dtd" >
<svg xmlns="http://www.w3.org/2000/svg" xmlns:xlink="http://www.w3.org/1999/xlink" version="1.1">
<metadata>
Created by FontForge 20170910 at Fri May 21 14:09:54 2010
 By Jimmy Wärting
Copyright (c) 2010 Linotype GmbH, www.linotype.com. All rights reserved. This font software may not be reproduced, modified, disclosed or transferred without the express written approval of Linotype GmbH.
</metadata>
<defs>
<font id="DINNextCYR-LightItalic" horiz-adv-x="510" >
  <font-face 
    font-family="DIN Next CYR Light"
    font-weight="300"
    font-style="italic"
    font-stretch="normal"
    units-per-em="1000"
    panose-1="2 11 3 3 2 2 3 12 2 3"
    ascent="750"
    descent="-250"
    x-height="477"
    cap-height="680"
    bbox="-152.524 -213 947 913"
    underline-thickness="50"
    underline-position="-100"
    slope="-10"
    stemh="41"
    stemv="42"
    unicode-range="U+000D-FB04"
  />
<missing-glyph horiz-adv-x="470" 
d="M460 0h-450c-6 0 -10 4 -10 10v660c0 6 4 10 10 10h450c6 0 10 -4 10 -10v-660c0 -6 -4 -10 -10 -10zM425 37c4 0 6 2 6 6v594c0 4 -2 6 -6 6h-380c-4 0 -6 -2 -6 -6v-594c0 -4 2 -6 6 -6h380zM237 224h-22c-6 0 -10 4 -10 10v24c0 30 6 47 22 67l37 48
c30 36 37 53 37 80c0 42 -30 70 -72 70c-40 0 -67 -22 -77 -67c-1 -6 -5 -9 -12 -8l-21 4c-6 1 -9 5 -8 11c11 58 55 99 119 99c68 0 112 -48 112 -109c0 -38 -11 -62 -38 -94l-37 -48c-17 -21 -20 -31 -20 -55v-22c0 -6 -4 -10 -10 -10zM241 113h-31c-6 0 -10 4 -10 10v39
c0 6 4 10 10 10h31c6 0 10 -4 10 -10v-39c0 -6 -4 -10 -10 -10z" />
    <glyph glyph-name="napostrophe" unicode="&#x22;n" horiz-adv-x="519" 
d="M84 538c-5 0 -8 4 -7 10l21 122c1 6 5 10 11 10h36c6 0 9 -4 8 -10l-8 -46c-2 -9 -3 -14 -8 -21l-40 -57c-4 -5 -8 -8 -13 -8zM387 0h-32c-5 0 -8 4 -7 10l51 282c17 100 -14 147 -95 147c-66 0 -135 -53 -150 -135l-52 -294c-1 -6 -4 -10 -10 -10h-33c-5 0 -8 4 -7 10
l80 457c1 6 5 10 11 10h32c6 0 9 -4 8 -10l-10 -55h1c32 46 86 75 149 75c102 0 149 -66 129 -182l-54 -295c-1 -6 -5 -10 -11 -10z" />
    <glyph glyph-name="IJ" unicode="IJ" horiz-adv-x="688" 
d="M54 10l116 660c1 6 5 10 11 10h34c6 0 9 -4 8 -10l-116 -660c-1 -6 -5 -10 -11 -10h-34c-6 0 -9 4 -8 10zM245 48c-3 3 -4 10 2 14l25 20c5 4 10 4 15 -1c26 -22 58 -40 97 -40c82 0 143 45 164 162l82 467c1 6 5 10 11 10h34c6 0 9 -4 8 -10l-83 -469
c-28 -157 -107 -211 -221 -211c-53 0 -106 26 -134 58z" />
    <glyph glyph-name="fi" unicode="fi" horiz-adv-x="523" 
d="M497 607h-41c-6 0 -9 4 -8 10l10 53c1 6 5 10 11 10h41c6 0 9 -4 8 -10l-10 -53c-1 -7 -5 -10 -11 -10zM386 0h-32c-6 0 -9 4 -8 10l80 457c1 6 5 10 11 10h32c6 0 9 -4 8 -10l-81 -457c-1 -6 -4 -10 -10 -10zM107 0h-33c-5 0 -8 4 -7 10l74 417c1 4 -1 6 -5 6h-49
c-6 0 -8 4 -7 10l4 24c1 6 5 10 11 10h49c4 0 6 2 7 6l10 54c19 112 59 143 151 143h26c6 0 9 -4 8 -10l-4 -28c-1 -7 -6 -10 -12 -10h-20c-67 0 -84 -14 -98 -90l-11 -59c-1 -4 0 -6 4 -6h97c6 0 10 -4 9 -10l-4 -24c-1 -7 -6 -10 -12 -10h-97c-3 0 -5 -2 -6 -6l-75 -417
c-1 -6 -5 -10 -10 -10z" />
    <glyph glyph-name="fl" unicode="fl" horiz-adv-x="544" 
d="M458 -3h-22c-67 0 -87 34 -74 109l103 564c1 6 5 10 10 10h32c6 0 9 -4 8 -10l-103 -563c-8 -47 2 -62 38 -62h16c6 0 9 -4 8 -10l-4 -28c-1 -7 -6 -10 -12 -10zM107 0h-33c-5 0 -8 4 -7 10l74 417c1 4 -1 6 -5 6h-49c-6 0 -8 4 -7 10l4 24c1 6 5 10 11 10h49
c4 0 6 2 7 6l10 54c19 112 59 143 151 143h26c6 0 9 -4 8 -10l-4 -28c-1 -7 -6 -10 -12 -10h-20c-67 0 -84 -14 -98 -90l-11 -59c-1 -4 0 -6 4 -6h97c6 0 10 -4 9 -10l-4 -24c-1 -7 -6 -10 -12 -10h-97c-3 0 -5 -2 -6 -6l-75 -417c-1 -6 -5 -10 -10 -10z" />
    <glyph glyph-name="ij" unicode="ij" horiz-adv-x="457" 
d="M203 607h-41c-6 0 -9 4 -8 10l10 53c1 6 5 10 11 10h41c6 0 9 -4 8 -10l-10 -53c-1 -7 -5 -10 -11 -10zM92 0h-32c-6 0 -9 4 -8 10l80 457c1 6 5 10 11 10h32c6 0 9 -4 8 -10l-81 -457c-1 -6 -4 -10 -10 -10zM431 607h-41c-6 0 -9 4 -8 10l10 53c1 6 5 10 11 10h41
c6 0 9 -4 8 -10l-10 -53c-1 -7 -5 -10 -11 -10zM180 -180h-10c-6 0 -9 4 -8 10l4 28c1 7 6 10 12 10h8c52 0 71 16 82 76l92 523c1 6 5 10 11 10h32c6 0 9 -4 8 -10l-92 -523c-17 -98 -51 -124 -139 -124z" />
    <glyph glyph-name="f_f_l" unicode="ffl" horiz-adv-x="839" 
d="M753 -3h-22c-67 0 -87 34 -74 109l103 564c1 6 5 10 10 10h32c6 0 9 -4 8 -10l-103 -563c-8 -47 2 -62 38 -62h16c6 0 9 -4 8 -10l-4 -28c-1 -7 -6 -10 -12 -10zM107 0h-33c-5 0 -8 4 -7 10l74 417c1 4 -1 6 -5 6h-49c-6 0 -8 4 -7 10l4 24c1 6 5 10 11 10h49
c4 0 6 2 7 6l10 54c19 112 59 143 151 143h26c6 0 9 -4 8 -10l-4 -28c-1 -7 -6 -10 -12 -10h-20c-67 0 -84 -14 -98 -90l-11 -59c-1 -4 0 -6 4 -6h97c6 0 10 -4 9 -10l-4 -24c-1 -7 -6 -10 -12 -10h-97c-3 0 -5 -2 -6 -6l-75 -417c-1 -6 -5 -10 -10 -10zM401 0h-33
c-5 0 -8 4 -7 10l74 417c1 4 -1 6 -5 6h-49c-6 0 -8 4 -7 10l4 24c1 6 5 10 11 10h49c4 0 6 2 7 6l10 54c19 112 59 143 151 143h26c6 0 9 -4 8 -10l-4 -28c-1 -7 -6 -10 -12 -10h-20c-67 0 -84 -14 -98 -90l-11 -59c-1 -4 0 -6 4 -6h97c6 0 10 -4 9 -10l-4 -24
c-1 -7 -6 -10 -12 -10h-97c-3 0 -5 -2 -6 -6l-75 -417c-1 -6 -5 -10 -10 -10z" />
    <glyph glyph-name="f_f_i" unicode="ffi" horiz-adv-x="818" 
d="M792 607h-41c-6 0 -9 4 -8 10l10 53c1 6 5 10 11 10h41c6 0 9 -4 8 -10l-10 -53c-1 -7 -5 -10 -11 -10zM681 0h-32c-6 0 -9 4 -8 10l80 457c1 6 5 10 11 10h32c6 0 9 -4 8 -10l-81 -457c-1 -6 -4 -10 -10 -10zM107 0h-33c-5 0 -8 4 -7 10l74 417c1 4 -1 6 -5 6h-49
c-6 0 -8 4 -7 10l4 24c1 6 5 10 11 10h49c4 0 6 2 7 6l10 54c19 112 59 143 151 143h26c6 0 9 -4 8 -10l-4 -28c-1 -7 -6 -10 -12 -10h-20c-67 0 -84 -14 -98 -90l-11 -59c-1 -4 0 -6 4 -6h97c6 0 10 -4 9 -10l-4 -24c-1 -7 -6 -10 -12 -10h-97c-3 0 -5 -2 -6 -6l-75 -417
c-1 -6 -5 -10 -10 -10zM401 0h-33c-5 0 -8 4 -7 10l74 417c1 4 -1 6 -5 6h-49c-6 0 -8 4 -7 10l4 24c1 6 5 10 11 10h49c4 0 6 2 7 6l10 54c19 112 59 143 151 143h26c6 0 9 -4 8 -10l-4 -28c-1 -7 -6 -10 -12 -10h-20c-67 0 -84 -14 -98 -90l-11 -59c-1 -4 0 -6 4 -6h97
c6 0 10 -4 9 -10l-4 -24c-1 -7 -6 -10 -12 -10h-97c-3 0 -5 -2 -6 -6l-75 -417c-1 -6 -5 -10 -10 -10z" />
    <glyph glyph-name="f_f" unicode="ff" horiz-adv-x="589" 
d="M107 0h-33c-5 0 -8 4 -7 10l74 417c1 4 -1 6 -5 6h-49c-6 0 -8 4 -7 10l4 24c1 6 5 10 11 10h49c4 0 6 2 7 6l10 54c19 112 59 143 151 143h26c6 0 9 -4 8 -10l-4 -28c-1 -7 -6 -10 -12 -10h-20c-67 0 -84 -14 -98 -90l-11 -59c-1 -4 0 -6 4 -6h97c6 0 10 -4 9 -10
l-4 -24c-1 -7 -6 -10 -12 -10h-97c-3 0 -5 -2 -6 -6l-75 -417c-1 -6 -5 -10 -10 -10zM401 0h-33c-5 0 -8 4 -7 10l74 417c1 4 -1 6 -5 6h-49c-6 0 -8 4 -7 10l4 24c1 6 5 10 11 10h49c4 0 6 2 7 6l10 54c19 112 59 143 151 143h26c6 0 9 -4 8 -10l-4 -28
c-1 -7 -6 -10 -12 -10h-20c-67 0 -84 -14 -98 -90l-11 -59c-1 -4 0 -6 4 -6h97c6 0 10 -4 9 -10l-4 -24c-1 -7 -6 -10 -12 -10h-97c-3 0 -5 -2 -6 -6l-75 -417c-1 -6 -5 -10 -10 -10z" />
    <glyph glyph-name=".notdef" horiz-adv-x="470" 
d="M460 0h-450c-6 0 -10 4 -10 10v660c0 6 4 10 10 10h450c6 0 10 -4 10 -10v-660c0 -6 -4 -10 -10 -10zM425 37c4 0 6 2 6 6v594c0 4 -2 6 -6 6h-380c-4 0 -6 -2 -6 -6v-594c0 -4 2 -6 6 -6h380zM237 224h-22c-6 0 -10 4 -10 10v24c0 30 6 47 22 67l37 48
c30 36 37 53 37 80c0 42 -30 70 -72 70c-40 0 -67 -22 -77 -67c-1 -6 -5 -9 -12 -8l-21 4c-6 1 -9 5 -8 11c11 58 55 99 119 99c68 0 112 -48 112 -109c0 -38 -11 -62 -38 -94l-37 -48c-17 -21 -20 -31 -20 -55v-22c0 -6 -4 -10 -10 -10zM241 113h-31c-6 0 -10 4 -10 10v39
c0 6 4 10 10 10h31c6 0 10 -4 10 -10v-39c0 -6 -4 -10 -10 -10z" />
    <glyph glyph-name=".null" horiz-adv-x="500" 
 />
    <glyph glyph-name=".null" horiz-adv-x="500" 
 />
    <glyph glyph-name="CR" unicode="&#xd;" horiz-adv-x="0" 
 />
    <glyph glyph-name="space" unicode=" " horiz-adv-x="236" 
 />
    <glyph glyph-name="exclam" unicode="!" horiz-adv-x="253" 
d="M109 176c-5 0 -9 4 -8 10l78 484c1 6 5 10 11 10h37c6 0 9 -4 8 -10l-94 -484c-1 -6 -5 -10 -11 -10h-21zM58 10l12 65c1 6 5 10 11 10h45c6 0 9 -4 8 -10l-10 -65c-2 -6 -6 -10 -12 -10h-45c-6 0 -10 4 -9 10z" />
    <glyph glyph-name="quotedbl" unicode="&#x22;" horiz-adv-x="301" 
d="M250 523c-6 0 -9 4 -8 10l24 137c1 6 5 10 11 10h23c6 0 9 -4 8 -10l-24 -137c-1 -6 -5 -10 -11 -10h-23zM136 523c-6 0 -9 4 -8 10l23 137c1 6 5 10 11 10h23c6 0 9 -4 8 -10l-23 -137c-1 -6 -5 -10 -11 -10h-23z" />
    <glyph glyph-name="numbersign" unicode="#" horiz-adv-x="496" 
d="M52 10l65 211h-80c-6 0 -10 4 -9 10l4 21c1 6 5 10 12 10h85l53 173h-83c-6 0 -10 4 -9 10l4 21c1 6 5 10 12 10h89l60 194c2 7 5 10 12 10h22c7 0 10 -4 8 -10l-60 -194h145l60 194c2 7 6 10 12 10h23c7 0 9 -4 7 -10l-60 -194h84c6 0 9 -4 8 -10l-4 -21
c-1 -6 -5 -10 -11 -10h-89l-53 -173h87c6 0 10 -4 9 -10l-4 -21c-1 -6 -5 -10 -12 -10h-93l-64 -211c-2 -6 -5 -10 -12 -10h-23c-7 0 -9 4 -7 10l64 211h-145l-65 -211c-2 -6 -5 -10 -12 -10h-23c-7 0 -9 4 -7 10zM171 262h146l53 173h-145z" />
    <glyph glyph-name="dollar" unicode="$" 
d="M32 51c-3 3 -3 9 1 13l21 24c5 5 10 4 14 1c34 -26 80 -48 141 -50l50 282c-97 16 -141 72 -141 151c0 124 87 211 206 218l9 51c1 6 6 10 11 10h17c5 0 9 -4 7 -10l-9 -52c53 -4 97 -22 130 -46c4 -4 5 -8 1 -14l-18 -23c-4 -5 -10 -5 -14 -2c-37 22 -68 34 -108 36
l-48 -273c102 -15 146 -70 146 -148c0 -128 -83 -217 -211 -228l-9 -52c-1 -6 -6 -10 -12 -10h-16c-6 0 -9 4 -8 10l9 51c-68 2 -132 28 -169 61zM268 372l47 268c-85 -7 -146 -74 -146 -162c0 -55 25 -92 99 -106zM245 40c92 10 152 81 152 170c0 54 -27 91 -104 105z" />
    <glyph glyph-name="percent" unicode="%" horiz-adv-x="739" 
d="M118 0l498 680c5 7 8 10 15 10h25c6 0 8 -4 4 -10l-497 -680c-6 -7 -9 -10 -16 -10h-25c-6 0 -8 4 -4 10zM216 330c-55 0 -93 33 -93 93c0 38 20 154 38 191c24 50 61 74 113 74c56 0 94 -33 94 -93c0 -38 -21 -154 -39 -191c-24 -50 -60 -74 -113 -74zM220 368
c31 0 55 15 71 46c17 34 36 141 36 178c0 35 -19 58 -57 58c-31 0 -54 -15 -70 -46c-18 -34 -37 -141 -37 -178c0 -35 20 -58 57 -58zM411 84c0 38 21 155 39 192c24 50 60 74 113 74c55 0 93 -33 93 -93c0 -38 -20 -155 -38 -192c-24 -49 -61 -73 -113 -73
c-56 0 -94 33 -94 92zM452 88c0 -35 19 -58 57 -58c31 0 54 15 70 45c17 34 36 142 36 179c0 35 -19 57 -57 57c-31 0 -54 -14 -70 -45c-17 -34 -36 -141 -36 -178z" />
    <glyph glyph-name="ampersand" unicode="&#x26;" horiz-adv-x="591" 
d="M48 130c0 91 55 162 176 251v1c-40 74 -59 113 -59 152c0 87 69 156 162 156c71 0 116 -47 116 -112c0 -61 -31 -116 -157 -209l110 -200l88 95c5 5 9 5 14 2l18 -19c4 -4 3 -9 -2 -14l-96 -104l31 -56c11 -19 20 -24 38 -24h16c6 0 9 -4 8 -10l-4 -29
c-1 -7 -5 -10 -11 -10h-16c-35 0 -51 9 -67 39l-30 53c-70 -70 -127 -102 -197 -102c-86 0 -138 58 -138 140zM264 410c108 78 131 120 131 161c0 46 -28 73 -76 73c-61 0 -105 -47 -105 -105c0 -29 12 -58 50 -129zM97 137c0 -61 35 -99 97 -99c53 0 101 28 167 95
l-115 208c-97 -71 -149 -130 -149 -204z" />
    <glyph glyph-name="quotesingle" unicode="'" horiz-adv-x="186" 
d="M136 523c-6 0 -9 4 -8 10l23 137c1 6 5 10 11 10h23c6 0 9 -4 8 -10l-23 -137c-1 -6 -5 -10 -11 -10h-23z" />
    <glyph glyph-name="parenleft" unicode="(" horiz-adv-x="276" 
d="M135 -74c-30 80 -47 172 -47 264c0 190 69 373 188 540c5 7 10 10 16 10h19c6 0 9 -4 5 -10c-109 -167 -179 -352 -179 -553c0 -89 13 -175 37 -251c2 -6 -2 -10 -8 -10h-18c-7 0 -11 4 -13 10z" />
    <glyph glyph-name="parenright" unicode=")" horiz-adv-x="276" 
d="M-4 -74c109 167 178 352 178 553c0 89 -12 175 -36 251c-2 6 1 10 7 10h19c6 0 10 -4 12 -10c31 -80 47 -172 47 -264c0 -190 -68 -373 -188 -540c-5 -7 -9 -10 -15 -10h-20c-6 0 -8 4 -4 10z" />
    <glyph glyph-name="asterisk" unicode="*" horiz-adv-x="339" 
d="M191 404c-6 0 -9 4 -8 10l17 97l-89 -49c-7 -4 -12 -3 -14 3l-5 15c-2 5 0 10 7 13l92 50l-73 49c-5 3 -5 9 -2 13l9 13c3 5 8 6 13 2l73 -48l17 98c1 6 6 10 12 10h15c6 0 9 -4 8 -10l-18 -98l90 50c7 4 12 2 14 -3l5 -15c2 -6 0 -10 -7 -14l-90 -49l73 -48
c5 -3 5 -9 2 -14l-9 -13c-4 -5 -9 -6 -14 -2l-74 49l-17 -99c-1 -6 -6 -10 -12 -10h-15z" />
    <glyph glyph-name="plus" unicode="+" 
d="M241 86v161c0 4 -2 6 -6 6h-158c-6 0 -10 4 -10 10v27c0 6 4 10 10 10h158c4 0 6 2 6 6v161c0 6 4 10 10 10h28c6 0 10 -4 10 -10v-161c0 -4 2 -6 6 -6h158c6 0 10 -4 10 -10v-27c0 -6 -4 -10 -10 -10h-158c-4 0 -6 -2 -6 -6v-161c0 -6 -4 -10 -10 -10h-28
c-6 0 -10 4 -10 10z" />
    <glyph glyph-name="comma" unicode="," horiz-adv-x="209" 
d="M52 75c1 6 5 10 11 10h40c6 0 9 -4 8 -10l-12 -73c-2 -10 -3 -13 -8 -22l-49 -77c-3 -5 -6 -8 -11 -8c-6 0 -9 4 -8 10z" />
    <glyph glyph-name="hyphen" unicode="-" horiz-adv-x="356" 
d="M61 243c-6 0 -9 4 -8 10l5 28c1 6 5 9 11 9h244c6 0 9 -4 8 -10l-4 -28c-1 -6 -6 -9 -12 -9h-244z" />
    <glyph glyph-name="period" unicode="." horiz-adv-x="209" 
d="M36 10l11 65c1 6 5 10 11 10h45c6 0 9 -4 8 -10l-10 -65c-1 -6 -5 -10 -11 -10h-46c-6 0 -9 4 -8 10z" />
    <glyph glyph-name="slash" unicode="/" horiz-adv-x="387" 
d="M25 0l333 680c3 7 7 10 14 10h28c5 0 8 -4 5 -10l-333 -680c-3 -7 -7 -10 -14 -10h-28c-6 0 -8 4 -5 10z" />
    <glyph glyph-name="zero" unicode="0" 
d="M66 136c0 84 52 369 83 434c41 86 107 120 187 120c94 0 150 -56 150 -146c0 -84 -52 -369 -83 -434c-41 -86 -107 -120 -187 -120c-94 0 -150 56 -150 146zM117 143c0 -64 36 -105 105 -105c60 0 105 29 133 86c30 60 79 340 79 413c0 64 -35 105 -104 105
c-60 0 -105 -29 -133 -86c-30 -60 -80 -340 -80 -413z" />
    <glyph glyph-name="one" unicode="1" 
d="M206 10l107 602h-2l-134 -89c-6 -4 -11 -1 -10 7l6 40c1 6 4 10 9 13l138 91c6 4 9 6 15 6h29c6 0 10 -4 9 -10l-116 -660c-1 -6 -5 -10 -11 -10h-31c-6 0 -10 4 -9 10z" />
    <glyph glyph-name="two" unicode="2" 
d="M38 9l4 25c0 4 2 9 7 14l297 329c56 60 82 107 82 160c0 63 -40 105 -105 105c-71 0 -123 -48 -147 -119c-2 -6 -7 -9 -12 -8l-29 6c-5 1 -7 6 -5 12c25 83 93 157 198 157c93 0 151 -62 151 -146c0 -74 -34 -130 -98 -200l-269 -294v-2h271c6 0 10 -4 9 -10l-5 -28
c-1 -6 -5 -10 -12 -10h-329c-5 0 -8 3 -8 9z" />
    <glyph glyph-name="three" unicode="3" 
d="M49 129c-1 6 2 11 8 13l30 8c5 1 9 -1 10 -7c7 -50 32 -105 118 -105c93 0 162 79 162 177c0 68 -41 116 -113 116h-30c-5 0 -8 4 -7 10l4 29c2 6 6 9 11 9h29c86 0 152 72 152 158c0 63 -37 105 -105 105c-76 0 -121 -49 -141 -100c-2 -6 -7 -9 -12 -8l-28 8
c-6 1 -8 6 -6 12c23 70 93 136 196 136c94 0 147 -59 147 -144c0 -88 -49 -154 -120 -188v-2c42 -18 75 -65 75 -132c0 -133 -88 -234 -219 -234c-109 0 -155 70 -161 139z" />
    <glyph glyph-name="four" unicode="4" 
d="M45 138c-6 0 -9 3 -8 9l5 27c1 5 2 8 4 12l298 486c4 6 7 8 14 8h34c6 0 8 -4 5 -9l-295 -484v-1h201c4 0 6 2 7 6l33 188c1 6 5 10 11 10h32c6 0 9 -4 8 -10l-33 -188c-1 -4 1 -6 5 -6h72c6 0 9 -4 8 -10l-5 -29c-1 -6 -5 -9 -11 -9h-73c-4 0 -6 -2 -7 -6l-21 -122
c-1 -6 -5 -10 -11 -10h-32c-6 0 -9 4 -8 10l23 122c1 4 -1 6 -5 6h-251z" />
    <glyph glyph-name="five" unicode="5" 
d="M71 134c0 5 3 10 8 11l30 7c7 1 10 -2 10 -8c1 -62 34 -106 108 -106c54 0 98 24 126 80c23 45 38 130 38 174c0 69 -30 106 -98 106c-62 0 -111 -40 -131 -84c-3 -7 -6 -10 -12 -10h-29c-6 0 -9 3 -8 10l63 356c1 6 5 10 11 10h306c6 0 10 -4 9 -10l-5 -28
c-1 -6 -6 -10 -12 -10h-262c-4 0 -6 -2 -7 -6l-43 -241h1c22 30 68 61 132 61c86 0 136 -48 136 -142c0 -51 -16 -150 -44 -207c-36 -74 -96 -107 -177 -107c-99 0 -151 61 -150 144z" />
    <glyph glyph-name="six" unicode="6" 
d="M55 152c0 63 20 121 71 195l221 326c4 5 6 7 13 7h35c7 0 8 -5 5 -9l-200 -296l2 -1c19 15 50 24 88 24c93 0 153 -62 153 -158c0 -130 -88 -250 -227 -250c-98 0 -161 60 -161 162zM106 158c0 -72 43 -120 115 -120c100 0 171 92 171 192c0 72 -44 120 -116 120
c-100 0 -170 -92 -170 -192z" />
    <glyph glyph-name="seven" unicode="7" 
d="M106 11l345 619v2h-240c-4 0 -6 -2 -7 -6l-17 -95c-1 -6 -5 -10 -11 -10h-30c-6 0 -8 4 -7 10l24 139c1 6 5 10 11 10h329c7 0 10 -4 9 -10l-6 -33c-1 -4 -3 -8 -5 -12l-343 -616c-4 -7 -7 -9 -15 -9h-33c-5 0 -8 4 -4 11z" />
    <glyph glyph-name="eight" unicode="8" 
d="M54 145c0 92 51 176 139 214v2c-39 21 -63 63 -63 117c0 107 77 212 207 212c92 0 147 -60 147 -144c0 -81 -45 -154 -118 -187v-2c47 -24 78 -71 78 -134c0 -127 -94 -233 -228 -233c-99 0 -162 63 -162 155zM284 382c86 0 150 70 150 157c0 60 -39 103 -104 103
c-86 0 -150 -70 -150 -157c0 -60 40 -103 104 -103zM104 155c0 -69 45 -117 119 -117c93 0 171 78 171 179c0 68 -45 117 -119 117c-93 0 -171 -80 -171 -179z" />
    <glyph glyph-name="nine" unicode="9" 
d="M150 9l200 296l-2 1c-19 -15 -49 -24 -87 -24c-94 0 -154 65 -154 161c0 126 86 247 228 247c97 0 161 -60 161 -162c0 -63 -22 -122 -71 -195l-221 -326c-4 -5 -7 -7 -14 -7h-35c-7 0 -8 5 -5 9zM274 330c101 0 171 93 171 191c0 73 -43 121 -115 121
c-101 0 -171 -93 -171 -191c0 -73 43 -121 115 -121z" />
    <glyph glyph-name="colon" unicode=":" horiz-adv-x="209" 
d="M114 392c-6 0 -9 4 -8 10l10 64c1 6 5 10 11 10h46c6 0 9 -4 8 -10l-10 -64c-1 -6 -5 -10 -11 -10h-46zM36 10l11 65c1 6 5 10 11 10h45c6 0 9 -4 8 -10l-10 -65c-1 -6 -5 -10 -11 -10h-46c-6 0 -9 4 -8 10z" />
    <glyph glyph-name="semicolon" unicode=";" horiz-adv-x="209" 
d="M114 392c-6 0 -9 4 -8 10l10 64c1 6 5 10 11 10h46c6 0 9 -4 8 -10l-10 -64c-1 -6 -5 -10 -11 -10h-46zM50 75c1 6 5 10 11 10h40c6 0 9 -4 8 -10l-12 -73c-2 -10 -4 -13 -8 -22l-49 -77c-3 -5 -7 -8 -12 -8s-8 4 -7 10z" />
    <glyph glyph-name="less" unicode="&#x3c;" 
d="M73 252c-8 3 -10 6 -10 12v24c0 6 2 9 10 12l376 154c6 2 10 0 10 -6v-33c0 -7 -2 -10 -10 -13l-319 -125v-2l319 -125c8 -3 10 -6 10 -13v-33c0 -6 -4 -8 -10 -6z" />
    <glyph glyph-name="equal" unicode="=" 
d="M77 349c-6 0 -10 4 -10 10v28c0 6 4 10 10 10h376c6 0 10 -4 10 -10v-28c0 -6 -4 -10 -10 -10h-376zM77 155c-6 0 -10 4 -10 10v28c0 6 4 10 10 10h376c6 0 10 -4 10 -10v-28c0 -6 -4 -10 -10 -10h-376z" />
    <glyph glyph-name="greater" unicode="&#x3e;" 
d="M67 104v33c0 7 2 10 10 13l318 125v2l-318 125c-8 3 -10 6 -10 13v33c0 6 4 8 10 6l376 -154c8 -3 10 -6 10 -12v-24c0 -6 -2 -9 -10 -12l-376 -154c-6 -2 -10 0 -10 6z" />
    <glyph glyph-name="question" unicode="?" horiz-adv-x="428" 
d="M190 173c-6 0 -9 4 -8 10l8 40c7 41 19 67 49 99l64 72c63 66 86 105 86 154c0 60 -39 94 -96 94c-65 0 -116 -44 -141 -114c-2 -6 -6 -9 -12 -8l-30 5c-6 1 -7 6 -5 12c29 93 101 153 196 153c87 0 139 -55 139 -135c0 -57 -28 -110 -88 -175l-64 -73
c-33 -35 -40 -49 -48 -88l-8 -36c-1 -6 -5 -10 -11 -10h-31zM148 10l11 65c1 6 5 10 11 10h45c6 0 9 -4 8 -10l-10 -65c-1 -6 -5 -10 -11 -10h-46c-6 0 -9 4 -8 10z" />
    <glyph glyph-name="at" unicode="@" horiz-adv-x="879" 
d="M56 195c0 273 177 464 445 464c193 0 326 -123 326 -316c0 -149 -57 -287 -190 -287c-51 0 -90 31 -99 80h-1c-33 -54 -83 -80 -146 -80c-70 1 -120 46 -120 130c0 52 13 129 38 182c33 68 85 99 151 99c64 0 95 -29 107 -62h2l7 43c1 6 6 10 11 10h26c6 0 9 -4 8 -10
l-43 -245c-13 -72 22 -104 66 -104c100 0 138 131 138 237c0 178 -114 281 -289 281c-231 0 -392 -171 -392 -418c0 -175 113 -282 288 -282c96 0 153 21 209 49c5 2 10 1 12 -4l8 -24c2 -5 0 -9 -6 -12c-62 -33 -131 -53 -230 -53c-195 0 -326 126 -326 322zM316 193
c0 -56 25 -93 85 -94c51 0 92 23 116 74c21 41 35 112 35 158c0 56 -27 93 -86 94c-51 0 -92 -23 -116 -74c-21 -41 -34 -113 -34 -158z" />
    <glyph glyph-name="A" unicode="A" horiz-adv-x="575" 
d="M1 0c-6 0 -8 4 -5 10l346 660c3 6 6 10 13 10h32c7 0 9 -4 10 -10l110 -660c1 -6 -3 -10 -9 -10h-32c-6 0 -10 2 -11 10l-28 170h-285l-89 -170c-4 -8 -8 -10 -14 -10h-38zM168 230h251l-59 363h-2z" />
    <glyph glyph-name="B" unicode="B" horiz-adv-x="583" 
d="M54 10l116 660c1 6 5 10 11 10h217c106 0 164 -53 164 -143c0 -95 -51 -162 -133 -187v-2c38 -11 87 -50 87 -128c0 -135 -84 -220 -235 -220h-219c-5 0 -9 4 -8 10zM176 371h169c102 0 163 67 163 155c0 65 -40 104 -117 104h-169c-4 0 -6 -2 -7 -6l-43 -247
c-1 -4 1 -6 4 -6zM115 56c-1 -4 0 -6 4 -6h173c109 0 172 68 172 162c0 66 -41 109 -123 109h-173c-4 0 -6 -2 -7 -6z" />
    <glyph glyph-name="C" unicode="C" horiz-adv-x="537" 
d="M64 183c0 76 34 279 72 357c51 104 122 150 227 150c82 0 148 -46 174 -131c2 -5 0 -9 -5 -11l-28 -13c-6 -3 -11 -1 -13 4c-24 65 -66 100 -134 100c-78 0 -133 -38 -172 -116c-36 -74 -68 -263 -68 -334c0 -93 48 -148 140 -148c73 0 125 37 167 99c3 4 7 6 12 4
l28 -16c5 -3 5 -8 2 -13c-55 -88 -127 -125 -217 -125c-114 0 -185 69 -185 193z" />
    <glyph glyph-name="D" unicode="D" horiz-adv-x="604" 
d="M54 10l116 660c1 6 5 10 11 10h205c119 0 184 -59 184 -178c0 -85 -34 -289 -75 -371c-46 -96 -118 -131 -228 -131h-205c-6 0 -9 4 -8 10zM115 57c-1 -4 0 -6 4 -6h147c91 0 149 33 184 105c34 69 68 258 68 337c0 94 -48 136 -149 136h-147c-4 0 -6 -1 -7 -6z" />
    <glyph glyph-name="E" unicode="E" horiz-adv-x="535" 
d="M54 10l116 660c1 6 5 10 11 10h373c6 0 9 -4 8 -10l-5 -31c-1 -7 -5 -10 -12 -10h-323c-4 0 -6 -2 -7 -6l-43 -246c-1 -5 1 -7 5 -7h277c6 0 9 -4 8 -10l-5 -30c-1 -7 -5 -10 -12 -10h-277c-4 0 -6 -2 -7 -6l-46 -257c-1 -4 1 -6 5 -6h323c6 0 9 -4 8 -10l-5 -31
c-1 -7 -5 -10 -12 -10h-372c-6 0 -9 4 -8 10z" />
    <glyph glyph-name="F" unicode="F" horiz-adv-x="528" 
d="M54 10l116 660c1 6 5 10 11 10h373c6 0 9 -4 8 -10l-5 -31c-1 -7 -5 -10 -12 -10h-323c-4 0 -6 -2 -7 -6l-45 -253c0 -5 2 -7 6 -7h277c6 0 9 -4 8 -10l-5 -30c-1 -7 -5 -10 -12 -10h-277c-4 0 -6 -2 -7 -6l-53 -297c-1 -6 -5 -10 -11 -10h-34c-6 0 -9 4 -8 10z" />
    <glyph glyph-name="G" unicode="G" horiz-adv-x="584" 
d="M65 183c0 76 33 280 72 357c50 104 126 150 238 150c84 0 157 -44 182 -126c1 -6 -1 -10 -6 -12l-29 -13c-6 -2 -10 0 -11 4c-25 66 -76 96 -145 96c-82 0 -143 -41 -180 -116c-36 -74 -68 -263 -68 -334c0 -94 50 -148 142 -148c80 0 141 36 180 115c16 32 31 76 40 133
c1 4 -1 6 -5 6h-149c-6 0 -9 4 -8 10l5 30c1 6 5 9 10 9h200c5 0 8 -4 7 -10l-7 -41c-9 -55 -27 -119 -43 -153c-51 -105 -127 -150 -238 -150c-115 0 -187 69 -187 193z" />
    <glyph glyph-name="H" unicode="H" horiz-adv-x="624" 
d="M54 10l116 660c1 6 5 10 11 10h34c6 0 9 -4 8 -10l-52 -294c-1 -4 1 -6 5 -6h325c4 0 6 2 7 6l52 294c1 6 5 10 11 10h34c6 0 9 -4 8 -10l-116 -660c-1 -6 -5 -10 -11 -10h-34c-6 0 -9 4 -8 10l53 304c1 4 0 6 -4 6h-325c-4 0 -6 -2 -7 -6l-54 -304c-1 -6 -5 -10 -11 -10
h-34c-6 0 -9 4 -8 10z" />
    <glyph glyph-name="I" unicode="I" horiz-adv-x="234" 
d="M54 10l116 660c1 6 5 10 11 10h34c6 0 9 -4 8 -10l-116 -660c-1 -6 -5 -10 -11 -10h-34c-6 0 -9 4 -8 10z" />
    <glyph glyph-name="J" unicode="J" horiz-adv-x="459" 
d="M11 48c-3 3 -4 10 2 14l25 20c5 4 10 4 15 -1c26 -22 58 -40 97 -40c82 0 143 45 164 162l82 467c1 6 5 10 11 10h34c6 0 9 -4 8 -10l-83 -469c-28 -157 -107 -211 -221 -211c-53 0 -106 26 -134 58z" />
    <glyph glyph-name="K" unicode="K" horiz-adv-x="574" 
d="M54 10l116 660c1 6 5 10 11 10h34c6 0 9 -4 8 -10l-68 -388l379 389c7 6 12 9 19 9h43c5 0 7 -6 3 -11l-256 -259l151 -399c2 -6 -1 -11 -7 -11h-35c-7 0 -10 2 -12 9l-135 360l-165 -168l-33 -191c-1 -6 -5 -10 -11 -10h-34c-6 0 -9 4 -8 10z" />
    <glyph glyph-name="L" unicode="L" horiz-adv-x="507" 
d="M54 10l116 660c1 6 5 10 11 10h34c6 0 9 -4 8 -10l-108 -613c-1 -4 1 -6 4 -6h324c5 0 9 -4 8 -10l-5 -31c-1 -6 -5 -10 -11 -10h-373c-5 0 -9 4 -8 10z" />
    <glyph glyph-name="M" unicode="M" horiz-adv-x="725" 
d="M54 10l116 660c1 6 5 10 11 10h30c7 0 10 -3 12 -10l128 -494h3l302 494c4 7 9 10 14 10h36c6 0 9 -4 8 -10l-116 -660c-1 -6 -5 -10 -11 -10h-31c-6 0 -9 4 -8 10l96 540h-3l-271 -438c-5 -9 -9 -11 -18 -11h-19c-9 0 -13 3 -15 11l-115 440h-3l-96 -542
c-1 -6 -5 -10 -11 -10h-31c-5 0 -9 4 -8 10z" />
    <glyph glyph-name="N" unicode="N" horiz-adv-x="625" 
d="M54 10l116 660c1 6 5 10 11 10h32c6 0 10 -2 13 -10l234 -567h2l102 567c1 6 5 10 11 10h31c6 0 9 -4 8 -10l-116 -660c-1 -6 -5 -10 -11 -10h-31c-6 0 -11 2 -14 10l-235 568h-2l-101 -568c-1 -6 -5 -10 -11 -10h-31c-5 0 -9 4 -8 10z" />
    <glyph glyph-name="O" unicode="O" horiz-adv-x="586" 
d="M251 -10c-116 0 -186 69 -186 193c0 76 33 280 72 357c50 104 126 150 237 150c116 0 186 -69 186 -193c0 -76 -33 -280 -72 -357c-50 -104 -126 -150 -237 -150zM259 41c83 0 143 41 180 116c36 74 68 263 68 334c0 94 -50 148 -141 148c-83 0 -143 -41 -180 -116
c-36 -74 -68 -263 -68 -334c0 -94 49 -148 141 -148z" />
    <glyph glyph-name="P" unicode="P" horiz-adv-x="561" 
d="M96 0h-34c-6 0 -9 4 -8 10l116 660c1 6 5 10 11 10h218c109 0 170 -56 170 -150c0 -150 -99 -234 -237 -234h-168c-4 0 -7 -2 -7 -6l-50 -280c-1 -6 -5 -10 -11 -10zM336 347c108 1 181 65 181 176c0 68 -44 106 -128 106h-167c-4 0 -6 -2 -7 -6l-48 -270
c-1 -4 1 -6 5 -6h164z" />
    <glyph glyph-name="Q" unicode="Q" horiz-adv-x="587" 
d="M474 -27l-22 -16c-5 -3 -10 -3 -13 2l-41 71c-40 -27 -89 -40 -147 -40c-116 0 -186 69 -186 193c0 76 33 280 72 357c50 104 126 150 237 150c116 0 186 -69 186 -193c0 -76 -33 -280 -72 -357c-15 -31 -33 -57 -52 -78l43 -76c3 -5 1 -10 -5 -13zM259 41
c44 0 82 11 113 34l-54 95c-2 5 -1 10 5 14l22 15c5 4 10 4 14 -2l50 -88c11 14 21 30 30 48c36 74 68 263 68 334c0 94 -50 148 -141 148c-83 0 -143 -41 -180 -116c-36 -74 -68 -263 -68 -334c0 -94 49 -148 141 -148z" />
    <glyph glyph-name="R" unicode="R" horiz-adv-x="591" 
d="M479 0h-36c-6 0 -9 2 -11 9l-87 297h-11h-168c-4 0 -7 -2 -7 -6l-52 -290c-1 -6 -5 -10 -11 -10h-34c-6 0 -9 4 -8 10l116 660c1 6 5 10 11 10h218c108 0 170 -56 170 -151c0 -115 -67 -195 -173 -217l89 -301c3 -6 0 -11 -6 -11zM341 357c111 0 175 65 175 166
c0 70 -44 106 -126 106h-168c-4 0 -6 -2 -7 -6l-46 -260c-1 -4 1 -6 5 -6h167z" />
    <glyph glyph-name="S" unicode="S" horiz-adv-x="572" 
d="M240 -10c-83 0 -166 38 -203 79c-3 4 -3 8 1 13l23 26c5 5 9 5 14 1c52 -44 107 -68 178 -68c117 0 196 67 196 166c0 64 -31 96 -131 110l-29 4c-109 16 -161 69 -161 156c0 126 93 213 232 213c71 0 139 -25 179 -59c5 -4 5 -9 1 -14l-17 -23c-4 -6 -11 -7 -17 -3
c-46 32 -97 48 -154 48c-101 0 -169 -68 -169 -155c0 -63 32 -99 133 -113l29 -4c113 -16 158 -67 158 -152c0 -137 -99 -225 -263 -225z" />
    <glyph glyph-name="T" unicode="T" horiz-adv-x="501" 
d="M229 0h-33c-6 0 -9 4 -8 10l108 613c1 4 0 6 -4 6h-189c-5 0 -8 4 -7 10l5 31c1 6 5 10 11 10h441c5 0 9 -4 8 -10l-6 -31c-1 -6 -5 -10 -11 -10h-189c-3 0 -5 -2 -6 -6l-109 -613c-1 -6 -5 -10 -11 -10z" />
    <glyph glyph-name="U" unicode="U" horiz-adv-x="610" 
d="M276 -10c-140 0 -217 84 -188 246l76 434c1 6 5 10 11 10h34c6 0 9 -4 8 -10l-77 -436c-22 -129 29 -193 140 -193c108 0 170 49 196 193l77 436c1 6 5 10 11 10h33c6 0 9 -4 8 -10l-77 -439c-30 -175 -111 -241 -252 -241z" />
    <glyph glyph-name="V" unicode="V" horiz-adv-x="539" 
d="M246 0h-30c-6 0 -8 4 -9 10l-102 656c-2 9 2 14 9 14h31c8 0 11 -3 12 -11l88 -578h2l289 579c4 8 8 10 16 10h33c7 0 11 -5 5 -14l-331 -656c-4 -7 -7 -10 -13 -10z" />
    <glyph glyph-name="W" unicode="W" horiz-adv-x="788" 
d="M550 0h-28c-5 0 -9 3 -10 10l-53 565h-2l-255 -565c-3 -7 -7 -10 -14 -10h-27c-6 0 -9 3 -10 10l-39 659c0 7 3 11 10 11h31c7 0 11 -4 11 -11l29 -562h2l252 563c3 7 7 10 14 10h25c7 0 10 -3 11 -10l53 -563h2l228 563c3 7 6 10 14 10h34c7 0 10 -4 7 -11l-272 -659
c-3 -7 -7 -10 -13 -10z" />
    <glyph glyph-name="X" unicode="X" horiz-adv-x="523" 
d="M447 0h-38c-6 0 -9 3 -11 9l-117 293h-1l-223 -293c-4 -6 -7 -9 -12 -9h-44c-6 0 -8 5 -4 11l261 346l-123 312c-3 6 0 11 6 11h39c6 0 9 -3 11 -9l103 -260h1l196 260c4 6 7 9 14 9h41c6 0 8 -5 4 -11l-233 -313l136 -345c3 -6 0 -11 -6 -11z" />
    <glyph glyph-name="Y" unicode="Y" horiz-adv-x="496" 
d="M226 0h-33c-6 0 -9 4 -8 10l47 269l-126 390c-2 6 1 11 8 11h32c7 0 11 -2 13 -10l107 -327h3l224 327c5 8 9 10 16 10h34c8 0 10 -6 6 -11l-264 -390l-48 -269c-1 -6 -5 -10 -11 -10z" />
    <glyph glyph-name="Z" unicode="Z" horiz-adv-x="518" 
d="M419 0h-396c-6 0 -9 4 -8 10l5 32c1 5 3 9 8 14l448 572v1h-329c-6 0 -9 4 -8 10l5 31c1 6 5 10 11 10h384c6 0 9 -4 8 -10l-5 -30c-1 -5 -3 -9 -7 -14l-450 -574v-1h343c6 0 9 -4 8 -10l-5 -31c-1 -7 -6 -10 -12 -10z" />
    <glyph glyph-name="bracketleft" unicode="[" horiz-adv-x="272" 
d="M166 -84h-112c-6 0 -9 4 -8 10l142 804c1 6 5 10 11 10h112c6 0 9 -4 8 -10l-4 -25c-1 -6 -5 -10 -11 -10h-68c-4 0 -6 -2 -7 -6l-128 -722c-1 -4 1 -6 5 -6h68c6 0 9 -4 8 -10l-4 -25c-1 -7 -6 -10 -12 -10z" />
    <glyph glyph-name="backslash" unicode="\" horiz-adv-x="387" 
d="M273 -10h-27c-7 0 -10 3 -11 10l-92 680c0 6 3 10 8 10h27c7 0 10 -3 11 -10l92 -680c1 -6 -2 -10 -8 -10z" />
    <glyph glyph-name="bracketright" unicode="]" horiz-adv-x="272" 
d="M111 -84h-112c-6 0 -10 4 -9 10l5 25c1 6 5 10 11 10h68c4 0 6 2 7 6l128 722c1 4 -1 6 -5 6h-68c-6 0 -9 4 -8 10l4 25c1 7 6 10 12 10h112c6 0 9 -4 8 -10l-142 -804c-1 -6 -5 -10 -11 -10z" />
    <glyph glyph-name="asciicircum" unicode="^" 
d="M455 283h-27c-6 0 -10 3 -13 10l-149 323h-2l-149 -323c-3 -7 -7 -10 -14 -10h-26c-6 0 -10 4 -7 10l173 377c3 6 7 10 14 10h20c7 0 11 -4 14 -10l173 -377c3 -6 -1 -10 -7 -10z" />
    <glyph glyph-name="underscore" unicode="_" horiz-adv-x="441" 
d="M380 -122h-439l7 39h439z" />
    <glyph glyph-name="grave" unicode="`" horiz-adv-x="406" 
d="M346 558h-20c-8 0 -10 3 -15 10l-62 122c-3 5 1 10 7 10h31c8 0 10 -3 13 -10l53 -122c3 -6 -1 -10 -7 -10z" />
    <glyph glyph-name="a" unicode="a" horiz-adv-x="492" 
d="M361 0h-29c-6 0 -9 4 -8 10l9 50h-1c-26 -40 -79 -70 -155 -70c-82 0 -131 45 -131 117c0 107 71 163 200 163h116c4 0 7 2 8 6l9 52c15 81 -4 112 -98 112c-53 0 -93 -15 -122 -38c-6 -5 -12 -4 -15 2l-13 22c-3 5 -1 10 3 13c39 30 91 48 158 48
c115 0 157 -42 137 -157l-57 -320c-1 -6 -5 -10 -11 -10zM195 35c79 0 141 46 152 112l13 74c1 4 -1 6 -4 6h-109c-108 0 -151 -44 -151 -114c0 -48 32 -78 99 -78z" />
    <glyph glyph-name="b" unicode="b" horiz-adv-x="509" 
d="M241 -10c-71 0 -111 36 -127 81h-1l-11 -61c-1 -6 -4 -10 -10 -10h-32c-6 0 -9 4 -8 10l116 660c1 6 5 10 11 10h32c6 0 9 -4 8 -10l-46 -261h1c30 44 78 78 152 78c91 0 138 -59 138 -155c0 -77 -25 -183 -49 -230c-36 -76 -94 -112 -174 -112zM238 38
c61 0 105 31 133 87c25 51 42 144 42 199c0 69 -28 115 -104 115c-56 0 -106 -28 -138 -93c-15 -30 -39 -144 -39 -197c0 -66 36 -111 106 -111z" />
    <glyph glyph-name="c" unicode="c" horiz-adv-x="449" 
d="M201 -10c-98 0 -150 60 -150 162c0 65 16 150 45 212c39 79 106 123 190 123c71 0 117 -33 138 -92c2 -6 1 -11 -4 -14l-25 -14c-6 -4 -11 -2 -13 4c-18 47 -48 68 -101 68s-107 -33 -137 -92c-29 -60 -42 -143 -42 -186c0 -78 31 -123 106 -123c47 0 89 19 129 69
c4 5 10 6 15 2l20 -18c5 -4 4 -10 0 -15c-43 -55 -101 -86 -171 -86z" />
    <glyph glyph-name="d" unicode="d" horiz-adv-x="509" 
d="M372 0h-32c-6 0 -9 4 -8 10l10 57h-1c-30 -43 -78 -77 -151 -77c-92 0 -139 59 -139 155c0 76 26 183 49 230c37 76 94 112 174 112c71 0 111 -37 127 -81h1l46 264c1 6 5 10 11 10h31c6 0 10 -4 9 -10l-116 -660c-1 -6 -5 -10 -11 -10zM206 38c56 0 106 28 138 92
c15 30 39 145 39 198c0 66 -36 111 -106 111c-61 0 -105 -32 -133 -88c-25 -50 -42 -143 -42 -198c0 -69 28 -115 104 -115z" />
    <glyph glyph-name="e" unicode="e" horiz-adv-x="476" 
d="M206 -10c-101 0 -155 59 -155 159c0 69 14 155 44 215c38 79 104 123 191 123c86 0 148 -54 148 -157c0 -23 -2 -49 -10 -93c-1 -6 -5 -10 -12 -10h-299c-4 0 -6 -2 -7 -6c-6 -26 -6 -44 -6 -66c0 -75 37 -117 113 -117c59 0 107 28 141 64c5 5 10 5 14 2l17 -19
c4 -5 4 -10 -1 -15c-42 -47 -103 -80 -178 -80zM121 270h252c4 0 6 2 7 6c4 18 6 37 6 51c0 76 -38 113 -106 113c-60 0 -110 -31 -139 -90c-10 -20 -19 -48 -24 -74c-1 -4 0 -6 4 -6z" />
    <glyph glyph-name="f" unicode="f" horiz-adv-x="295" 
d="M107 0h-33c-5 0 -8 4 -7 10l74 417c1 4 -1 6 -5 6h-49c-6 0 -8 4 -7 10l4 24c1 6 5 10 11 10h49c4 0 6 2 7 6l10 54c19 112 59 143 151 143h26c6 0 9 -4 8 -10l-4 -28c-1 -7 -6 -10 -12 -10h-20c-67 0 -84 -14 -98 -90l-11 -59c-1 -4 0 -6 4 -6h97c6 0 10 -4 9 -10
l-4 -24c-1 -7 -6 -10 -12 -10h-97c-3 0 -5 -2 -6 -6l-75 -417c-1 -6 -5 -10 -10 -10z" />
    <glyph glyph-name="g" unicode="g" horiz-adv-x="501" 
d="M164 -190c-60 0 -113 26 -140 73c-4 6 -2 12 3 15l23 18c6 3 10 3 14 -3c24 -34 57 -55 106 -55c81 0 137 46 155 152l11 63h-1c-30 -48 -76 -76 -146 -76c-90 0 -137 59 -137 150c0 60 17 163 48 226c37 76 94 114 172 114c69 0 108 -36 122 -81h1l10 61c1 6 6 10 12 10
h30c6 0 9 -4 8 -10l-80 -456c-27 -148 -99 -201 -211 -201zM206 45c50 0 98 25 128 85c23 44 42 152 42 198c0 65 -34 111 -102 111c-57 0 -100 -30 -128 -87c-28 -56 -43 -135 -43 -196c0 -67 31 -111 103 -111z" />
    <glyph glyph-name="h" unicode="h" horiz-adv-x="519" 
d="M387 0h-32c-5 0 -8 4 -7 10l51 282c17 100 -14 147 -95 147c-66 0 -135 -53 -150 -135l-52 -294c-1 -6 -4 -10 -10 -10h-33c-5 0 -8 4 -7 10l116 660c1 6 5 10 11 10h32c6 0 9 -4 8 -10l-46 -258h1c32 46 86 75 149 75c102 0 149 -66 129 -182l-54 -295
c-1 -6 -5 -10 -11 -10z" />
    <glyph glyph-name="i" unicode="i" horiz-adv-x="228" 
d="M203 607h-41c-6 0 -9 4 -8 10l10 53c1 6 5 10 11 10h41c6 0 9 -4 8 -10l-10 -53c-1 -7 -5 -10 -11 -10zM92 0h-32c-6 0 -9 4 -8 10l80 457c1 6 5 10 11 10h32c6 0 9 -4 8 -10l-81 -457c-1 -6 -4 -10 -10 -10z" />
    <glyph glyph-name="j" unicode="j" horiz-adv-x="228" 
d="M203 607h-41c-6 0 -9 4 -8 10l10 53c1 6 5 10 11 10h41c6 0 9 -4 8 -10l-10 -53c-1 -7 -5 -10 -11 -10zM-48 -180h-10c-6 0 -9 4 -8 10l4 28c1 7 6 10 12 10h8c52 0 71 16 82 76l92 523c1 6 5 10 11 10h32c6 0 9 -4 8 -10l-92 -523c-17 -98 -51 -124 -139 -124z" />
    <glyph glyph-name="k" unicode="k" horiz-adv-x="480" 
d="M395 0h-32c-7 0 -10 2 -14 10l-103 253l-121 -125l-23 -128c-1 -6 -5 -10 -11 -10h-32c-5 0 -8 4 -7 10l116 660c1 6 5 10 11 10h32c6 0 9 -4 8 -10l-81 -454l249 251c7 7 11 10 18 10h41c6 0 8 -6 3 -10l-165 -168l119 -289c2 -5 -2 -10 -8 -10z" />
    <glyph glyph-name="l" unicode="l" horiz-adv-x="250" 
d="M164 -3h-22c-67 0 -87 34 -74 109l103 564c1 6 5 10 10 10h32c6 0 9 -4 8 -10l-103 -563c-8 -47 2 -62 38 -62h16c6 0 9 -4 8 -10l-4 -28c-1 -7 -6 -10 -12 -10z" />
    <glyph glyph-name="m" unicode="m" horiz-adv-x="815" 
d="M684 0h-31c-5 0 -9 4 -8 10l51 282c17 100 -14 147 -95 147c-67 0 -135 -51 -150 -135l-52 -294c-1 -6 -5 -10 -11 -10h-31c-5 0 -9 4 -8 10l49 282c18 98 -12 147 -94 147c-66 0 -135 -53 -149 -135l-53 -294c-1 -6 -4 -10 -10 -10h-32c-6 0 -9 4 -8 10l81 457
c1 6 5 10 11 10h31c6 0 9 -4 8 -10l-10 -55h1c32 46 86 75 149 75c72 0 114 -32 126 -89h1c35 53 93 89 167 89c105 0 151 -66 131 -182l-53 -295c-1 -6 -5 -10 -11 -10z" />
    <glyph glyph-name="n" unicode="n" horiz-adv-x="519" 
d="M387 0h-32c-5 0 -8 4 -7 10l51 282c17 100 -14 147 -95 147c-66 0 -135 -53 -150 -135l-52 -294c-1 -6 -4 -10 -10 -10h-33c-5 0 -8 4 -7 10l80 457c1 6 5 10 11 10h32c6 0 9 -4 8 -10l-10 -55h1c32 46 86 75 149 75c102 0 149 -66 129 -182l-54 -295
c-1 -6 -5 -10 -11 -10z" />
    <glyph glyph-name="o" unicode="o" horiz-adv-x="486" 
d="M98 369c39 82 105 118 191 118c101 0 153 -63 153 -161c0 -70 -24 -171 -47 -218c-39 -82 -105 -118 -191 -118c-101 0 -153 63 -153 161c0 70 24 171 47 218zM391 316c0 79 -32 123 -110 123c-61 0 -108 -30 -138 -91c-18 -36 -41 -132 -41 -187c0 -79 32 -123 110 -123
c61 0 108 30 138 91c18 36 41 132 41 187z" />
    <glyph glyph-name="p" unicode="p" horiz-adv-x="509" 
d="M60 -180h-32c-6 0 -9 4 -8 10l112 637c1 6 5 10 11 10h32c6 0 9 -4 8 -10l-10 -58h1c30 44 78 78 152 78c91 0 138 -59 138 -155c0 -77 -25 -183 -49 -230c-36 -76 -94 -112 -174 -112c-71 0 -111 36 -127 81h-1l-42 -241c-1 -6 -5 -10 -11 -10zM238 38
c61 0 105 31 133 87c25 51 42 144 42 199c0 69 -28 115 -104 115c-56 0 -106 -28 -138 -93c-15 -30 -39 -144 -39 -197c0 -66 36 -111 106 -111z" />
    <glyph glyph-name="q" unicode="q" horiz-adv-x="509" 
d="M340 -180h-32c-6 0 -9 4 -8 10l42 235h-1c-30 -42 -77 -75 -151 -75c-91 0 -139 57 -139 155c0 76 27 183 50 230c37 76 93 112 174 112c71 0 111 -34 126 -80h1l11 60c1 6 5 10 11 10h31c6 0 10 -4 9 -10l-113 -637c-1 -6 -5 -10 -11 -10zM207 38c56 0 105 28 138 92
c14 30 38 145 38 198c0 66 -34 111 -105 111c-60 0 -105 -32 -133 -88c-25 -50 -43 -143 -43 -198c0 -69 27 -115 105 -115z" />
    <glyph glyph-name="r" unicode="r" horiz-adv-x="381" 
d="M92 0h-32c-6 0 -9 4 -8 10l80 457c1 6 5 10 11 10h32c6 0 9 -4 8 -10l-11 -61h1c25 48 73 81 136 81c36 0 68 -13 87 -33c3 -4 4 -8 0 -13l-21 -25c-5 -4 -10 -4 -14 -1c-20 14 -41 24 -70 24c-81 0 -126 -78 -142 -164l-47 -265c-1 -6 -4 -10 -10 -10z" />
    <glyph glyph-name="s" unicode="s" horiz-adv-x="462" 
d="M197 -10c-82 0 -142 36 -171 67c-4 4 -3 9 1 13l23 22c5 4 10 3 13 0c32 -29 75 -55 139 -55c89 0 143 51 143 114c0 40 -22 60 -86 67l-46 5c-80 9 -119 46 -119 108c0 93 75 156 185 156c56 0 113 -22 145 -46c4 -4 4 -8 1 -13l-19 -21c-3 -5 -8 -7 -15 -3
c-27 17 -70 36 -118 36c-77 0 -128 -45 -128 -102c0 -40 24 -61 91 -68l46 -5c78 -8 114 -45 114 -104c0 -104 -77 -171 -199 -171z" />
    <glyph glyph-name="t" unicode="t" horiz-adv-x="295" 
d="M203 -3h-24c-84 0 -112 34 -96 128l57 302c1 4 -1 6 -5 6h-48c-6 0 -9 4 -8 10l4 24c1 6 5 10 11 10h49c4 0 7 2 8 6l23 137c1 6 6 10 11 10h32c6 0 9 -4 8 -10l-24 -137c-1 -4 1 -6 4 -6h86c6 0 9 -4 8 -10l-4 -24c-1 -7 -5 -10 -11 -10h-86c-4 0 -6 -2 -7 -6l-57 -298
c-12 -68 3 -84 60 -84h17c6 0 9 -4 8 -10l-4 -28c-1 -7 -6 -10 -12 -10z" />
    <glyph glyph-name="u" unicode="u" horiz-adv-x="513" 
d="M137 477h32c5 0 8 -4 7 -10l-51 -283c-17 -99 13 -146 92 -146c65 0 134 52 148 135l52 294c1 6 5 10 11 10h32c6 0 9 -4 8 -10l-81 -457c-1 -6 -5 -10 -11 -10h-31c-6 0 -9 4 -8 10l10 55h-1c-34 -47 -86 -75 -147 -75c-100 0 -147 65 -126 181l53 296c1 6 5 10 11 10z
" />
    <glyph glyph-name="v" unicode="v" horiz-adv-x="449" 
d="M200 0h-30c-6 0 -8 4 -9 10l-86 457c-1 6 2 10 8 10h32c7 0 10 -3 11 -10l70 -387h2l206 387c4 7 7 10 14 10h35c7 0 9 -4 6 -10l-247 -457c-3 -6 -6 -10 -12 -10z" />
    <glyph glyph-name="w" unicode="w" horiz-adv-x="706" 
d="M474 0h-27c-7 0 -10 3 -10 10l-52 388h-1l-191 -388c-3 -7 -7 -10 -13 -10h-27c-7 0 -10 3 -10 10l-63 457c-1 6 2 10 9 10h29c7 0 11 -3 12 -10l49 -387h1l188 387c3 6 7 10 13 10h26c7 0 10 -4 11 -10l54 -387h1l184 387c4 7 7 10 14 10h33c7 0 9 -4 6 -10l-223 -457
c-4 -7 -7 -10 -13 -10z" />
    <glyph glyph-name="x" unicode="x" horiz-adv-x="442" 
d="M362 0h-34c-6 0 -9 2 -12 8l-93 198h-1l-165 -198c-5 -6 -8 -8 -14 -8h-39c-7 0 -8 5 -4 10l200 240l-103 217c-2 5 1 10 7 10h35c5 0 9 -2 12 -8l82 -175h1l146 175c5 6 8 8 14 8h38c6 0 8 -5 4 -10l-180 -219l113 -238c2 -5 0 -10 -7 -10z" />
    <glyph glyph-name="y" unicode="y" horiz-adv-x="449" 
d="M27 -180h-19c-6 0 -9 4 -8 10l4 28c1 7 6 10 12 10h17c40 0 64 19 104 93l27 49l-89 457c-1 6 2 10 8 10h33c7 0 10 -3 11 -10l71 -387h1l207 387c3 7 7 10 13 10h35c7 0 9 -4 6 -10l-278 -514c-59 -109 -96 -133 -155 -133z" />
    <glyph glyph-name="z" unicode="z" horiz-adv-x="447" 
d="M346 0h-319c-6 0 -9 4 -8 10l4 27c1 4 3 8 7 13l337 378v1h-253c-6 0 -9 4 -8 10l5 28c1 6 4 10 11 10h307c6 0 9 -4 8 -10l-4 -28c-1 -5 -4 -9 -8 -14l-336 -376v-1h265c6 0 9 -4 8 -10l-5 -28c-1 -6 -4 -10 -11 -10z" />
    <glyph glyph-name="braceleft" unicode="{" horiz-adv-x="304" 
d="M198 -84h-30c-60 0 -83 32 -70 103l35 203c11 62 -6 82 -38 84c-6 1 -9 4 -8 10l5 29c1 6 5 9 11 9c35 2 56 19 68 85l36 200c13 71 45 101 105 101h31c6 0 9 -4 8 -10l-4 -24c-1 -7 -5 -10 -11 -10h-23c-32 0 -52 -17 -59 -60l-34 -192c-14 -77 -32 -100 -69 -114v-2
c31 -16 40 -48 29 -113l-35 -197c-8 -44 3 -58 36 -58h24c6 0 9 -4 8 -10l-4 -24c-1 -7 -4 -10 -11 -10z" />
    <glyph glyph-name="bar" unicode="|" horiz-adv-x="236" 
d="M150 -84h-25c-6 0 -10 4 -10 10v804c0 6 4 10 10 10h25c6 0 10 -4 10 -10v-804c0 -6 -4 -10 -10 -10z" />
    <glyph glyph-name="braceright" unicode="}" horiz-adv-x="304" 
d="M30 -84h-31c-6 0 -9 4 -8 10l4 24c1 7 5 10 11 10h23c33 0 52 17 60 60l34 196c14 78 32 100 69 115v1c-31 16 -40 49 -28 114l33 192c8 44 -3 58 -36 58h-24c-6 0 -9 4 -8 10l4 24c1 7 5 10 11 10h30c61 0 83 -32 71 -103l-35 -198c-11 -62 6 -82 38 -85c6 0 9 -4 8 -10
l-4 -29c-1 -6 -6 -9 -12 -9c-34 -1 -55 -19 -68 -84l-37 -205c-12 -71 -45 -101 -105 -101z" />
    <glyph glyph-name="asciitilde" unicode="~" 
d="M340 218c-41 0 -71 20 -97 39c-23 16 -46 32 -75 32c-35 0 -57 -17 -82 -57c-3 -5 -8 -6 -13 -3l-18 12c-5 3 -6 7 -3 14c25 49 68 78 118 78c41 0 71 -20 97 -39c23 -16 46 -31 75 -31c34 0 57 16 81 56c3 5 9 6 14 3l17 -11c6 -4 7 -7 3 -14c-24 -49 -67 -79 -117 -79z
" />
    <glyph glyph-name="uni00A0" unicode="&#xa0;" horiz-adv-x="236" 
 />
    <glyph glyph-name="Agrave" unicode="&#xc0;" horiz-adv-x="575" 
d="M1 0c-6 0 -8 4 -5 10l346 660c3 6 6 10 13 10h32c7 0 9 -4 10 -10l110 -660c1 -6 -3 -10 -9 -10h-32c-6 0 -10 2 -11 10l-28 170h-285l-89 -170c-4 -8 -8 -10 -14 -10h-38zM168 230h251l-59 363h-2zM388 764h-22c-8 0 -10 1 -16 10l-72 104c-3 5 0 10 5 10h33
c9 0 12 -3 17 -10l60 -104c4 -5 1 -10 -5 -10z" />
    <glyph glyph-name="Aacute" unicode="&#xc1;" horiz-adv-x="575" 
d="M1 0c-6 0 -8 4 -5 10l346 660c3 6 6 10 13 10h32c7 0 9 -4 10 -10l110 -660c1 -6 -3 -10 -9 -10h-32c-6 0 -10 2 -11 10l-28 170h-285l-89 -170c-4 -8 -8 -10 -14 -10h-38zM168 230h251l-59 363h-2zM394 764h-24c-6 0 -7 5 -2 11l94 103c7 7 11 10 19 10h36
c6 0 8 -5 3 -10l-107 -104c-8 -8 -12 -10 -19 -10z" />
    <glyph glyph-name="Acircumflex" unicode="&#xc2;" horiz-adv-x="575" 
d="M1 0c-6 0 -8 4 -5 10l346 660c3 6 6 10 13 10h32c7 0 9 -4 10 -10l110 -660c1 -6 -3 -10 -9 -10h-32c-6 0 -10 2 -11 10l-28 170h-285l-89 -170c-4 -8 -8 -10 -14 -10h-38zM168 230h251l-59 363h-2zM493 755h-19c-8 0 -11 2 -16 9l-52 91h-2l-86 -91c-6 -7 -11 -9 -18 -9
h-23c-5 0 -7 5 -2 10l107 122c6 7 11 9 17 9h20c7 0 10 -3 13 -9l65 -122c3 -5 1 -10 -4 -10z" />
    <glyph glyph-name="Atilde" unicode="&#xc3;" horiz-adv-x="575" 
d="M1 0c-6 0 -8 4 -5 10l346 660c3 6 6 10 13 10h32c7 0 9 -4 10 -10l110 -660c1 -6 -3 -10 -9 -10h-32c-6 0 -10 2 -11 10l-28 170h-285l-89 -170c-4 -8 -8 -10 -14 -10h-38zM168 230h251l-59 363h-2zM441 784c-23 0 -38 8 -54 20c-14 11 -27 18 -44 18
c-21 0 -40 -12 -61 -33c-4 -4 -9 -1 -8 3l4 30c1 6 3 9 10 15c18 18 40 28 64 28c23 0 38 -9 54 -21c14 -10 27 -18 44 -18c21 0 41 13 62 33c4 4 9 2 8 -3l-5 -29c-1 -6 -3 -10 -10 -16c-18 -17 -40 -27 -64 -27z" />
    <glyph glyph-name="Adieresis" unicode="&#xc4;" horiz-adv-x="575" 
d="M1 0c-6 0 -8 4 -5 10l346 660c3 6 6 10 13 10h32c7 0 9 -4 10 -10l110 -660c1 -6 -3 -10 -9 -10h-32c-6 0 -10 2 -11 10l-28 170h-285l-89 -170c-4 -8 -8 -10 -14 -10h-38zM168 230h251l-59 363h-2zM506 787h-37c-6 0 -9 4 -8 10l9 54c1 6 5 10 11 10h37c6 0 9 -4 8 -10
l-9 -54c-1 -6 -5 -10 -11 -10zM314 787h-37c-6 0 -9 4 -8 10l9 54c1 6 5 10 11 10h37c6 0 9 -4 8 -10l-9 -54c-1 -6 -5 -10 -11 -10z" />
    <glyph glyph-name="Amacron" unicode="&#x100;" horiz-adv-x="575" 
d="M1 0c-6 0 -8 4 -5 10l346 660c3 6 6 10 13 10h32c7 0 9 -4 10 -10l110 -660c1 -6 -3 -10 -9 -10h-32c-6 0 -10 2 -11 10l-28 170h-285l-89 -170c-4 -8 -8 -10 -14 -10h-38zM168 230h251l-59 363h-2zM511 802h-234c-6 0 -9 4 -8 10l4 23c1 7 5 10 11 10h233
c6 0 9 -4 8 -10l-3 -23c-1 -6 -5 -10 -11 -10z" />
    <glyph glyph-name="Abreve" unicode="&#x102;" horiz-adv-x="575" 
d="M1 0c-6 0 -8 4 -5 10l346 660c3 6 6 10 13 10h32c7 0 9 -4 10 -10l110 -660c1 -6 -3 -10 -9 -10h-32c-6 0 -10 2 -11 10l-28 170h-285l-89 -170c-4 -8 -8 -10 -14 -10h-38zM168 230h251l-59 363h-2zM389 769c-64 0 -102 41 -101 102c0 6 4 10 10 10h16c7 0 10 -4 11 -10
c3 -40 27 -62 70 -62s75 24 93 62c3 6 6 10 13 10h17c6 0 9 -4 7 -10c-20 -61 -71 -102 -136 -102z" />
    <glyph glyph-name="Aring" unicode="&#xc5;" horiz-adv-x="575" 
d="M1 0c-6 0 -8 4 -5 10l346 660c3 6 6 10 13 10h32c7 0 9 -4 10 -10l110 -660c1 -6 -3 -10 -9 -10h-32c-6 0 -10 2 -11 10l-28 170h-285l-89 -170c-4 -8 -8 -10 -14 -10h-38zM168 230h251l-59 363h-2zM382 739c-42 0 -70 30 -70 71c0 56 41 103 100 103c42 0 71 -30 71 -71
c0 -56 -42 -103 -101 -103zM388 769c34 0 63 30 63 68c0 27 -16 46 -45 46c-34 0 -63 -30 -63 -68c0 -27 16 -46 45 -46z" />
    <glyph glyph-name="Aogonek" unicode="&#x104;" horiz-adv-x="575" 
d="M415 -170c-33 0 -56 20 -56 54c0 38 25 74 97 122c-1 0 -1 2 -1 5l-28 169h-285l-89 -170c-4 -8 -8 -10 -14 -10h-38c-6 0 -8 4 -5 10l346 660c3 6 6 10 13 10h32c7 0 9 -4 10 -10l110 -660c1 -5 -1 -8 -4 -10c-80 -53 -99 -80 -99 -104c0 -15 9 -23 24 -23
c11 0 19 3 30 9c4 3 9 2 11 -2l6 -20c2 -5 0 -8 -5 -13c-13 -9 -33 -17 -55 -17zM358 593l-190 -363h251l-59 363h-2z" />
    <glyph glyph-name="AE" unicode="&#xc6;" horiz-adv-x="909" 
d="M809 0h-373c-6 0 -9 4 -8 10l29 164c1 4 -1 6 -5 6h-262l-131 -170c-6 -8 -10 -10 -16 -10h-42c-6 0 -8 5 -4 10l507 661c5 6 10 9 17 9h407c6 0 10 -4 9 -10l-6 -31c-1 -7 -5 -10 -12 -10h-323c-4 0 -6 -2 -7 -6l-43 -246c-1 -5 1 -7 5 -7h277c6 0 9 -4 8 -10l-5 -30
c-1 -7 -5 -10 -12 -10h-277c-4 0 -6 -2 -7 -6l-46 -257c-1 -4 1 -6 5 -6h323c6 0 9 -4 8 -10l-5 -31c-1 -7 -5 -10 -11 -10zM534 627l-306 -397h232c4 0 6 2 7 6l70 391h-3z" />
    <glyph glyph-name="Cacute" unicode="&#x106;" horiz-adv-x="537" 
d="M64 183c0 76 34 279 72 357c51 104 122 150 227 150c82 0 148 -46 174 -131c2 -5 0 -9 -5 -11l-28 -13c-6 -3 -11 -1 -13 4c-24 65 -66 100 -134 100c-78 0 -133 -38 -172 -116c-36 -74 -68 -263 -68 -334c0 -93 48 -148 140 -148c73 0 125 37 167 99c3 4 7 6 12 4
l28 -16c5 -3 5 -8 2 -13c-55 -88 -127 -125 -217 -125c-114 0 -185 69 -185 193zM371 764h-24c-6 0 -7 5 -2 11l94 103c7 7 11 10 19 10h36c6 0 8 -5 3 -10l-107 -104c-8 -8 -12 -10 -19 -10z" />
    <glyph glyph-name="Ccircumflex" unicode="&#x108;" horiz-adv-x="537" 
d="M64 183c0 76 34 279 72 357c51 104 122 150 227 150c82 0 148 -46 174 -131c2 -5 0 -9 -5 -11l-28 -13c-6 -3 -11 -1 -13 4c-24 65 -66 100 -134 100c-78 0 -133 -38 -172 -116c-36 -74 -68 -263 -68 -334c0 -93 48 -148 140 -148c73 0 125 37 167 99c3 4 7 6 12 4
l28 -16c5 -3 5 -8 2 -13c-55 -88 -127 -125 -217 -125c-114 0 -185 69 -185 193zM484 755h-19c-8 0 -11 2 -16 9l-52 91h-2l-86 -91c-6 -7 -11 -9 -18 -9h-23c-5 0 -7 5 -2 10l107 122c6 7 11 9 17 9h20c7 0 10 -3 13 -9l65 -122c3 -5 1 -10 -4 -10z" />
    <glyph glyph-name="Ccaron" unicode="&#x10c;" horiz-adv-x="537" 
d="M64 183c0 76 34 279 72 357c51 104 122 150 227 150c82 0 148 -46 174 -131c2 -5 0 -9 -5 -11l-28 -13c-6 -3 -11 -1 -13 4c-24 65 -66 100 -134 100c-78 0 -133 -38 -172 -116c-36 -74 -68 -263 -68 -334c0 -93 48 -148 140 -148c73 0 125 37 167 99c3 4 7 6 12 4
l28 -16c5 -3 5 -8 2 -13c-55 -88 -127 -125 -217 -125c-114 0 -185 69 -185 193zM386 754h-20c-7 0 -10 3 -13 9l-66 122c-3 5 0 10 5 10h19c8 0 11 -2 15 -9l53 -90h2l86 90c6 7 11 9 18 9h22c6 0 8 -5 3 -10l-107 -122c-6 -7 -11 -9 -17 -9z" />
    <glyph glyph-name="Cdotaccent" unicode="&#x10a;" horiz-adv-x="537" 
d="M400 787h-42c-6 0 -9 4 -8 10l9 54c1 6 5 10 11 10h42c6 0 9 -4 8 -10l-9 -54c-1 -6 -5 -10 -11 -10zM64 183c0 76 34 279 72 357c51 104 122 150 227 150c82 0 148 -46 174 -131c2 -5 0 -9 -5 -11l-28 -13c-6 -3 -11 -1 -13 4c-24 65 -66 100 -134 100
c-78 0 -133 -38 -172 -116c-36 -74 -68 -263 -68 -334c0 -93 48 -148 140 -148c73 0 125 37 167 99c3 4 7 6 12 4l28 -16c5 -3 5 -8 2 -13c-55 -88 -127 -125 -217 -125c-114 0 -185 69 -185 193z" />
    <glyph glyph-name="Ccedilla" unicode="&#xc7;" horiz-adv-x="537" 
d="M179 -147h-27c-6 0 -9 4 -6 10l72 129c-96 11 -154 78 -154 191c0 76 34 279 72 357c51 104 122 150 227 150c82 0 148 -44 175 -131c2 -5 -1 -9 -6 -11l-29 -14c-6 -2 -11 0 -12 5c-22 64 -66 100 -134 100c-78 0 -133 -38 -172 -116c-36 -74 -68 -263 -68 -334
c0 -93 48 -148 140 -148c73 0 125 37 167 99c3 4 7 6 12 4l28 -16c5 -3 4 -8 1 -13c-53 -85 -121 -122 -205 -125l-64 -127c-4 -8 -9 -10 -17 -10z" />
    <glyph glyph-name="Dcaron" unicode="&#x10e;" horiz-adv-x="604" 
d="M388 754h-20c-7 0 -10 3 -13 9l-66 122c-3 5 0 10 5 10h19c8 0 11 -2 15 -9l53 -90h2l86 90c6 7 11 9 18 9h22c6 0 8 -5 3 -10l-107 -122c-6 -7 -11 -9 -17 -9zM54 10l116 660c1 6 5 10 11 10h205c119 0 184 -59 184 -178c0 -85 -34 -289 -75 -371
c-46 -96 -118 -131 -228 -131h-205c-6 0 -9 4 -8 10zM115 57c-1 -4 0 -6 4 -6h147c91 0 149 33 184 105c34 69 68 258 68 337c0 94 -48 136 -149 136h-147c-4 0 -6 -1 -7 -6z" />
    <glyph glyph-name="Dcroat" unicode="&#x110;" horiz-adv-x="604" 
d="M267 0h-205c-6 0 -9 4 -8 10l54 307c1 4 -1 6 -4 6h-39c-6 0 -9 4 -8 10l4 25c1 7 5 10 12 10h38c3 0 6 2 7 6l52 296c1 6 5 10 11 10h205c119 0 184 -59 184 -178c0 -85 -34 -289 -75 -371c-46 -96 -118 -131 -228 -131zM266 51c91 0 149 33 184 105
c34 69 68 258 68 337c0 94 -48 136 -149 136h-147c-4 0 -6 -1 -7 -6l-45 -249c-1 -4 1 -6 5 -6h126c6 0 9 -4 8 -10l-4 -25c-1 -7 -5 -10 -12 -10h-125c-4 0 -6 -2 -7 -6l-46 -260c-1 -4 0 -6 4 -6h147z" />
    <glyph glyph-name="Eth" unicode="&#xd0;" horiz-adv-x="604" 
d="M267 0h-205c-6 0 -9 4 -8 10l54 307c1 4 -1 6 -4 6h-39c-6 0 -9 4 -8 10l4 25c1 7 5 10 12 10h38c3 0 6 2 7 6l52 296c1 6 5 10 11 10h205c119 0 184 -59 184 -178c0 -85 -34 -289 -75 -371c-46 -96 -118 -131 -228 -131zM266 51c91 0 149 33 184 105
c34 69 68 258 68 337c0 94 -48 136 -149 136h-147c-4 0 -6 -1 -7 -6l-45 -249c-1 -4 1 -6 5 -6h126c6 0 9 -4 8 -10l-4 -25c-1 -7 -5 -10 -12 -10h-125c-4 0 -6 -2 -7 -6l-46 -260c-1 -4 0 -6 4 -6h147z" />
    <glyph glyph-name="Egrave" unicode="&#xc8;" horiz-adv-x="535" 
d="M392 764h-22c-8 0 -10 1 -16 10l-72 104c-3 5 0 10 5 10h33c9 0 12 -3 17 -10l60 -104c4 -5 1 -10 -5 -10zM54 10l116 660c1 6 5 10 11 10h373c6 0 9 -4 8 -10l-5 -31c-1 -7 -5 -10 -12 -10h-323c-4 0 -6 -2 -7 -6l-43 -246c-1 -5 1 -7 5 -7h277c6 0 9 -4 8 -10l-5 -30
c-1 -7 -5 -10 -12 -10h-277c-4 0 -6 -2 -7 -6l-46 -257c-1 -4 1 -6 5 -6h323c6 0 9 -4 8 -10l-5 -31c-1 -7 -5 -10 -12 -10h-372c-6 0 -9 4 -8 10z" />
    <glyph glyph-name="Eacute" unicode="&#xc9;" horiz-adv-x="535" 
d="M373 764h-24c-6 0 -7 5 -2 11l94 103c7 7 11 10 19 10h36c6 0 8 -5 3 -10l-107 -104c-8 -8 -12 -10 -19 -10zM54 10l116 660c1 6 5 10 11 10h373c6 0 9 -4 8 -10l-5 -31c-1 -7 -5 -10 -12 -10h-323c-4 0 -6 -2 -7 -6l-43 -246c-1 -5 1 -7 5 -7h277c6 0 9 -4 8 -10l-5 -30
c-1 -7 -5 -10 -12 -10h-277c-4 0 -6 -2 -7 -6l-46 -257c-1 -4 1 -6 5 -6h323c6 0 9 -4 8 -10l-5 -31c-1 -7 -5 -10 -12 -10h-372c-6 0 -9 4 -8 10z" />
    <glyph glyph-name="Ecircumflex" unicode="&#xca;" horiz-adv-x="535" 
d="M54 10l116 660c1 6 5 10 11 10h373c6 0 9 -4 8 -10l-5 -31c-1 -7 -5 -10 -12 -10h-323c-4 0 -6 -2 -7 -6l-43 -246c-1 -5 1 -7 5 -7h277c6 0 9 -4 8 -10l-5 -30c-1 -7 -5 -10 -12 -10h-277c-4 0 -6 -2 -7 -6l-46 -257c-1 -4 1 -6 5 -6h323c6 0 9 -4 8 -10l-5 -31
c-1 -7 -5 -10 -12 -10h-372c-6 0 -9 4 -8 10zM489 755h-19c-8 0 -11 2 -16 9l-52 91h-2l-86 -91c-6 -7 -11 -9 -18 -9h-23c-5 0 -7 5 -2 10l107 122c6 7 11 9 17 9h20c7 0 10 -3 13 -9l65 -122c3 -5 1 -10 -4 -10z" />
    <glyph glyph-name="Ecaron" unicode="&#x11a;" horiz-adv-x="535" 
d="M393 754h-20c-7 0 -10 3 -13 9l-66 122c-3 5 0 10 5 10h19c8 0 11 -2 15 -9l53 -90h2l86 90c6 7 11 9 18 9h22c6 0 8 -5 3 -10l-107 -122c-6 -7 -11 -9 -17 -9zM54 10l116 660c1 6 5 10 11 10h373c6 0 9 -4 8 -10l-5 -31c-1 -7 -5 -10 -12 -10h-323c-4 0 -6 -2 -7 -6
l-43 -246c-1 -5 1 -7 5 -7h277c6 0 9 -4 8 -10l-5 -30c-1 -7 -5 -10 -12 -10h-277c-4 0 -6 -2 -7 -6l-46 -257c-1 -4 1 -6 5 -6h323c6 0 9 -4 8 -10l-5 -31c-1 -7 -5 -10 -12 -10h-372c-6 0 -9 4 -8 10z" />
    <glyph glyph-name="Edieresis" unicode="&#xcb;" horiz-adv-x="535" 
d="M504 787h-37c-6 0 -9 4 -8 10l9 54c1 6 5 10 11 10h37c6 0 9 -4 8 -10l-9 -54c-1 -6 -5 -10 -11 -10zM312 787h-37c-6 0 -9 4 -8 10l9 54c1 6 5 10 11 10h37c6 0 9 -4 8 -10l-9 -54c-1 -6 -5 -10 -11 -10zM54 10l116 660c1 6 5 10 11 10h373c6 0 9 -4 8 -10l-5 -31
c-1 -7 -5 -10 -12 -10h-323c-4 0 -6 -2 -7 -6l-43 -246c-1 -5 1 -7 5 -7h277c6 0 9 -4 8 -10l-5 -30c-1 -7 -5 -10 -12 -10h-277c-4 0 -6 -2 -7 -6l-46 -257c-1 -4 1 -6 5 -6h323c6 0 9 -4 8 -10l-5 -31c-1 -7 -5 -10 -12 -10h-372c-6 0 -9 4 -8 10z" />
    <glyph glyph-name="Emacron" unicode="&#x112;" horiz-adv-x="535" 
d="M506 802h-234c-6 0 -9 4 -8 10l4 23c1 7 5 10 11 10h233c6 0 9 -4 8 -10l-3 -23c-1 -6 -5 -10 -11 -10zM54 10l116 660c1 6 5 10 11 10h373c6 0 9 -4 8 -10l-5 -31c-1 -7 -5 -10 -12 -10h-323c-4 0 -6 -2 -7 -6l-43 -246c-1 -5 1 -7 5 -7h277c6 0 9 -4 8 -10l-5 -30
c-1 -7 -5 -10 -12 -10h-277c-4 0 -6 -2 -7 -6l-46 -257c-1 -4 1 -6 5 -6h323c6 0 9 -4 8 -10l-5 -31c-1 -7 -5 -10 -12 -10h-372c-6 0 -9 4 -8 10z" />
    <glyph glyph-name="Ebreve" unicode="&#x114;" horiz-adv-x="535" 
d="M383 769c-64 0 -102 41 -101 102c0 6 4 10 10 10h16c7 0 10 -4 11 -10c3 -40 27 -62 70 -62s75 24 93 62c3 6 6 10 13 10h17c6 0 9 -4 7 -10c-20 -61 -71 -102 -136 -102zM54 10l116 660c1 6 5 10 11 10h373c6 0 9 -4 8 -10l-5 -31c-1 -7 -5 -10 -12 -10h-323
c-4 0 -6 -2 -7 -6l-43 -246c-1 -5 1 -7 5 -7h277c6 0 9 -4 8 -10l-5 -30c-1 -7 -5 -10 -12 -10h-277c-4 0 -6 -2 -7 -6l-46 -257c-1 -4 1 -6 5 -6h323c6 0 9 -4 8 -10l-5 -31c-1 -7 -5 -10 -12 -10h-372c-6 0 -9 4 -8 10z" />
    <glyph glyph-name="Edotaccent" unicode="&#x116;" horiz-adv-x="535" 
d="M411 787h-42c-6 0 -9 4 -8 10l9 54c1 6 5 10 11 10h42c6 0 9 -4 8 -10l-9 -54c-1 -6 -5 -10 -11 -10zM54 10l116 660c1 6 5 10 11 10h373c6 0 9 -4 8 -10l-5 -31c-1 -7 -5 -10 -12 -10h-323c-4 0 -6 -2 -7 -6l-43 -246c-1 -5 1 -7 5 -7h277c6 0 9 -4 8 -10l-5 -30
c-1 -7 -5 -10 -12 -10h-277c-4 0 -6 -2 -7 -6l-46 -257c-1 -4 1 -6 5 -6h323c6 0 9 -4 8 -10l-5 -31c-1 -7 -5 -10 -12 -10h-372c-6 0 -9 4 -8 10z" />
    <glyph glyph-name="Eogonek" unicode="&#x118;" horiz-adv-x="535" 
d="M339 -170c-33 0 -56 20 -56 55c0 40 25 71 89 115h-310c-6 0 -9 4 -8 10l116 660c1 6 5 10 11 10h373c6 0 9 -4 8 -10l-5 -31c-1 -7 -5 -10 -12 -10h-323c-4 0 -6 -2 -7 -6l-43 -246c-1 -5 1 -7 5 -7h277c6 0 9 -4 8 -10l-5 -30c-1 -7 -5 -10 -12 -10h-277
c-4 0 -6 -2 -7 -6l-46 -257c-1 -4 1 -6 5 -6h323c6 0 9 -4 8 -10l-5 -31c-1 -7 -5 -10 -12 -10h-7c-78 -53 -99 -79 -99 -104c0 -15 9 -23 24 -23c11 0 19 3 30 9c4 3 9 2 11 -2l6 -20c2 -5 0 -8 -5 -13c-13 -9 -33 -17 -55 -17z" />
    <glyph glyph-name="Gcircumflex" unicode="&#x11c;" horiz-adv-x="584" 
d="M65 183c0 76 33 280 72 357c50 104 126 150 238 150c84 0 157 -44 182 -126c1 -6 -1 -10 -6 -12l-29 -13c-6 -2 -10 0 -11 4c-25 66 -76 96 -145 96c-82 0 -143 -41 -180 -116c-36 -74 -68 -263 -68 -334c0 -94 50 -148 142 -148c80 0 141 36 180 115c16 32 31 76 40 133
c1 4 -1 6 -5 6h-149c-6 0 -9 4 -8 10l5 30c1 6 5 9 10 9h200c5 0 8 -4 7 -10l-7 -41c-9 -55 -27 -119 -43 -153c-51 -105 -127 -150 -238 -150c-115 0 -187 69 -187 193zM498 755h-19c-8 0 -11 2 -16 9l-52 91h-2l-86 -91c-6 -7 -11 -9 -18 -9h-23c-5 0 -7 5 -2 10l107 122
c6 7 11 9 17 9h20c7 0 10 -3 13 -9l65 -122c3 -5 1 -10 -4 -10z" />
    <glyph glyph-name="Gbreve" unicode="&#x11e;" horiz-adv-x="584" 
d="M393 769c-64 0 -102 41 -101 102c0 6 4 10 10 10h16c7 0 10 -4 11 -10c3 -40 27 -62 70 -62s75 24 93 62c3 6 6 10 13 10h17c6 0 9 -4 7 -10c-20 -61 -71 -102 -136 -102zM65 183c0 76 33 280 72 357c50 104 126 150 238 150c84 0 157 -44 182 -126c1 -6 -1 -10 -6 -12
l-29 -13c-6 -2 -10 0 -11 4c-25 66 -76 96 -145 96c-82 0 -143 -41 -180 -116c-36 -74 -68 -263 -68 -334c0 -94 50 -148 142 -148c80 0 141 36 180 115c16 32 31 76 40 133c1 4 -1 6 -5 6h-149c-6 0 -9 4 -8 10l5 30c1 6 5 9 10 9h200c5 0 8 -4 7 -10l-7 -41
c-9 -55 -27 -119 -43 -153c-51 -105 -127 -150 -238 -150c-115 0 -187 69 -187 193z" />
    <glyph glyph-name="Gdotaccent" unicode="&#x120;" horiz-adv-x="584" 
d="M416 787h-42c-6 0 -9 4 -8 10l9 54c1 6 5 10 11 10h42c6 0 9 -4 8 -10l-9 -54c-1 -6 -5 -10 -11 -10zM65 183c0 76 33 280 72 357c50 104 126 150 238 150c84 0 157 -44 182 -126c1 -6 -1 -10 -6 -12l-29 -13c-6 -2 -10 0 -11 4c-25 66 -76 96 -145 96
c-82 0 -143 -41 -180 -116c-36 -74 -68 -263 -68 -334c0 -94 50 -148 142 -148c80 0 141 36 180 115c16 32 31 76 40 133c1 4 -1 6 -5 6h-149c-6 0 -9 4 -8 10l5 30c1 6 5 9 10 9h200c5 0 8 -4 7 -10l-7 -41c-9 -55 -27 -119 -43 -153c-51 -105 -127 -150 -238 -150
c-115 0 -187 69 -187 193z" />
    <glyph glyph-name="Gcommaaccent" unicode="&#x122;" horiz-adv-x="584" 
d="M204 -196c-6 0 -9 4 -8 10l21 121c1 6 6 10 12 10h35c6 0 9 -4 8 -10l-7 -45c-2 -10 -4 -13 -9 -22l-40 -56c-4 -5 -7 -8 -12 -8zM65 183c0 76 33 280 72 357c50 104 126 150 238 150c84 0 157 -44 182 -126c1 -6 -1 -10 -6 -12l-29 -13c-6 -2 -10 0 -11 4
c-25 66 -76 96 -145 96c-82 0 -143 -41 -180 -116c-36 -74 -68 -263 -68 -334c0 -94 50 -148 142 -148c80 0 141 36 180 115c16 32 31 76 40 133c1 4 -1 6 -5 6h-149c-6 0 -9 4 -8 10l5 30c1 6 5 9 10 9h200c5 0 8 -4 7 -10l-7 -41c-9 -55 -27 -119 -43 -153
c-51 -105 -127 -150 -238 -150c-115 0 -187 69 -187 193z" />
    <glyph glyph-name="Hcircumflex" unicode="&#x124;" horiz-adv-x="624" 
d="M54 10l116 660c1 6 5 10 11 10h34c6 0 9 -4 8 -10l-52 -294c-1 -4 1 -6 5 -6h325c4 0 6 2 7 6l52 294c1 6 5 10 11 10h34c6 0 9 -4 8 -10l-116 -660c-1 -6 -5 -10 -11 -10h-34c-6 0 -9 4 -8 10l53 304c1 4 0 6 -4 6h-325c-4 0 -6 -2 -7 -6l-54 -304c-1 -6 -5 -10 -11 -10
h-34c-6 0 -9 4 -8 10zM512 755h-19c-8 0 -11 2 -16 9l-52 91h-2l-86 -91c-6 -7 -11 -9 -18 -9h-23c-5 0 -7 5 -2 10l107 122c6 7 11 9 17 9h20c7 0 10 -3 13 -9l65 -122c3 -5 1 -10 -4 -10z" />
    <glyph glyph-name="Hbar" unicode="&#x126;" horiz-adv-x="624" 
d="M486 0h-34c-6 0 -9 4 -8 10l53 304c1 4 0 6 -4 6h-325c-4 0 -6 -2 -7 -6l-54 -304c-1 -6 -5 -10 -11 -10h-34c-6 0 -9 4 -8 10l85 484c1 4 -1 6 -4 6h-38c-6 0 -9 4 -8 10l4 24c1 6 6 10 11 10h37c4 0 6 2 7 6l22 120c1 6 5 10 11 10h34c6 0 9 -4 8 -10l-22 -120
c-1 -4 1 -6 5 -6h326c4 0 6 2 7 6l21 120c1 6 5 10 11 10h34c6 0 9 -4 8 -10l-21 -120c-1 -4 0 -6 4 -6h38c5 0 8 -4 7 -10l-3 -24c-1 -6 -6 -10 -12 -10h-38c-3 0 -5 -2 -6 -6l-85 -484c-1 -6 -5 -10 -11 -10zM501 370c4 0 6 2 7 6l21 118c1 4 -1 6 -5 6h-326
c-4 0 -5 -2 -6 -6l-21 -118c-1 -4 1 -6 5 -6h325z" />
    <glyph glyph-name="Igrave" unicode="&#xcc;" horiz-adv-x="234" 
d="M54 10l116 660c1 6 5 10 11 10h34c6 0 9 -4 8 -10l-116 -660c-1 -6 -5 -10 -11 -10h-34c-6 0 -9 4 -8 10zM221 764h-22c-8 0 -10 1 -16 10l-72 104c-3 5 0 10 5 10h33c9 0 12 -3 17 -10l60 -104c4 -5 1 -10 -5 -10z" />
    <glyph glyph-name="Iacute" unicode="&#xcd;" horiz-adv-x="234" 
d="M54 10l116 660c1 6 5 10 11 10h34c6 0 9 -4 8 -10l-116 -660c-1 -6 -5 -10 -11 -10h-34c-6 0 -9 4 -8 10zM218 764h-24c-6 0 -7 5 -2 11l94 103c7 7 11 10 19 10h36c6 0 8 -5 3 -10l-107 -104c-8 -8 -12 -10 -19 -10z" />
    <glyph glyph-name="Icircumflex" unicode="&#xce;" horiz-adv-x="234" 
d="M54 10l116 660c1 6 5 10 11 10h34c6 0 9 -4 8 -10l-116 -660c-1 -6 -5 -10 -11 -10h-34c-6 0 -9 4 -8 10zM322 755h-19c-8 0 -11 2 -16 9l-52 91h-2l-86 -91c-6 -7 -11 -9 -18 -9h-23c-5 0 -7 5 -2 10l107 122c6 7 11 9 17 9h20c7 0 10 -3 13 -9l65 -122
c3 -5 1 -10 -4 -10z" />
    <glyph glyph-name="Itilde" unicode="&#x128;" horiz-adv-x="234" 
d="M54 10l116 660c1 6 5 10 11 10h34c6 0 9 -4 8 -10l-116 -660c-1 -6 -5 -10 -11 -10h-34c-6 0 -9 4 -8 10zM275 784c-23 0 -38 8 -54 20c-14 11 -27 18 -44 18c-21 0 -40 -12 -61 -33c-4 -4 -9 -1 -8 3l4 30c1 6 3 9 10 15c18 18 40 28 64 28c23 0 38 -9 54 -21
c14 -10 27 -18 44 -18c21 0 41 13 62 33c4 4 9 2 8 -3l-5 -29c-1 -6 -3 -10 -10 -16c-18 -17 -40 -27 -64 -27z" />
    <glyph glyph-name="Idieresis" unicode="&#xcf;" horiz-adv-x="234" 
d="M54 10l116 660c1 6 5 10 11 10h34c6 0 9 -4 8 -10l-116 -660c-1 -6 -5 -10 -11 -10h-34c-6 0 -9 4 -8 10zM326 787h-37c-6 0 -9 4 -8 10l9 54c1 6 5 10 11 10h37c6 0 9 -4 8 -10l-9 -54c-1 -6 -5 -10 -11 -10zM134 787h-37c-6 0 -9 4 -8 10l9 54c1 6 5 10 11 10h37
c6 0 9 -4 8 -10l-9 -54c-1 -6 -5 -10 -11 -10z" />
    <glyph glyph-name="Imacron" unicode="&#x12a;" horiz-adv-x="234" 
d="M54 10l116 660c1 6 5 10 11 10h34c6 0 9 -4 8 -10l-116 -660c-1 -6 -5 -10 -11 -10h-34c-6 0 -9 4 -8 10zM344 802h-234c-6 0 -9 4 -8 10l4 23c1 7 5 10 11 10h233c6 0 9 -4 8 -10l-3 -23c-1 -6 -5 -10 -11 -10z" />
    <glyph glyph-name="Idotaccent" unicode="&#x130;" horiz-adv-x="234" 
d="M54 10l116 660c1 6 5 10 11 10h34c6 0 9 -4 8 -10l-116 -660c-1 -6 -5 -10 -11 -10h-34c-6 0 -9 4 -8 10zM237 787h-42c-6 0 -9 4 -8 10l9 54c1 6 5 10 11 10h42c6 0 9 -4 8 -10l-9 -54c-1 -6 -5 -10 -11 -10z" />
    <glyph glyph-name="Ibreve" unicode="&#x12c;" horiz-adv-x="234" 
d="M54 10l116 660c1 6 5 10 11 10h34c6 0 9 -4 8 -10l-116 -660c-1 -6 -5 -10 -11 -10h-34c-6 0 -9 4 -8 10zM222 769c-64 0 -102 41 -101 102c0 6 4 10 10 10h16c7 0 10 -4 11 -10c3 -40 27 -62 70 -62s75 24 93 62c3 6 6 10 13 10h17c6 0 9 -4 7 -10
c-20 -61 -71 -102 -136 -102z" />
    <glyph glyph-name="Iogonek" unicode="&#x12e;" horiz-adv-x="234" 
d="M31 -170c-32 0 -56 20 -56 54c0 37 24 71 81 120h-1c-1 0 -2 1 -2 3l117 663c1 6 5 10 11 10h34c6 0 9 -4 8 -10l-116 -660c-1 -4 -3 -6 -7 -10c-57 -51 -79 -80 -79 -104c0 -15 9 -23 24 -23c11 0 19 3 29 9c5 3 10 2 12 -2l6 -20c2 -5 0 -8 -6 -13
c-13 -9 -32 -17 -55 -17z" />
    <glyph glyph-name="Jcircumflex" unicode="&#x134;" horiz-adv-x="459" 
d="M11 48c-3 3 -4 10 2 14l25 20c5 4 10 4 15 -1c26 -22 58 -40 97 -40c82 0 143 45 164 162l82 467c1 6 5 10 11 10h34c6 0 9 -4 8 -10l-83 -469c-28 -157 -107 -211 -221 -211c-53 0 -106 26 -134 58zM544 755h-19c-8 0 -11 2 -16 9l-52 91h-2l-86 -91
c-6 -7 -11 -9 -18 -9h-23c-5 0 -7 5 -2 10l107 122c6 7 11 9 17 9h20c7 0 10 -3 13 -9l65 -122c3 -5 1 -10 -4 -10z" />
    <glyph glyph-name="Kcommaaccent" unicode="&#x136;" horiz-adv-x="574" 
d="M199 -196c-6 0 -9 4 -8 10l21 121c1 6 6 10 12 10h35c6 0 9 -4 8 -10l-7 -45c-2 -10 -4 -13 -9 -22l-40 -56c-4 -5 -7 -8 -12 -8zM54 10l116 660c1 6 5 10 11 10h34c6 0 9 -4 8 -10l-68 -388l379 389c7 6 12 9 19 9h43c5 0 7 -6 3 -11l-256 -259l151 -399
c2 -6 -1 -11 -7 -11h-35c-7 0 -10 2 -12 9l-135 360l-165 -168l-33 -191c-1 -6 -5 -10 -11 -10h-34c-6 0 -9 4 -8 10z" />
    <glyph glyph-name="Lacute" unicode="&#x139;" horiz-adv-x="507" 
d="M241 764h-24c-6 0 -7 5 -2 11l94 103c7 7 11 10 19 10h36c6 0 8 -5 3 -10l-107 -104c-8 -8 -12 -10 -19 -10zM54 10l116 660c1 6 5 10 11 10h34c6 0 9 -4 8 -10l-108 -613c-1 -4 1 -6 4 -6h324c5 0 9 -4 8 -10l-5 -31c-1 -6 -5 -10 -11 -10h-373c-5 0 -9 4 -8 10z" />
    <glyph glyph-name="Lcaron" unicode="&#x13d;" horiz-adv-x="507" 
d="M300 538c-5 0 -8 4 -7 10l21 122c1 6 5 10 11 10h36c6 0 9 -4 8 -10l-8 -46c-2 -9 -3 -14 -8 -21l-40 -57c-4 -5 -8 -8 -13 -8zM54 10l116 660c1 6 5 10 11 10h34c6 0 9 -4 8 -10l-108 -613c-1 -4 1 -6 4 -6h324c5 0 9 -4 8 -10l-5 -31c-1 -6 -5 -10 -11 -10h-373
c-5 0 -9 4 -8 10z" />
    <glyph glyph-name="Lcommaaccent" unicode="&#x13b;" horiz-adv-x="507" 
d="M210 -196c-6 0 -9 4 -8 10l21 121c1 6 6 10 12 10h35c6 0 9 -4 8 -10l-7 -45c-2 -10 -4 -13 -9 -22l-40 -56c-4 -5 -7 -8 -12 -8zM54 10l116 660c1 6 5 10 11 10h34c6 0 9 -4 8 -10l-108 -613c-1 -4 1 -6 4 -6h324c5 0 9 -4 8 -10l-5 -31c-1 -6 -5 -10 -11 -10h-373
c-5 0 -9 4 -8 10z" />
    <glyph glyph-name="Lslash" unicode="&#x141;" horiz-adv-x="507" 
d="M329 403l-168 -82l-46 -264c-1 -4 1 -6 4 -6h324c5 0 9 -4 8 -10l-5 -31c-1 -6 -5 -10 -11 -10h-373c-5 0 -9 4 -8 10l50 283l-60 -29c-6 -3 -10 0 -9 6l6 32c1 6 3 10 11 14l61 30l57 324c1 6 5 10 11 10h34c6 0 9 -4 8 -10l-52 -296l166 81c6 3 10 0 9 -6l-6 -33
c-1 -6 -3 -9 -11 -13z" />
    <glyph glyph-name="Ldot" unicode="&#x13f;" horiz-adv-x="507" 
d="M54 10l116 660c1 6 5 10 11 10h34c6 0 9 -4 8 -10l-108 -613c-1 -4 1 -6 4 -6h324c5 0 9 -4 8 -10l-5 -31c-1 -6 -5 -10 -11 -10h-373c-5 0 -9 4 -8 10zM395 283h-46c-6 0 -9 4 -8 10l11 65c1 6 5 10 11 10h45c6 0 9 -4 8 -10l-10 -65c-1 -6 -5 -10 -11 -10z" />
    <glyph glyph-name="Nacute" unicode="&#x143;" horiz-adv-x="625" 
d="M401 764h-24c-6 0 -7 5 -2 11l94 103c7 7 11 10 19 10h36c6 0 8 -5 3 -10l-107 -104c-8 -8 -12 -10 -19 -10zM54 10l116 660c1 6 5 10 11 10h32c6 0 10 -2 13 -10l234 -567h2l102 567c1 6 5 10 11 10h31c6 0 9 -4 8 -10l-116 -660c-1 -6 -5 -10 -11 -10h-31
c-6 0 -11 2 -14 10l-235 568h-2l-101 -568c-1 -6 -5 -10 -11 -10h-31c-5 0 -9 4 -8 10z" />
    <glyph glyph-name="Ncaron" unicode="&#x147;" horiz-adv-x="625" 
d="M414 754h-20c-7 0 -10 3 -13 9l-66 122c-3 5 0 10 5 10h19c8 0 11 -2 15 -9l53 -90h2l86 90c6 7 11 9 18 9h22c6 0 8 -5 3 -10l-107 -122c-6 -7 -11 -9 -17 -9zM54 10l116 660c1 6 5 10 11 10h32c6 0 10 -2 13 -10l234 -567h2l102 567c1 6 5 10 11 10h31c6 0 9 -4 8 -10
l-116 -660c-1 -6 -5 -10 -11 -10h-31c-6 0 -11 2 -14 10l-235 568h-2l-101 -568c-1 -6 -5 -10 -11 -10h-31c-5 0 -9 4 -8 10z" />
    <glyph glyph-name="Ntilde" unicode="&#xd1;" horiz-adv-x="625" 
d="M460 784c-23 0 -38 8 -54 20c-14 11 -27 18 -44 18c-21 0 -40 -12 -61 -33c-4 -4 -9 -1 -8 3l4 30c1 6 3 9 10 15c18 18 40 28 64 28c23 0 38 -9 54 -21c14 -10 27 -18 44 -18c21 0 41 13 62 33c4 4 9 2 8 -3l-5 -29c-1 -6 -3 -10 -10 -16c-18 -17 -40 -27 -64 -27z
M54 10l116 660c1 6 5 10 11 10h32c6 0 10 -2 13 -10l234 -567h2l102 567c1 6 5 10 11 10h31c6 0 9 -4 8 -10l-116 -660c-1 -6 -5 -10 -11 -10h-31c-6 0 -11 2 -14 10l-235 568h-2l-101 -568c-1 -6 -5 -10 -11 -10h-31c-5 0 -9 4 -8 10z" />
    <glyph glyph-name="Ncommaaccent" unicode="&#x145;" horiz-adv-x="625" 
d="M239 -196c-6 0 -9 4 -8 10l21 121c1 6 6 10 12 10h35c6 0 9 -4 8 -10l-7 -45c-2 -10 -4 -13 -9 -22l-40 -56c-4 -5 -7 -8 -12 -8zM54 10l116 660c1 6 5 10 11 10h32c6 0 10 -2 13 -10l234 -567h2l102 567c1 6 5 10 11 10h31c6 0 9 -4 8 -10l-116 -660
c-1 -6 -5 -10 -11 -10h-31c-6 0 -11 2 -14 10l-235 568h-2l-101 -568c-1 -6 -5 -10 -11 -10h-31c-5 0 -9 4 -8 10z" />
    <glyph glyph-name="Eng" unicode="&#x14a;" horiz-adv-x="625" 
d="M325 -180h-12c-6 0 -9 4 -8 10l5 31c1 7 6 10 12 10h11c59 0 94 25 106 95l7 34l-239 578h-2l-101 -568c-1 -6 -5 -10 -11 -10h-31c-6 0 -9 4 -8 10l116 660c1 6 4 10 10 10h31c6 0 12 -1 15 -10l234 -567h2l102 567c1 6 5 10 10 10h31c6 0 10 -4 9 -10l-124 -701
c-18 -105 -70 -149 -165 -149z" />
    <glyph glyph-name="Ograve" unicode="&#xd2;" horiz-adv-x="586" 
d="M409 764h-22c-8 0 -10 1 -16 10l-72 104c-3 5 0 10 5 10h33c9 0 12 -3 17 -10l60 -104c4 -5 1 -10 -5 -10zM251 -10c-116 0 -186 69 -186 193c0 76 33 280 72 357c50 104 126 150 237 150c116 0 186 -69 186 -193c0 -76 -33 -280 -72 -357c-50 -104 -126 -150 -237 -150z
M259 41c83 0 143 41 180 116c36 74 68 263 68 334c0 94 -50 148 -141 148c-83 0 -143 -41 -180 -116c-36 -74 -68 -263 -68 -334c0 -94 49 -148 141 -148z" />
    <glyph glyph-name="Oacute" unicode="&#xd3;" horiz-adv-x="586" 
d="M392 764h-24c-6 0 -7 5 -2 11l94 103c7 7 11 10 19 10h36c6 0 8 -5 3 -10l-107 -104c-8 -8 -12 -10 -19 -10zM251 -10c-116 0 -186 69 -186 193c0 76 33 280 72 357c50 104 126 150 237 150c116 0 186 -69 186 -193c0 -76 -33 -280 -72 -357
c-50 -104 -126 -150 -237 -150zM259 41c83 0 143 41 180 116c36 74 68 263 68 334c0 94 -50 148 -141 148c-83 0 -143 -41 -180 -116c-36 -74 -68 -263 -68 -334c0 -94 49 -148 141 -148z" />
    <glyph glyph-name="Ocircumflex" unicode="&#xd4;" horiz-adv-x="586" 
d="M498 765h-20c-7 0 -10 2 -15 9l-52 91h-2l-86 -91c-7 -7 -11 -9 -19 -9h-22c-5 0 -7 5 -2 10l107 122c6 7 10 9 17 9h20c6 0 10 -3 13 -9l65 -122c3 -5 1 -10 -4 -10zM251 -10c-116 0 -186 69 -186 193c0 76 33 280 72 357c50 104 126 150 237 150
c116 0 186 -69 186 -193c0 -76 -33 -280 -72 -357c-50 -104 -126 -150 -237 -150zM259 41c83 0 143 41 180 116c36 74 68 263 68 334c0 94 -50 148 -141 148c-83 0 -143 -41 -180 -116c-36 -74 -68 -263 -68 -334c0 -94 49 -148 141 -148z" />
    <glyph glyph-name="Otilde" unicode="&#xd5;" horiz-adv-x="586" 
d="M444 784c-23 0 -38 8 -54 20c-14 11 -27 18 -44 18c-21 0 -40 -12 -61 -33c-4 -4 -9 -1 -8 3l4 30c1 6 3 9 10 15c18 18 40 28 64 28c23 0 38 -9 54 -21c14 -10 27 -18 44 -18c21 0 41 13 62 33c4 4 9 2 8 -3l-5 -29c-1 -6 -3 -10 -10 -16c-18 -17 -40 -27 -64 -27z
M251 -10c-116 0 -186 69 -186 193c0 76 33 280 72 357c50 104 126 150 237 150c116 0 186 -69 186 -193c0 -76 -33 -280 -72 -357c-50 -104 -126 -150 -237 -150zM259 41c83 0 143 41 180 116c36 74 68 263 68 334c0 94 -50 148 -141 148c-83 0 -143 -41 -180 -116
c-36 -74 -68 -263 -68 -334c0 -94 49 -148 141 -148z" />
    <glyph glyph-name="Odieresis" unicode="&#xd6;" horiz-adv-x="586" 
d="M508 787h-37c-6 0 -9 4 -8 10l9 54c1 6 5 10 11 10h37c6 0 9 -4 8 -10l-9 -54c-1 -6 -5 -10 -11 -10zM316 787h-37c-6 0 -9 4 -8 10l9 54c1 6 5 10 11 10h37c6 0 9 -4 8 -10l-9 -54c-1 -6 -5 -10 -11 -10zM251 -10c-116 0 -186 69 -186 193c0 76 33 280 72 357
c50 104 126 150 237 150c116 0 186 -69 186 -193c0 -76 -33 -280 -72 -357c-50 -104 -126 -150 -237 -150zM259 41c83 0 143 41 180 116c36 74 68 263 68 334c0 94 -50 148 -141 148c-83 0 -143 -41 -180 -116c-36 -74 -68 -263 -68 -334c0 -94 49 -148 141 -148z" />
    <glyph glyph-name="Omacron" unicode="&#x14c;" horiz-adv-x="586" 
d="M513 802h-234c-6 0 -9 4 -8 10l4 23c1 7 5 10 11 10h233c6 0 9 -4 8 -10l-3 -23c-1 -6 -5 -10 -11 -10zM251 -10c-116 0 -186 69 -186 193c0 76 33 280 72 357c50 104 126 150 237 150c116 0 186 -69 186 -193c0 -76 -33 -280 -72 -357c-50 -104 -126 -150 -237 -150z
M259 41c83 0 143 41 180 116c36 74 68 263 68 334c0 94 -50 148 -141 148c-83 0 -143 -41 -180 -116c-36 -74 -68 -263 -68 -334c0 -94 49 -148 141 -148z" />
    <glyph glyph-name="Obreve" unicode="&#x14e;" horiz-adv-x="586" 
d="M391 769c-64 0 -102 41 -101 102c0 6 4 10 10 10h16c7 0 10 -4 11 -10c3 -40 27 -62 70 -62s75 24 93 62c3 6 6 10 13 10h17c6 0 9 -4 7 -10c-20 -61 -71 -102 -136 -102zM251 -10c-116 0 -186 69 -186 193c0 76 33 280 72 357c50 104 126 150 237 150
c116 0 186 -69 186 -193c0 -76 -33 -280 -72 -357c-50 -104 -126 -150 -237 -150zM259 41c83 0 143 41 180 116c36 74 68 263 68 334c0 94 -50 148 -141 148c-83 0 -143 -41 -180 -116c-36 -74 -68 -263 -68 -334c0 -94 49 -148 141 -148z" />
    <glyph glyph-name="Ohungarumlaut" unicode="&#x150;" horiz-adv-x="586" 
d="M251 -10c-116 0 -186 69 -186 193c0 76 33 280 72 357c50 104 126 150 237 150c116 0 186 -69 186 -193c0 -76 -33 -280 -72 -357c-50 -104 -126 -150 -237 -150zM259 41c83 0 143 41 180 116c36 74 68 263 68 334c0 94 -50 148 -141 148c-83 0 -143 -41 -180 -116
c-36 -74 -68 -263 -68 -334c0 -94 49 -148 141 -148zM460 765h-21c-5 0 -9 4 -4 10l83 104c5 6 10 10 18 10h27c6 0 8 -5 4 -10l-91 -105c-5 -7 -9 -9 -16 -9zM342 765h-21c-5 0 -9 4 -4 10l83 104c5 6 10 10 18 10h28c6 0 8 -5 4 -10l-92 -105c-5 -7 -9 -9 -16 -9z" />
    <glyph glyph-name="Oslash" unicode="&#xd8;" horiz-adv-x="586" 
d="M58 -30h-22c-6 0 -7 4 -3 10l61 86c-19 30 -29 70 -29 117c0 76 33 280 72 357c50 104 126 150 237 150c58 0 104 -18 136 -50l43 60c4 6 9 10 16 10h22c6 0 8 -4 4 -10l-64 -88c19 -30 29 -69 29 -115c0 -76 -33 -280 -72 -357c-50 -104 -126 -150 -237 -150
c-57 0 -103 16 -135 48l-42 -58c-4 -6 -9 -10 -16 -10zM118 189c0 -28 4 -53 13 -74l345 478c-24 30 -61 47 -110 47c-83 0 -143 -42 -180 -117c-37 -73 -68 -263 -68 -334zM259 40c83 0 143 42 180 117c37 74 68 263 68 334c0 27 -4 51 -12 71l-346 -478
c24 -29 61 -44 110 -44z" />
    <glyph glyph-name="OE" unicode="&#x152;" horiz-adv-x="912" 
d="M812 0h-373c-6 0 -9 4 -8 10l15 82h-1c-44 -70 -108 -102 -194 -102c-116 0 -186 69 -186 193c0 76 33 280 72 357c50 104 126 150 237 150c81 0 138 -36 157 -105h1l15 85c1 6 5 10 11 10h374c6 0 9 -4 8 -10l-5 -31c-1 -7 -5 -10 -12 -10h-324c-4 0 -6 -2 -7 -6
l-43 -246c-1 -5 2 -7 6 -7h276c6 0 9 -4 8 -10l-5 -30c-1 -7 -5 -10 -12 -10h-277c-4 0 -6 -2 -7 -6l-46 -257c-1 -4 1 -6 5 -6h324c6 0 9 -4 8 -10l-5 -31c-1 -7 -5 -10 -12 -10zM259 41c83 0 143 41 180 116c36 74 68 263 68 334c0 94 -50 148 -141 148
c-83 0 -143 -41 -180 -116c-36 -74 -68 -263 -68 -334c0 -94 49 -148 141 -148z" />
    <glyph glyph-name="Racute" unicode="&#x154;" horiz-adv-x="591" 
d="M479 0h-36c-6 0 -9 2 -11 9l-87 297h-11h-168c-4 0 -7 -2 -7 -6l-52 -290c-1 -6 -5 -10 -11 -10h-34c-6 0 -9 4 -8 10l116 660c1 6 5 10 11 10h218c108 0 170 -56 170 -151c0 -115 -67 -195 -173 -217l89 -301c3 -6 0 -11 -6 -11zM341 357c111 0 175 65 175 166
c0 70 -44 106 -126 106h-168c-4 0 -6 -2 -7 -6l-46 -260c-1 -4 1 -6 5 -6h167zM361 764h-24c-6 0 -7 5 -2 11l94 103c7 7 11 10 19 10h36c6 0 8 -5 3 -10l-107 -104c-8 -8 -12 -10 -19 -10z" />
    <glyph glyph-name="Rcaron" unicode="&#x158;" horiz-adv-x="591" 
d="M380 754h-20c-7 0 -10 3 -13 9l-66 122c-3 5 0 10 5 10h19c8 0 11 -2 15 -9l53 -90h2l86 90c6 7 11 9 18 9h22c6 0 8 -5 3 -10l-107 -122c-6 -7 -11 -9 -17 -9zM479 0h-36c-6 0 -9 2 -11 9l-87 297h-11h-168c-4 0 -7 -2 -7 -6l-52 -290c-1 -6 -5 -10 -11 -10h-34
c-6 0 -9 4 -8 10l116 660c1 6 5 10 11 10h218c108 0 170 -56 170 -151c0 -115 -67 -195 -173 -217l89 -301c3 -6 0 -11 -6 -11zM341 357c111 0 175 65 175 166c0 70 -44 106 -126 106h-168c-4 0 -6 -2 -7 -6l-46 -260c-1 -4 1 -6 5 -6h167z" />
    <glyph glyph-name="Rcommaaccent" unicode="&#x156;" horiz-adv-x="591" 
d="M223 -196c-6 0 -9 4 -8 10l21 121c1 6 6 10 12 10h35c6 0 9 -4 8 -10l-7 -45c-2 -10 -4 -13 -9 -22l-40 -56c-4 -5 -7 -8 -12 -8zM479 0h-36c-6 0 -9 2 -11 9l-87 297h-11h-168c-4 0 -7 -2 -7 -6l-52 -290c-1 -6 -5 -10 -11 -10h-34c-6 0 -9 4 -8 10l116 660
c1 6 5 10 11 10h218c108 0 170 -56 170 -151c0 -115 -67 -195 -173 -217l89 -301c3 -6 0 -11 -6 -11zM341 357c111 0 175 65 175 166c0 70 -44 106 -126 106h-168c-4 0 -6 -2 -7 -6l-46 -260c-1 -4 1 -6 5 -6h167z" />
    <glyph glyph-name="Sacute" unicode="&#x15a;" horiz-adv-x="572" 
d="M240 -10c-83 0 -166 38 -203 79c-3 4 -3 8 1 13l23 26c5 5 9 5 14 1c52 -44 107 -68 178 -68c117 0 196 67 196 166c0 64 -31 96 -131 110l-29 4c-109 16 -161 69 -161 156c0 126 93 213 232 213c71 0 139 -25 179 -59c5 -4 5 -9 1 -14l-17 -23c-4 -6 -11 -7 -17 -3
c-46 32 -97 48 -154 48c-101 0 -169 -68 -169 -155c0 -63 32 -99 133 -113l29 -4c113 -16 158 -67 158 -152c0 -137 -99 -225 -263 -225zM374 764h-24c-6 0 -7 5 -2 11l94 103c7 7 11 10 19 10h36c6 0 8 -5 3 -10l-107 -104c-8 -8 -12 -10 -19 -10z" />
    <glyph glyph-name="Scircumflex" unicode="&#x15c;" horiz-adv-x="572" 
d="M240 -10c-83 0 -166 38 -203 79c-3 4 -3 8 1 13l23 26c5 5 9 5 14 1c52 -44 107 -68 178 -68c117 0 196 67 196 166c0 64 -31 96 -131 110l-29 4c-109 16 -161 69 -161 156c0 126 93 213 232 213c71 0 139 -25 179 -59c5 -4 5 -9 1 -14l-17 -23c-4 -6 -11 -7 -17 -3
c-46 32 -97 48 -154 48c-101 0 -169 -68 -169 -155c0 -63 32 -99 133 -113l29 -4c113 -16 158 -67 158 -152c0 -137 -99 -225 -263 -225zM491 755h-19c-8 0 -11 2 -16 9l-52 91h-2l-86 -91c-6 -7 -11 -9 -18 -9h-23c-5 0 -7 5 -2 10l107 122c6 7 11 9 17 9h20
c7 0 10 -3 13 -9l65 -122c3 -5 1 -10 -4 -10z" />
    <glyph glyph-name="Scaron" unicode="&#x160;" horiz-adv-x="572" 
d="M240 -10c-83 0 -166 38 -203 79c-3 4 -3 8 1 13l23 26c5 5 9 5 14 1c52 -44 107 -68 178 -68c117 0 196 67 196 166c0 64 -31 96 -131 110l-29 4c-109 16 -161 69 -161 156c0 126 93 213 232 213c71 0 139 -25 179 -59c5 -4 5 -9 1 -14l-17 -23c-4 -6 -11 -7 -17 -3
c-46 32 -97 48 -154 48c-101 0 -169 -68 -169 -155c0 -63 32 -99 133 -113l29 -4c113 -16 158 -67 158 -152c0 -137 -99 -225 -263 -225zM383 754h-20c-7 0 -10 3 -13 9l-66 122c-3 5 0 10 5 10h19c8 0 11 -2 15 -9l53 -90h2l86 90c6 7 11 9 18 9h22c6 0 8 -5 3 -10
l-107 -122c-6 -7 -11 -9 -17 -9z" />
    <glyph glyph-name="Scedilla" unicode="&#x15e;" horiz-adv-x="572" 
d="M201 -147h-27c-6 0 -9 4 -6 10l71 127c-83 0 -165 38 -202 79c-3 4 -3 8 1 13l23 26c5 5 9 5 14 1c52 -44 107 -68 178 -68c117 0 196 67 196 166c0 64 -31 96 -131 110l-29 4c-109 16 -161 69 -161 156c0 126 93 213 232 213c71 0 139 -25 179 -59c5 -4 5 -9 1 -14
l-17 -23c-4 -6 -11 -7 -17 -3c-46 32 -97 48 -154 48c-101 0 -169 -68 -169 -155c0 -63 32 -99 133 -113l29 -4c113 -16 158 -67 158 -152c0 -125 -82 -209 -220 -223l-65 -129c-4 -8 -9 -10 -17 -10z" />
    <glyph glyph-name="Scommaaccent" unicode="&#x218;" horiz-adv-x="572" 
d="M203 -196c-6 0 -9 4 -8 10l21 121c1 6 6 10 12 10h35c6 0 9 -4 8 -10l-7 -45c-2 -10 -4 -13 -9 -22l-40 -56c-4 -5 -7 -8 -12 -8zM240 -10c-83 0 -166 38 -203 79c-3 4 -3 8 1 13l23 26c5 5 9 5 14 1c52 -44 107 -68 178 -68c117 0 196 67 196 166c0 64 -31 96 -131 110
l-29 4c-109 16 -161 69 -161 156c0 126 93 213 232 213c71 0 139 -25 179 -59c5 -4 5 -9 1 -14l-17 -23c-4 -6 -11 -7 -17 -3c-46 32 -97 48 -154 48c-101 0 -169 -68 -169 -155c0 -63 32 -99 133 -113l29 -4c113 -16 158 -67 158 -152c0 -137 -99 -225 -263 -225z" />
    <glyph glyph-name="Tcaron" unicode="&#x164;" horiz-adv-x="501" 
d="M351 754h-20c-7 0 -10 3 -13 9l-66 122c-3 5 0 10 5 10h19c8 0 11 -2 15 -9l53 -90h2l86 90c6 7 11 9 18 9h22c6 0 8 -5 3 -10l-107 -122c-6 -7 -11 -9 -17 -9zM229 0h-33c-6 0 -9 4 -8 10l108 613c1 4 0 6 -4 6h-189c-5 0 -8 4 -7 10l5 31c1 6 5 10 11 10h441
c5 0 9 -4 8 -10l-6 -31c-1 -6 -5 -10 -11 -10h-189c-3 0 -5 -2 -6 -6l-109 -613c-1 -6 -5 -10 -11 -10z" />
    <glyph glyph-name="uni0162" unicode="&#x162;" horiz-adv-x="501" 
d="M161 -196c-6 0 -9 4 -8 10l21 121c1 6 6 10 12 10h35c6 0 9 -4 8 -10l-7 -45c-2 -10 -4 -13 -9 -22l-40 -56c-4 -5 -7 -8 -12 -8zM229 0h-33c-6 0 -9 4 -8 10l108 613c1 4 0 6 -4 6h-189c-5 0 -8 4 -7 10l5 31c1 6 5 10 11 10h441c5 0 9 -4 8 -10l-6 -31
c-1 -6 -5 -10 -11 -10h-189c-3 0 -5 -2 -6 -6l-109 -613c-1 -6 -5 -10 -11 -10z" />
    <glyph glyph-name="uni021A" unicode="&#x21a;" horiz-adv-x="501" 
d="M161 -196c-6 0 -9 4 -8 10l21 121c1 6 6 10 12 10h35c6 0 9 -4 8 -10l-7 -45c-2 -10 -4 -13 -9 -22l-40 -56c-4 -5 -7 -8 -12 -8zM229 0h-33c-6 0 -9 4 -8 10l108 613c1 4 0 6 -4 6h-189c-5 0 -8 4 -7 10l5 31c1 6 5 10 11 10h441c5 0 9 -4 8 -10l-6 -31
c-1 -6 -5 -10 -11 -10h-189c-3 0 -5 -2 -6 -6l-109 -613c-1 -6 -5 -10 -11 -10z" />
    <glyph glyph-name="Tbar" unicode="&#x166;" horiz-adv-x="501" 
d="M229 0h-33c-6 0 -9 4 -8 10l68 388c1 4 -1 6 -5 6h-100c-6 0 -9 4 -8 10l5 28c1 6 5 10 12 10h100c4 0 6 2 7 6l29 165c1 4 0 6 -4 6h-189c-5 0 -8 4 -7 10l5 31c1 6 5 10 11 10h441c5 0 9 -4 8 -10l-6 -31c-1 -6 -5 -10 -11 -10h-189c-3 0 -5 -2 -6 -6l-30 -165
c-1 -4 1 -6 5 -6h101c6 0 9 -4 8 -10l-5 -28c-1 -7 -5 -10 -11 -10h-101c-4 0 -6 -2 -7 -6l-69 -388c-1 -6 -5 -10 -11 -10z" />
    <glyph glyph-name="Thorn" unicode="&#xde;" horiz-adv-x="561" 
d="M96 0h-34c-6 0 -9 4 -8 10l116 660c1 6 5 10 11 10h34c6 0 9 -4 8 -10l-22 -126c-1 -4 1 -6 5 -6h167c110 0 171 -56 171 -149c0 -150 -99 -234 -237 -234h-169c-4 0 -6 -2 -7 -6l-24 -139c-1 -6 -5 -10 -11 -10zM310 206c109 0 182 64 182 175c0 68 -44 107 -129 107
h-166c-4 0 -6 -2 -7 -6l-48 -270c-1 -4 1 -6 5 -6h163z" />
    <glyph glyph-name="Ugrave" unicode="&#xd9;" horiz-adv-x="610" 
d="M412 764h-22c-8 0 -10 1 -16 10l-72 104c-3 5 0 10 5 10h33c9 0 12 -3 17 -10l60 -104c4 -5 1 -10 -5 -10zM276 -10c-140 0 -217 84 -188 246l76 434c1 6 5 10 11 10h34c6 0 9 -4 8 -10l-77 -436c-22 -129 29 -193 140 -193c108 0 170 49 196 193l77 436c1 6 5 10 11 10
h33c6 0 9 -4 8 -10l-77 -439c-30 -175 -111 -241 -252 -241z" />
    <glyph glyph-name="Uacute" unicode="&#xda;" horiz-adv-x="610" 
d="M384 764h-24c-6 0 -7 5 -2 11l94 103c7 7 11 10 19 10h36c6 0 8 -5 3 -10l-107 -104c-8 -8 -12 -10 -19 -10zM276 -10c-140 0 -217 84 -188 246l76 434c1 6 5 10 11 10h34c6 0 9 -4 8 -10l-77 -436c-22 -129 29 -193 140 -193c108 0 170 49 196 193l77 436
c1 6 5 10 11 10h33c6 0 9 -4 8 -10l-77 -439c-30 -175 -111 -241 -252 -241z" />
    <glyph glyph-name="Ucircumflex" unicode="&#xdb;" horiz-adv-x="610" 
d="M276 -10c-140 0 -217 84 -188 246l76 434c1 6 5 10 11 10h34c6 0 9 -4 8 -10l-77 -436c-22 -129 29 -193 140 -193c108 0 170 49 196 193l77 436c1 6 5 10 11 10h33c6 0 9 -4 8 -10l-77 -439c-30 -175 -111 -241 -252 -241zM514 755h-19c-8 0 -11 2 -16 9l-52 91h-2
l-86 -91c-6 -7 -11 -9 -18 -9h-23c-5 0 -7 5 -2 10l107 122c6 7 11 9 17 9h20c7 0 10 -3 13 -9l65 -122c3 -5 1 -10 -4 -10z" />
    <glyph glyph-name="Utilde" unicode="&#x168;" horiz-adv-x="610" 
d="M462 784c-23 0 -38 8 -54 20c-14 11 -27 18 -44 18c-21 0 -40 -12 -61 -33c-4 -4 -9 -1 -8 3l4 30c1 6 3 9 10 15c18 18 40 28 64 28c23 0 38 -9 54 -21c14 -10 27 -18 44 -18c21 0 41 13 62 33c4 4 9 2 8 -3l-5 -29c-1 -6 -3 -10 -10 -16c-18 -17 -40 -27 -64 -27z
M276 -10c-140 0 -217 84 -188 246l76 434c1 6 5 10 11 10h34c6 0 9 -4 8 -10l-77 -436c-22 -129 29 -193 140 -193c108 0 170 49 196 193l77 436c1 6 5 10 11 10h33c6 0 9 -4 8 -10l-77 -439c-30 -175 -111 -241 -252 -241z" />
    <glyph glyph-name="Udieresis" unicode="&#xdc;" horiz-adv-x="610" 
d="M526 787h-37c-6 0 -9 4 -8 10l9 54c1 6 5 10 11 10h37c6 0 9 -4 8 -10l-9 -54c-1 -6 -5 -10 -11 -10zM334 787h-37c-6 0 -9 4 -8 10l9 54c1 6 5 10 11 10h37c6 0 9 -4 8 -10l-9 -54c-1 -6 -5 -10 -11 -10zM276 -10c-140 0 -217 84 -188 246l76 434c1 6 5 10 11 10h34
c6 0 9 -4 8 -10l-77 -436c-22 -129 29 -193 140 -193c108 0 170 49 196 193l77 436c1 6 5 10 11 10h33c6 0 9 -4 8 -10l-77 -439c-30 -175 -111 -241 -252 -241z" />
    <glyph glyph-name="Umacron" unicode="&#x16a;" horiz-adv-x="610" 
d="M531 802h-234c-6 0 -9 4 -8 10l4 23c1 7 5 10 11 10h233c6 0 9 -4 8 -10l-3 -23c-1 -6 -5 -10 -11 -10zM276 -10c-140 0 -217 84 -188 246l76 434c1 6 5 10 11 10h34c6 0 9 -4 8 -10l-77 -436c-22 -129 29 -193 140 -193c108 0 170 49 196 193l77 436c1 6 5 10 11 10h33
c6 0 9 -4 8 -10l-77 -439c-30 -175 -111 -241 -252 -241z" />
    <glyph glyph-name="Ubreve" unicode="&#x16c;" horiz-adv-x="610" 
d="M409 769c-64 0 -102 41 -101 102c0 6 4 10 10 10h16c7 0 10 -4 11 -10c3 -40 27 -62 70 -62s75 24 93 62c3 6 6 10 13 10h17c6 0 9 -4 7 -10c-20 -61 -71 -102 -136 -102zM276 -10c-140 0 -217 84 -188 246l76 434c1 6 5 10 11 10h34c6 0 9 -4 8 -10l-77 -436
c-22 -129 29 -193 140 -193c108 0 170 49 196 193l77 436c1 6 5 10 11 10h33c6 0 9 -4 8 -10l-77 -439c-30 -175 -111 -241 -252 -241z" />
    <glyph glyph-name="Uring" unicode="&#x16e;" horiz-adv-x="610" 
d="M276 -10c-140 0 -217 84 -188 246l76 434c1 6 5 10 11 10h34c6 0 9 -4 8 -10l-77 -436c-22 -129 29 -193 140 -193c108 0 170 49 196 193l77 436c1 6 5 10 11 10h33c6 0 9 -4 8 -10l-77 -439c-30 -175 -111 -241 -252 -241zM403 739c-42 0 -70 30 -70 71
c0 56 41 103 100 103c42 0 71 -30 71 -71c0 -56 -42 -103 -101 -103zM409 769c34 0 63 30 63 68c0 27 -16 46 -45 46c-34 0 -63 -30 -63 -68c0 -27 16 -46 45 -46z" />
    <glyph glyph-name="Uhungarumlaut" unicode="&#x170;" horiz-adv-x="610" 
d="M276 -10c-140 0 -217 84 -188 246l76 434c1 6 5 10 11 10h34c6 0 9 -4 8 -10l-77 -436c-22 -129 29 -193 140 -193c108 0 170 49 196 193l77 436c1 6 5 10 11 10h33c6 0 9 -4 8 -10l-77 -439c-30 -175 -111 -241 -252 -241zM465 765h-21c-5 0 -9 4 -4 10l83 104
c5 6 10 10 18 10h27c6 0 8 -5 4 -10l-91 -105c-5 -7 -9 -9 -16 -9zM347 765h-21c-5 0 -9 4 -4 10l83 104c5 6 10 10 18 10h28c6 0 8 -5 4 -10l-92 -105c-5 -7 -9 -9 -16 -9z" />
    <glyph glyph-name="Uogonek" unicode="&#x172;" horiz-adv-x="610" 
d="M242 -170c-33 0 -56 20 -56 54c0 36 20 66 64 108c-124 11 -189 92 -162 244l76 434c1 6 5 10 11 10h34c6 0 9 -4 8 -10l-77 -436c-22 -129 29 -193 140 -193c108 0 170 49 196 193l77 436c1 6 5 10 11 10h33c6 0 9 -4 8 -10l-77 -439c-29 -165 -101 -233 -227 -240
c-54 -48 -70 -73 -70 -95c0 -15 10 -23 25 -23c11 0 18 3 29 9c5 3 9 2 11 -2l7 -20c2 -5 0 -8 -6 -13c-13 -9 -33 -17 -55 -17z" />
    <glyph glyph-name="Wcircumflex" unicode="&#x174;" horiz-adv-x="788" 
d="M550 0h-28c-5 0 -9 3 -10 10l-53 565h-2l-255 -565c-3 -7 -7 -10 -14 -10h-27c-6 0 -9 3 -10 10l-39 659c0 7 3 11 10 11h31c7 0 11 -4 11 -11l29 -562h2l252 563c3 7 7 10 14 10h25c7 0 10 -3 11 -10l53 -563h2l228 563c3 7 6 10 14 10h34c7 0 10 -4 7 -11l-272 -659
c-3 -7 -7 -10 -13 -10zM602 755h-19c-8 0 -11 2 -16 9l-52 91h-2l-86 -91c-6 -7 -11 -9 -18 -9h-23c-5 0 -7 5 -2 10l107 122c6 7 11 9 17 9h20c7 0 10 -3 13 -9l65 -122c3 -5 1 -10 -4 -10z" />
    <glyph glyph-name="Wacute" unicode="&#x1e82;" horiz-adv-x="788" 
d="M502 764h-24c-6 0 -7 5 -2 11l94 103c7 7 11 10 19 10h36c6 0 8 -5 3 -10l-107 -104c-8 -8 -12 -10 -19 -10zM550 0h-28c-5 0 -9 3 -10 10l-53 565h-2l-255 -565c-3 -7 -7 -10 -14 -10h-27c-6 0 -9 3 -10 10l-39 659c0 7 3 11 10 11h31c7 0 11 -4 11 -11l29 -562h2
l252 563c3 7 7 10 14 10h25c7 0 10 -3 11 -10l53 -563h2l228 563c3 7 6 10 14 10h34c7 0 10 -4 7 -11l-272 -659c-3 -7 -7 -10 -13 -10z" />
    <glyph glyph-name="Wdieresis" unicode="&#x1e84;" horiz-adv-x="788" 
d="M609 787h-37c-6 0 -9 4 -8 10l9 54c1 6 5 10 11 10h37c6 0 9 -4 8 -10l-9 -54c-1 -6 -5 -10 -11 -10zM417 787h-37c-6 0 -9 4 -8 10l9 54c1 6 5 10 11 10h37c6 0 9 -4 8 -10l-9 -54c-1 -6 -5 -10 -11 -10zM550 0h-28c-5 0 -9 3 -10 10l-53 565h-2l-255 -565
c-3 -7 -7 -10 -14 -10h-27c-6 0 -9 3 -10 10l-39 659c0 7 3 11 10 11h31c7 0 11 -4 11 -11l29 -562h2l252 563c3 7 7 10 14 10h25c7 0 10 -3 11 -10l53 -563h2l228 563c3 7 6 10 14 10h34c7 0 10 -4 7 -11l-272 -659c-3 -7 -7 -10 -13 -10z" />
    <glyph glyph-name="Wgrave" unicode="&#x1e80;" horiz-adv-x="788" 
d="M487 764h-22c-8 0 -10 1 -16 10l-72 104c-3 5 0 10 5 10h33c9 0 12 -3 17 -10l60 -104c4 -5 1 -10 -5 -10zM550 0h-28c-5 0 -9 3 -10 10l-53 565h-2l-255 -565c-3 -7 -7 -10 -14 -10h-27c-6 0 -9 3 -10 10l-39 659c0 7 3 11 10 11h31c7 0 11 -4 11 -11l29 -562h2l252 563
c3 7 7 10 14 10h25c7 0 10 -3 11 -10l53 -563h2l228 563c3 7 6 10 14 10h34c7 0 10 -4 7 -11l-272 -659c-3 -7 -7 -10 -13 -10z" />
    <glyph glyph-name="Yacute" unicode="&#xdd;" horiz-adv-x="496" 
d="M226 0h-33c-6 0 -9 4 -8 10l47 269l-126 390c-2 6 1 11 8 11h32c7 0 11 -2 13 -10l107 -327h3l224 327c5 8 9 10 16 10h34c8 0 10 -6 6 -11l-264 -390l-48 -269c-1 -6 -5 -10 -11 -10zM345 764h-24c-6 0 -7 5 -2 11l94 103c7 7 11 10 19 10h36c6 0 8 -5 3 -10l-107 -104
c-8 -8 -12 -10 -19 -10z" />
    <glyph glyph-name="Ycircumflex" unicode="&#x176;" horiz-adv-x="496" 
d="M226 0h-33c-6 0 -9 4 -8 10l47 269l-126 390c-2 6 1 11 8 11h32c7 0 11 -2 13 -10l107 -327h3l224 327c5 8 9 10 16 10h34c8 0 10 -6 6 -11l-264 -390l-48 -269c-1 -6 -5 -10 -11 -10zM450 755h-19c-8 0 -11 2 -16 9l-52 91h-2l-86 -91c-6 -7 -11 -9 -18 -9h-23
c-5 0 -7 5 -2 10l107 122c6 7 11 9 17 9h20c7 0 10 -3 13 -9l65 -122c3 -5 1 -10 -4 -10z" />
    <glyph glyph-name="Ydieresis" unicode="&#x178;" horiz-adv-x="496" 
d="M226 0h-33c-6 0 -9 4 -8 10l47 269l-126 390c-2 6 1 11 8 11h32c7 0 11 -2 13 -10l107 -327h3l224 327c5 8 9 10 16 10h34c8 0 10 -6 6 -11l-264 -390l-48 -269c-1 -6 -5 -10 -11 -10zM462 787h-37c-6 0 -9 4 -8 10l9 54c1 6 5 10 11 10h37c6 0 9 -4 8 -10l-9 -54
c-1 -6 -5 -10 -11 -10zM270 787h-37c-6 0 -9 4 -8 10l9 54c1 6 5 10 11 10h37c6 0 9 -4 8 -10l-9 -54c-1 -6 -5 -10 -11 -10z" />
    <glyph glyph-name="Ygrave" unicode="&#x1ef2;" horiz-adv-x="496" 
d="M226 0h-33c-6 0 -9 4 -8 10l47 269l-126 390c-2 6 1 11 8 11h32c7 0 11 -2 13 -10l107 -327h3l224 327c5 8 9 10 16 10h34c8 0 10 -6 6 -11l-264 -390l-48 -269c-1 -6 -5 -10 -11 -10zM345 764h-22c-8 0 -10 1 -16 10l-72 104c-3 5 0 10 5 10h33c9 0 12 -3 17 -10
l60 -104c4 -5 1 -10 -5 -10z" />
    <glyph glyph-name="Zacute" unicode="&#x179;" horiz-adv-x="518" 
d="M419 0h-396c-6 0 -9 4 -8 10l5 32c1 5 3 9 8 14l448 572v1h-329c-6 0 -9 4 -8 10l5 31c1 6 5 10 11 10h384c6 0 9 -4 8 -10l-5 -30c-1 -5 -3 -9 -7 -14l-450 -574v-1h343c6 0 9 -4 8 -10l-5 -31c-1 -7 -6 -10 -12 -10zM353 764h-24c-6 0 -7 5 -2 11l94 103
c7 7 11 10 19 10h36c6 0 8 -5 3 -10l-107 -104c-8 -8 -12 -10 -19 -10z" />
    <glyph glyph-name="Zcaron" unicode="&#x17d;" horiz-adv-x="518" 
d="M372 754h-20c-7 0 -10 3 -13 9l-66 122c-3 5 0 10 5 10h19c8 0 11 -2 15 -9l53 -90h2l86 90c6 7 11 9 18 9h22c6 0 8 -5 3 -10l-107 -122c-6 -7 -11 -9 -17 -9zM419 0h-396c-6 0 -9 4 -8 10l5 32c1 5 3 9 8 14l448 572v1h-329c-6 0 -9 4 -8 10l5 31c1 6 5 10 11 10h384
c6 0 9 -4 8 -10l-5 -30c-1 -5 -3 -9 -7 -14l-450 -574v-1h343c6 0 9 -4 8 -10l-5 -31c-1 -7 -6 -10 -12 -10z" />
    <glyph glyph-name="Zdotaccent" unicode="&#x17b;" horiz-adv-x="518" 
d="M381 787h-42c-6 0 -9 4 -8 10l9 54c1 6 5 10 11 10h42c6 0 9 -4 8 -10l-9 -54c-1 -6 -5 -10 -11 -10zM419 0h-396c-6 0 -9 4 -8 10l5 32c1 5 3 9 8 14l448 572v1h-329c-6 0 -9 4 -8 10l5 31c1 6 5 10 11 10h384c6 0 9 -4 8 -10l-5 -30c-1 -5 -3 -9 -7 -14l-450 -574v-1
h343c6 0 9 -4 8 -10l-5 -31c-1 -7 -6 -10 -12 -10z" />
    <glyph glyph-name="agrave" unicode="&#xe0;" horiz-adv-x="492" 
d="M361 0h-29c-6 0 -9 4 -8 10l9 50h-1c-26 -40 -79 -70 -155 -70c-82 0 -131 45 -131 117c0 107 71 163 200 163h116c4 0 7 2 8 6l9 52c15 81 -4 112 -98 112c-53 0 -93 -15 -122 -38c-6 -5 -12 -4 -15 2l-13 22c-3 5 -1 10 3 13c39 30 91 48 158 48
c115 0 157 -42 137 -157l-57 -320c-1 -6 -5 -10 -11 -10zM195 35c79 0 141 46 152 112l13 74c1 4 -1 6 -4 6h-109c-108 0 -151 -44 -151 -114c0 -48 32 -78 99 -78zM322 558h-20c-8 0 -10 3 -15 10l-62 122c-3 5 1 10 7 10h31c8 0 10 -3 13 -10l53 -122c3 -6 -1 -10 -7 -10z
" />
    <glyph glyph-name="aacute" unicode="&#xe1;" horiz-adv-x="492" 
d="M361 0h-29c-6 0 -9 4 -8 10l9 50h-1c-26 -40 -79 -70 -155 -70c-82 0 -131 45 -131 117c0 107 71 163 200 163h116c4 0 7 2 8 6l9 52c15 81 -4 112 -98 112c-53 0 -93 -15 -122 -38c-6 -5 -12 -4 -15 2l-13 22c-3 5 -1 10 3 13c39 30 91 48 158 48
c115 0 157 -42 137 -157l-57 -320c-1 -6 -5 -10 -11 -10zM195 35c79 0 141 46 152 112l13 74c1 4 -1 6 -4 6h-109c-108 0 -151 -44 -151 -114c0 -48 32 -78 99 -78zM313 558h-22c-6 0 -8 4 -3 10l92 122c5 6 11 10 19 10h34c6 0 8 -5 4 -10l-106 -122c-7 -7 -10 -10 -18 -10
z" />
    <glyph glyph-name="acircumflex" unicode="&#xe2;" horiz-adv-x="492" 
d="M361 0h-29c-6 0 -9 4 -8 10l9 50h-1c-26 -40 -79 -70 -155 -70c-82 0 -131 45 -131 117c0 107 71 163 200 163h116c4 0 7 2 8 6l9 52c15 81 -4 112 -98 112c-53 0 -93 -15 -122 -38c-6 -5 -12 -4 -15 2l-13 22c-3 5 -1 10 3 13c39 30 91 48 158 48
c115 0 157 -42 137 -157l-57 -320c-1 -6 -5 -10 -11 -10zM195 35c79 0 141 46 152 112l13 74c1 4 -1 6 -4 6h-109c-108 0 -151 -44 -151 -114c0 -48 32 -78 99 -78zM425 559h-20c-7 0 -10 2 -15 9l-52 91h-2l-86 -91c-7 -7 -11 -9 -19 -9h-22c-5 0 -7 5 -2 10l107 122
c6 7 10 9 17 9h20c6 0 10 -3 13 -9l65 -122c3 -5 1 -10 -4 -10z" />
    <glyph glyph-name="atilde" unicode="&#xe3;" horiz-adv-x="492" 
d="M361 0h-29c-6 0 -9 4 -8 10l9 50h-1c-26 -40 -79 -70 -155 -70c-82 0 -131 45 -131 117c0 107 71 163 200 163h116c4 0 7 2 8 6l9 52c15 81 -4 112 -98 112c-53 0 -93 -15 -122 -38c-6 -5 -12 -4 -15 2l-13 22c-3 5 -1 10 3 13c39 30 91 48 158 48
c115 0 157 -42 137 -157l-57 -320c-1 -6 -5 -10 -11 -10zM195 35c79 0 141 46 152 112l13 74c1 4 -1 6 -4 6h-109c-108 0 -151 -44 -151 -114c0 -48 32 -78 99 -78zM374 598c-23 0 -38 9 -54 21c-15 10 -27 18 -44 18c-22 0 -41 -13 -62 -33c-4 -4 -9 -2 -8 3l5 29
c1 6 3 10 9 16c19 17 41 27 65 27c22 0 38 -8 54 -20c14 -11 27 -18 44 -18c21 0 40 12 61 33c4 4 9 1 8 -3l-4 -30c-2 -6 -3 -9 -10 -15c-19 -18 -41 -28 -64 -28z" />
    <glyph glyph-name="adieresis" unicode="&#xe4;" horiz-adv-x="492" 
d="M361 0h-29c-6 0 -9 4 -8 10l9 50h-1c-26 -40 -79 -70 -155 -70c-82 0 -131 45 -131 117c0 107 71 163 200 163h116c4 0 7 2 8 6l9 52c15 81 -4 112 -98 112c-53 0 -93 -15 -122 -38c-6 -5 -12 -4 -15 2l-13 22c-3 5 -1 10 3 13c39 30 91 48 158 48
c115 0 157 -42 137 -157l-57 -320c-1 -6 -5 -10 -11 -10zM195 35c79 0 141 46 152 112l13 74c1 4 -1 6 -4 6h-109c-108 0 -151 -44 -151 -114c0 -48 32 -78 99 -78zM441 607h-37c-6 0 -9 4 -8 10l9 53c1 6 5 10 11 10h37c6 0 9 -4 8 -10l-9 -53c-1 -6 -5 -10 -11 -10z
M249 607h-37c-6 0 -9 4 -8 10l9 53c1 6 5 10 11 10h37c6 0 9 -4 8 -10l-9 -53c-1 -6 -5 -10 -11 -10z" />
    <glyph glyph-name="amacron" unicode="&#x101;" horiz-adv-x="492" 
d="M361 0h-29c-6 0 -9 4 -8 10l9 50h-1c-26 -40 -79 -70 -155 -70c-82 0 -131 45 -131 117c0 107 71 163 200 163h116c4 0 7 2 8 6l9 52c15 81 -4 112 -98 112c-53 0 -93 -15 -122 -38c-6 -5 -12 -4 -15 2l-13 22c-3 5 -1 10 3 13c39 30 91 48 158 48
c115 0 157 -42 137 -157l-57 -320c-1 -6 -5 -10 -11 -10zM195 35c79 0 141 46 152 112l13 74c1 4 -1 6 -4 6h-109c-108 0 -151 -44 -151 -114c0 -48 32 -78 99 -78zM444 622h-234c-6 0 -9 4 -8 10l4 22c1 7 5 10 11 10h234c6 0 9 -4 8 -10l-4 -22c-1 -7 -5 -10 -11 -10z" />
    <glyph glyph-name="abreve" unicode="&#x103;" horiz-adv-x="492" 
d="M361 0h-29c-6 0 -9 4 -8 10l9 50h-1c-26 -40 -79 -70 -155 -70c-82 0 -131 45 -131 117c0 107 71 163 200 163h116c4 0 7 2 8 6l9 52c15 81 -4 112 -98 112c-53 0 -93 -15 -122 -38c-6 -5 -12 -4 -15 2l-13 22c-3 5 -1 10 3 13c39 30 91 48 158 48
c115 0 157 -42 137 -157l-57 -320c-1 -6 -5 -10 -11 -10zM195 35c79 0 141 46 152 112l13 74c1 4 -1 6 -4 6h-109c-108 0 -151 -44 -151 -114c0 -48 32 -78 99 -78zM318 572c-64 0 -102 41 -101 102c0 6 4 10 10 10h16c7 0 10 -4 11 -10c3 -40 27 -62 70 -62s75 24 93 62
c3 6 6 10 13 10h17c6 0 9 -4 7 -10c-20 -61 -71 -102 -136 -102z" />
    <glyph glyph-name="aring" unicode="&#xe5;" horiz-adv-x="492" 
d="M361 0h-29c-6 0 -9 4 -8 10l9 50h-1c-26 -40 -79 -70 -155 -70c-82 0 -131 45 -131 117c0 107 71 163 200 163h116c4 0 7 2 8 6l9 52c15 81 -4 112 -98 112c-53 0 -93 -15 -122 -38c-6 -5 -12 -4 -15 2l-13 22c-3 5 -1 10 3 13c39 30 91 48 158 48
c115 0 157 -42 137 -157l-57 -320c-1 -6 -5 -10 -11 -10zM195 35c79 0 141 46 152 112l13 74c1 4 -1 6 -4 6h-109c-108 0 -151 -44 -151 -114c0 -48 32 -78 99 -78zM313 542c-41 0 -70 30 -70 71c0 56 42 103 101 103c41 0 70 -30 70 -71c0 -56 -42 -103 -101 -103zM319 572
c35 0 64 30 64 68c0 27 -17 46 -45 46c-35 0 -63 -30 -63 -68c0 -27 16 -46 44 -46z" />
    <glyph glyph-name="aogonek" unicode="&#x105;" horiz-adv-x="492" 
d="M276 -170c-32 0 -56 20 -56 54c0 39 33 78 104 125l9 51h-1c-26 -40 -79 -70 -155 -70c-82 0 -131 45 -131 117c0 107 71 163 200 163h116c4 0 7 2 8 6l9 52c15 81 -4 112 -98 112c-53 0 -93 -15 -122 -38c-6 -5 -12 -4 -15 2l-13 22c-3 5 -1 10 3 13c39 30 91 48 158 48
c115 0 157 -42 137 -157l-57 -320c-1 -5 -3 -8 -7 -10c-79 -53 -99 -79 -99 -104c0 -15 9 -23 24 -23c11 0 19 3 29 9c5 3 10 2 12 -2l6 -20c2 -5 0 -8 -6 -13c-13 -9 -33 -17 -55 -17zM195 35c79 0 141 46 152 112l13 74c1 4 -1 6 -4 6h-109c-108 0 -151 -44 -151 -114
c0 -48 32 -78 99 -78z" />
    <glyph glyph-name="ae" unicode="&#xe6;" horiz-adv-x="778" 
d="M281 440c-53 0 -93 -15 -122 -38c-6 -5 -12 -4 -15 2l-13 22c-3 5 -1 10 3 13c39 30 91 48 158 48c82 0 127 -24 134 -82h1c38 53 94 82 161 82c86 0 148 -54 148 -157c0 -23 -2 -49 -10 -93c-1 -6 -5 -10 -12 -10h-297c-4 0 -7 -2 -8 -6c-5 -26 -7 -44 -7 -66
c0 -75 37 -117 113 -117c59 0 107 28 141 64c5 5 10 5 14 2l17 -19c5 -5 4 -10 -1 -15c-42 -47 -103 -80 -178 -80c-84 0 -127 39 -144 93h-1c-39 -66 -101 -93 -182 -93c-88 0 -135 46 -135 117c0 107 71 163 200 163h116c4 0 7 2 8 6l9 52c15 81 -4 112 -98 112zM423 270
h252c4 0 6 2 7 6c4 18 6 37 6 51c0 76 -38 113 -106 113c-61 0 -112 -33 -142 -92c-9 -20 -16 -46 -21 -72c-1 -4 0 -6 4 -6zM195 35c79 0 141 46 152 112l13 74c1 4 -1 6 -4 6h-109c-108 0 -151 -44 -151 -114c0 -48 32 -78 99 -78z" />
    <glyph glyph-name="cacute" unicode="&#x107;" horiz-adv-x="449" 
d="M300 558h-22c-6 0 -8 4 -3 10l92 122c5 6 11 10 19 10h34c6 0 8 -5 4 -10l-106 -122c-7 -7 -10 -10 -18 -10zM201 -10c-98 0 -150 60 -150 162c0 65 16 150 45 212c39 79 106 123 190 123c71 0 117 -33 138 -92c2 -6 1 -11 -4 -14l-25 -14c-6 -4 -11 -2 -13 4
c-18 47 -48 68 -101 68s-107 -33 -137 -92c-29 -60 -42 -143 -42 -186c0 -78 31 -123 106 -123c47 0 89 19 129 69c4 5 10 6 15 2l20 -18c5 -4 4 -10 0 -15c-43 -55 -101 -86 -171 -86z" />
    <glyph glyph-name="ccircumflex" unicode="&#x109;" horiz-adv-x="449" 
d="M406 559h-20c-7 0 -10 2 -15 9l-52 91h-2l-86 -91c-7 -7 -11 -9 -19 -9h-22c-5 0 -7 5 -2 10l107 122c6 7 10 9 17 9h20c6 0 10 -3 13 -9l65 -122c3 -5 1 -10 -4 -10zM201 -10c-98 0 -150 60 -150 162c0 65 16 150 45 212c39 79 106 123 190 123c71 0 117 -33 138 -92
c2 -6 1 -11 -4 -14l-25 -14c-6 -4 -11 -2 -13 4c-18 47 -48 68 -101 68s-107 -33 -137 -92c-29 -60 -42 -143 -42 -186c0 -78 31 -123 106 -123c47 0 89 19 129 69c4 5 10 6 15 2l20 -18c5 -4 4 -10 0 -15c-43 -55 -101 -86 -171 -86z" />
    <glyph glyph-name="ccaron" unicode="&#x10d;" horiz-adv-x="449" 
d="M306 559h-20c-6 0 -10 2 -13 9l-65 122c-3 5 -1 10 4 10h20c7 0 10 -2 15 -10l52 -90h2l86 90c7 8 11 10 19 10h22c5 0 7 -5 2 -10l-107 -122c-6 -7 -10 -9 -17 -9zM201 -10c-98 0 -150 60 -150 162c0 65 16 150 45 212c39 79 106 123 190 123c71 0 117 -33 138 -92
c2 -6 1 -11 -4 -14l-25 -14c-6 -4 -11 -2 -13 4c-18 47 -48 68 -101 68s-107 -33 -137 -92c-29 -60 -42 -143 -42 -186c0 -78 31 -123 106 -123c47 0 89 19 129 69c4 5 10 6 15 2l20 -18c5 -4 4 -10 0 -15c-43 -55 -101 -86 -171 -86z" />
    <glyph glyph-name="cdotaccent" unicode="&#x10b;" horiz-adv-x="449" 
d="M201 -10c-98 0 -150 60 -150 162c0 65 16 150 45 212c39 79 106 123 190 123c71 0 117 -33 138 -92c2 -6 1 -11 -4 -14l-25 -14c-6 -4 -11 -2 -13 4c-18 47 -48 68 -101 68s-107 -33 -137 -92c-29 -60 -42 -143 -42 -186c0 -78 31 -123 106 -123c47 0 89 19 129 69
c4 5 10 6 15 2l20 -18c5 -4 4 -10 0 -15c-43 -55 -101 -86 -171 -86zM320 607h-42c-6 0 -9 4 -8 10l10 53c1 6 5 10 11 10h41c6 0 9 -4 8 -10l-9 -53c-1 -6 -5 -10 -11 -10z" />
    <glyph glyph-name="ccedilla" unicode="&#xe7;" horiz-adv-x="449" 
d="M131 -147h-27c-6 0 -9 4 -6 10l72 130c-78 11 -119 68 -119 159c0 65 16 150 45 212c39 79 106 123 190 123c71 0 117 -33 138 -92c2 -6 1 -11 -4 -14l-25 -14c-6 -4 -11 -2 -13 4c-18 47 -48 68 -101 68s-107 -33 -137 -92c-29 -60 -42 -143 -42 -186
c0 -78 31 -123 106 -123c47 0 89 19 129 69c4 5 10 6 15 2l20 -18c5 -4 4 -10 0 -15c-41 -52 -95 -83 -160 -86l-64 -127c-4 -8 -9 -10 -17 -10z" />
    <glyph glyph-name="dcaron" unicode="&#x10f;" horiz-adv-x="509" 
d="M543 538c-5 0 -8 4 -7 10l21 122c1 6 5 10 11 10h36c6 0 9 -4 8 -10l-8 -46c-2 -9 -3 -14 -8 -21l-40 -57c-4 -5 -8 -8 -13 -8zM372 0h-32c-6 0 -9 4 -8 10l10 57h-1c-30 -43 -78 -77 -151 -77c-92 0 -139 59 -139 155c0 76 26 183 49 230c37 76 94 112 174 112
c71 0 111 -37 127 -81h1l46 264c1 6 5 10 11 10h31c6 0 10 -4 9 -10l-116 -660c-1 -6 -5 -10 -11 -10zM206 38c56 0 106 28 138 92c15 30 39 145 39 198c0 66 -36 111 -106 111c-61 0 -105 -32 -133 -88c-25 -50 -42 -143 -42 -198c0 -69 28 -115 104 -115z" />
    <glyph glyph-name="dcroat" unicode="&#x111;" horiz-adv-x="509" 
d="M371 0h-31c-6 0 -9 4 -8 10l10 57h-1c-30 -43 -78 -77 -152 -77c-91 0 -139 59 -139 155c0 76 26 183 49 230c37 76 94 112 175 112c71 0 111 -37 127 -81h1l27 153c1 4 -1 6 -5 6h-126c-6 0 -9 4 -8 10l4 24c1 6 6 9 12 9h125c4 0 6 2 7 6l10 56c1 6 4 10 10 10h32
c6 0 9 -4 8 -10l-10 -56c-1 -4 1 -6 5 -6h29c6 0 10 -4 9 -10l-5 -24c-1 -6 -6 -9 -12 -9h-28c-3 0 -6 -2 -7 -6l-97 -549c-1 -6 -5 -10 -11 -10zM206 38c56 0 106 28 138 92c15 30 39 145 39 198c0 66 -36 111 -106 111c-61 0 -105 -32 -133 -88c-25 -50 -42 -143 -42 -198
c0 -69 27 -115 104 -115z" />
    <glyph glyph-name="eth" unicode="&#xf0;" horiz-adv-x="486" 
d="M423 596l-81 -24l28 -46c49 -83 71 -143 71 -213c0 -68 -22 -155 -45 -205c-40 -81 -107 -118 -191 -118c-103 0 -153 62 -153 163c0 70 22 157 45 205c38 79 100 118 179 118c38 0 64 -11 80 -24h1l-62 106l-98 -29c-7 -2 -11 0 -12 6l-2 22c0 5 2 10 9 12l82 24l-45 77
c-3 5 -1 10 5 10h35c8 0 12 -3 16 -10l36 -62l97 29c7 2 11 -1 12 -7l2 -21c1 -6 -2 -11 -9 -13zM213 38c60 0 107 29 138 91c18 36 39 119 39 178c0 78 -34 122 -109 122c-60 0 -108 -30 -139 -91c-18 -36 -39 -119 -39 -178c0 -78 33 -122 110 -122z" />
    <glyph glyph-name="egrave" unicode="&#xe8;" horiz-adv-x="476" 
d="M206 -10c-101 0 -155 59 -155 159c0 69 14 155 44 215c38 79 104 123 191 123c86 0 148 -54 148 -157c0 -23 -2 -49 -10 -93c-1 -6 -5 -10 -12 -10h-299c-4 0 -6 -2 -7 -6c-6 -26 -6 -44 -6 -66c0 -75 37 -117 113 -117c59 0 107 28 141 64c5 5 10 5 14 2l17 -19
c4 -5 4 -10 -1 -15c-42 -47 -103 -80 -178 -80zM121 270h252c4 0 6 2 7 6c4 18 6 37 6 51c0 76 -38 113 -106 113c-60 0 -110 -31 -139 -90c-10 -20 -19 -48 -24 -74c-1 -4 0 -6 4 -6zM303 558h-20c-8 0 -10 3 -15 10l-62 122c-3 5 1 10 7 10h31c8 0 10 -3 13 -10l53 -122
c3 -6 -1 -10 -7 -10z" />
    <glyph glyph-name="eacute" unicode="&#xe9;" horiz-adv-x="476" 
d="M291 558h-22c-6 0 -8 4 -3 10l92 122c5 6 11 10 19 10h34c6 0 8 -5 4 -10l-106 -122c-7 -7 -10 -10 -18 -10zM206 -10c-101 0 -155 59 -155 159c0 69 14 155 44 215c38 79 104 123 191 123c86 0 148 -54 148 -157c0 -23 -2 -49 -10 -93c-1 -6 -5 -10 -12 -10h-299
c-4 0 -6 -2 -7 -6c-6 -26 -6 -44 -6 -66c0 -75 37 -117 113 -117c59 0 107 28 141 64c5 5 10 5 14 2l17 -19c4 -5 4 -10 -1 -15c-42 -47 -103 -80 -178 -80zM121 270h252c4 0 6 2 7 6c4 18 6 37 6 51c0 76 -38 113 -106 113c-60 0 -110 -31 -139 -90
c-10 -20 -19 -48 -24 -74c-1 -4 0 -6 4 -6z" />
    <glyph glyph-name="ecircumflex" unicode="&#xea;" horiz-adv-x="476" 
d="M404 559h-20c-7 0 -10 2 -15 9l-52 91h-2l-86 -91c-7 -7 -11 -9 -19 -9h-22c-5 0 -7 5 -2 10l107 122c6 7 10 9 17 9h20c6 0 10 -3 13 -9l65 -122c3 -5 1 -10 -4 -10zM206 -10c-101 0 -155 59 -155 159c0 69 14 155 44 215c38 79 104 123 191 123c86 0 148 -54 148 -157
c0 -23 -2 -49 -10 -93c-1 -6 -5 -10 -12 -10h-299c-4 0 -6 -2 -7 -6c-6 -26 -6 -44 -6 -66c0 -75 37 -117 113 -117c59 0 107 28 141 64c5 5 10 5 14 2l17 -19c4 -5 4 -10 -1 -15c-42 -47 -103 -80 -178 -80zM121 270h252c4 0 6 2 7 6c4 18 6 37 6 51c0 76 -38 113 -106 113
c-60 0 -110 -31 -139 -90c-10 -20 -19 -48 -24 -74c-1 -4 0 -6 4 -6z" />
    <glyph glyph-name="ecaron" unicode="&#x11b;" horiz-adv-x="476" 
d="M307 559h-20c-6 0 -10 2 -13 9l-65 122c-3 5 -1 10 4 10h20c7 0 10 -2 15 -10l52 -90h2l86 90c7 8 11 10 19 10h22c5 0 7 -5 2 -10l-107 -122c-6 -7 -10 -9 -17 -9zM206 -10c-101 0 -155 59 -155 159c0 69 14 155 44 215c38 79 104 123 191 123c86 0 148 -54 148 -157
c0 -23 -2 -49 -10 -93c-1 -6 -5 -10 -12 -10h-299c-4 0 -6 -2 -7 -6c-6 -26 -6 -44 -6 -66c0 -75 37 -117 113 -117c59 0 107 28 141 64c5 5 10 5 14 2l17 -19c4 -5 4 -10 -1 -15c-42 -47 -103 -80 -178 -80zM121 270h252c4 0 6 2 7 6c4 18 6 37 6 51c0 76 -38 113 -106 113
c-60 0 -110 -31 -139 -90c-10 -20 -19 -48 -24 -74c-1 -4 0 -6 4 -6z" />
    <glyph glyph-name="edieresis" unicode="&#xeb;" horiz-adv-x="476" 
d="M421 607h-37c-6 0 -9 4 -8 10l9 53c1 6 5 10 11 10h37c6 0 9 -4 8 -10l-9 -53c-1 -6 -5 -10 -11 -10zM229 607h-37c-6 0 -9 4 -8 10l9 53c1 6 5 10 11 10h37c6 0 9 -4 8 -10l-9 -53c-1 -6 -5 -10 -11 -10zM206 -10c-101 0 -155 59 -155 159c0 69 14 155 44 215
c38 79 104 123 191 123c86 0 148 -54 148 -157c0 -23 -2 -49 -10 -93c-1 -6 -5 -10 -12 -10h-299c-4 0 -6 -2 -7 -6c-6 -26 -6 -44 -6 -66c0 -75 37 -117 113 -117c59 0 107 28 141 64c5 5 10 5 14 2l17 -19c4 -5 4 -10 -1 -15c-42 -47 -103 -80 -178 -80zM121 270h252
c4 0 6 2 7 6c4 18 6 37 6 51c0 76 -38 113 -106 113c-60 0 -110 -31 -139 -90c-10 -20 -19 -48 -24 -74c-1 -4 0 -6 4 -6z" />
    <glyph glyph-name="emacron" unicode="&#x113;" horiz-adv-x="476" 
d="M206 -10c-101 0 -155 59 -155 159c0 69 14 155 44 215c38 79 104 123 191 123c86 0 148 -54 148 -157c0 -23 -2 -49 -10 -93c-1 -6 -5 -10 -12 -10h-299c-4 0 -6 -2 -7 -6c-6 -26 -6 -44 -6 -66c0 -75 37 -117 113 -117c59 0 107 28 141 64c5 5 10 5 14 2l17 -19
c4 -5 4 -10 -1 -15c-42 -47 -103 -80 -178 -80zM121 270h252c4 0 6 2 7 6c4 18 6 37 6 51c0 76 -38 113 -106 113c-60 0 -110 -31 -139 -90c-10 -20 -19 -48 -24 -74c-1 -4 0 -6 4 -6zM425 622h-234c-6 0 -9 4 -8 10l4 22c1 7 5 10 11 10h234c6 0 9 -4 8 -10l-4 -22
c-1 -7 -5 -10 -11 -10z" />
    <glyph glyph-name="ebreve" unicode="&#x115;" horiz-adv-x="476" 
d="M206 -10c-101 0 -155 59 -155 159c0 69 14 155 44 215c38 79 104 123 191 123c86 0 148 -54 148 -157c0 -23 -2 -49 -10 -93c-1 -6 -5 -10 -12 -10h-299c-4 0 -6 -2 -7 -6c-6 -26 -6 -44 -6 -66c0 -75 37 -117 113 -117c59 0 107 28 141 64c5 5 10 5 14 2l17 -19
c4 -5 4 -10 -1 -15c-42 -47 -103 -80 -178 -80zM121 270h252c4 0 6 2 7 6c4 18 6 37 6 51c0 76 -38 113 -106 113c-60 0 -110 -31 -139 -90c-10 -20 -19 -48 -24 -74c-1 -4 0 -6 4 -6zM300 572c-64 0 -102 41 -101 102c0 6 4 10 10 10h16c7 0 10 -4 11 -10
c3 -40 27 -62 70 -62s75 24 93 62c3 6 6 10 13 10h17c6 0 9 -4 7 -10c-20 -61 -71 -102 -136 -102z" />
    <glyph glyph-name="edotaccent" unicode="&#x117;" horiz-adv-x="476" 
d="M206 -10c-101 0 -155 59 -155 159c0 69 14 155 44 215c38 79 104 123 191 123c86 0 148 -54 148 -157c0 -23 -2 -49 -10 -93c-1 -6 -5 -10 -12 -10h-299c-4 0 -6 -2 -7 -6c-6 -26 -6 -44 -6 -66c0 -75 37 -117 113 -117c59 0 107 28 141 64c5 5 10 5 14 2l17 -19
c4 -5 4 -10 -1 -15c-42 -47 -103 -80 -178 -80zM121 270h252c4 0 6 2 7 6c4 18 6 37 6 51c0 76 -38 113 -106 113c-60 0 -110 -31 -139 -90c-10 -20 -19 -48 -24 -74c-1 -4 0 -6 4 -6zM327 607h-42c-6 0 -9 4 -8 10l10 53c1 6 5 10 11 10h41c6 0 9 -4 8 -10l-9 -53
c-1 -6 -5 -10 -11 -10z" />
    <glyph glyph-name="eogonek" unicode="&#x119;" horiz-adv-x="476" 
d="M247 -170c-33 0 -56 20 -56 54c0 31 25 73 68 113c-16 -5 -34 -7 -53 -7c-101 0 -155 59 -155 159c0 69 14 155 44 215c38 79 104 123 191 123c86 0 148 -54 148 -157c0 -23 -2 -49 -10 -93c-1 -6 -5 -10 -12 -10h-299c-4 0 -6 -2 -7 -6c-6 -26 -6 -44 -6 -66
c0 -75 37 -117 113 -117c59 0 107 28 141 64c5 5 10 5 14 2l17 -19c4 -5 4 -10 -1 -15c-15 -16 -29 -29 -46 -40c-77 -70 -101 -110 -101 -134c0 -15 9 -23 24 -23c11 0 18 3 29 9c5 3 9 2 11 -2l7 -20c2 -5 0 -8 -6 -13c-13 -9 -33 -17 -55 -17zM121 270h252c4 0 6 2 7 6
c4 18 6 37 6 51c0 76 -38 113 -106 113c-60 0 -110 -31 -139 -90c-10 -20 -19 -48 -24 -74c-1 -4 0 -6 4 -6z" />
    <glyph glyph-name="gcircumflex" unicode="&#x11d;" horiz-adv-x="501" 
d="M420 559h-20c-7 0 -10 2 -15 9l-52 91h-2l-86 -91c-7 -7 -11 -9 -19 -9h-22c-5 0 -7 5 -2 10l107 122c6 7 10 9 17 9h20c6 0 10 -3 13 -9l65 -122c3 -5 1 -10 -4 -10zM164 -190c-60 0 -113 26 -140 73c-4 6 -2 12 3 15l23 18c6 3 10 3 14 -3c24 -34 57 -55 106 -55
c81 0 137 46 155 152l11 63h-1c-30 -48 -76 -76 -146 -76c-90 0 -137 59 -137 150c0 60 17 163 48 226c37 76 94 114 172 114c69 0 108 -36 122 -81h1l10 61c1 6 6 10 12 10h30c6 0 9 -4 8 -10l-80 -456c-27 -148 -99 -201 -211 -201zM206 45c50 0 98 25 128 85
c23 44 42 152 42 198c0 65 -34 111 -102 111c-57 0 -100 -30 -128 -87c-28 -56 -43 -135 -43 -196c0 -67 31 -111 103 -111z" />
    <glyph glyph-name="gbreve" unicode="&#x11f;" horiz-adv-x="501" 
d="M164 -190c-60 0 -113 26 -140 73c-4 6 -2 12 3 15l23 18c6 3 10 3 14 -3c24 -34 57 -55 106 -55c81 0 137 46 155 152l11 63h-1c-30 -48 -76 -76 -146 -76c-90 0 -137 59 -137 150c0 60 17 163 48 226c37 76 94 114 172 114c69 0 108 -36 122 -81h1l10 61c1 6 6 10 12 10
h30c6 0 9 -4 8 -10l-80 -456c-27 -148 -99 -201 -211 -201zM206 45c50 0 98 25 128 85c23 44 42 152 42 198c0 65 -34 111 -102 111c-57 0 -100 -30 -128 -87c-28 -56 -43 -135 -43 -196c0 -67 31 -111 103 -111zM314 572c-64 0 -102 41 -101 102c0 6 4 10 10 10h16
c7 0 10 -4 11 -10c3 -40 27 -62 70 -62s75 24 93 62c3 6 6 10 13 10h17c6 0 9 -4 7 -10c-20 -61 -71 -102 -136 -102z" />
    <glyph glyph-name="gdotaccent" unicode="&#x121;" horiz-adv-x="501" 
d="M164 -190c-60 0 -113 26 -140 73c-4 6 -2 12 3 15l23 18c6 3 10 3 14 -3c24 -34 57 -55 106 -55c81 0 137 46 155 152l11 63h-1c-30 -48 -76 -76 -146 -76c-90 0 -137 59 -137 150c0 60 17 163 48 226c37 76 94 114 172 114c69 0 108 -36 122 -81h1l10 61c1 6 6 10 12 10
h30c6 0 9 -4 8 -10l-80 -456c-27 -148 -99 -201 -211 -201zM206 45c50 0 98 25 128 85c23 44 42 152 42 198c0 65 -34 111 -102 111c-57 0 -100 -30 -128 -87c-28 -56 -43 -135 -43 -196c0 -67 31 -111 103 -111zM341 607h-42c-6 0 -9 4 -8 10l10 53c1 6 5 10 11 10h41
c6 0 9 -4 8 -10l-9 -53c-1 -6 -5 -10 -11 -10z" />
    <glyph glyph-name="gcommaaccent" unicode="&#x123;" horiz-adv-x="501" 
d="M331 573h-36c-6 0 -9 4 -8 10l8 45c2 9 3 13 8 21l41 56c4 6 7 8 12 8s8 -3 7 -9l-21 -121c-1 -6 -5 -10 -11 -10zM164 -190c-60 0 -113 26 -140 73c-4 6 -2 12 3 15l23 18c6 3 10 3 14 -3c24 -34 57 -55 106 -55c81 0 137 46 155 152l11 63h-1c-30 -48 -76 -76 -146 -76
c-90 0 -137 59 -137 150c0 60 17 163 48 226c37 76 94 114 172 114c69 0 108 -36 122 -81h1l10 61c1 6 6 10 12 10h30c6 0 9 -4 8 -10l-80 -456c-27 -148 -99 -201 -211 -201zM206 45c50 0 98 25 128 85c23 44 42 152 42 198c0 65 -34 111 -102 111c-57 0 -100 -30 -128 -87
c-28 -56 -43 -135 -43 -196c0 -67 31 -111 103 -111z" />
    <glyph glyph-name="hcircumflex" unicode="&#x125;" horiz-adv-x="519" 
d="M387 0h-32c-5 0 -8 4 -7 10l51 282c17 100 -14 147 -95 147c-66 0 -135 -53 -150 -135l-52 -294c-1 -6 -4 -10 -10 -10h-33c-5 0 -8 4 -7 10l116 660c1 6 5 10 11 10h32c6 0 9 -4 8 -10l-46 -258h1c32 46 86 75 149 75c102 0 149 -66 129 -182l-54 -295
c-1 -6 -5 -10 -11 -10zM467 755h-19c-8 0 -11 2 -16 9l-52 91h-2l-86 -91c-6 -7 -11 -9 -18 -9h-23c-5 0 -7 5 -2 10l107 122c6 7 11 9 17 9h20c7 0 10 -3 13 -9l65 -122c3 -5 1 -10 -4 -10z" />
    <glyph glyph-name="hbar" unicode="&#x127;" horiz-adv-x="519" 
d="M387 0h-32c-5 0 -8 4 -7 10l51 282c17 100 -14 147 -95 147c-66 0 -135 -53 -150 -135l-52 -294c-1 -6 -4 -10 -10 -10h-33c-5 0 -8 4 -7 10l97 549c1 4 -1 6 -5 6h-29c-6 0 -10 4 -9 10l5 24c1 6 6 9 12 9h28c4 0 6 2 7 6l10 56c1 6 5 10 11 10h32c6 0 9 -4 8 -10
l-11 -56c-1 -4 1 -6 5 -6h126c6 0 9 -4 8 -10l-4 -24c-1 -6 -6 -9 -12 -9h-125c-4 0 -6 -2 -7 -6l-26 -147h1c32 46 86 75 149 75c102 0 149 -66 129 -182l-54 -295c-1 -6 -5 -10 -11 -10z" />
    <glyph glyph-name="dotlessi" unicode="&#x131;" horiz-adv-x="228" 
d="M92 0h-32c-6 0 -9 4 -8 10l80 457c1 6 5 10 11 10h32c6 0 9 -4 8 -10l-81 -457c-1 -6 -4 -10 -10 -10z" />
    <glyph glyph-name="igrave" unicode="&#xec;" horiz-adv-x="228" 
d="M92 0h-32c-6 0 -9 4 -8 10l80 457c1 6 5 10 11 10h32c6 0 9 -4 8 -10l-81 -457c-1 -6 -4 -10 -10 -10zM177 558h-20c-8 0 -10 3 -15 10l-62 122c-3 5 1 10 7 10h31c8 0 10 -3 13 -10l53 -122c3 -6 -1 -10 -7 -10z" />
    <glyph glyph-name="iacute" unicode="&#xed;" horiz-adv-x="228" 
d="M176 558h-22c-6 0 -8 4 -3 10l92 122c5 6 11 10 19 10h34c6 0 8 -5 4 -10l-106 -122c-7 -7 -10 -10 -18 -10zM92 0h-32c-6 0 -9 4 -8 10l80 457c1 6 5 10 11 10h32c6 0 9 -4 8 -10l-81 -457c-1 -6 -4 -10 -10 -10z" />
    <glyph glyph-name="icircumflex" unicode="&#xee;" horiz-adv-x="228" 
d="M282 559h-20c-7 0 -10 2 -15 9l-52 91h-2l-86 -91c-7 -7 -11 -9 -19 -9h-22c-5 0 -7 5 -2 10l107 122c6 7 10 9 17 9h20c6 0 10 -3 13 -9l65 -122c3 -5 1 -10 -4 -10zM92 0h-32c-6 0 -9 4 -8 10l80 457c1 6 5 10 11 10h32c6 0 9 -4 8 -10l-81 -457c-1 -6 -4 -10 -10 -10z
" />
    <glyph glyph-name="itilde" unicode="&#x129;" horiz-adv-x="228" 
d="M92 0h-32c-6 0 -9 4 -8 10l80 457c1 6 5 10 11 10h32c6 0 9 -4 8 -10l-81 -457c-1 -6 -4 -10 -10 -10zM222 598c-23 0 -38 9 -54 21c-15 10 -27 18 -44 18c-22 0 -41 -13 -62 -33c-4 -4 -9 -2 -8 3l5 29c1 6 3 10 9 16c19 17 41 27 65 27c22 0 38 -8 54 -20
c14 -11 27 -18 44 -18c21 0 40 12 61 33c4 4 9 1 8 -3l-4 -30c-2 -6 -3 -9 -10 -15c-19 -18 -41 -28 -64 -28z" />
    <glyph glyph-name="idieresis" unicode="&#xef;" horiz-adv-x="228" 
d="M295 607h-37c-6 0 -9 4 -8 10l9 53c1 6 5 10 11 10h37c6 0 9 -4 8 -10l-9 -53c-1 -6 -5 -10 -11 -10zM103 607h-37c-6 0 -9 4 -8 10l9 53c1 6 5 10 11 10h37c6 0 9 -4 8 -10l-9 -53c-1 -6 -5 -10 -11 -10zM92 0h-32c-6 0 -9 4 -8 10l80 457c1 6 5 10 11 10h32
c6 0 9 -4 8 -10l-81 -457c-1 -6 -4 -10 -10 -10z" />
    <glyph glyph-name="imacron" unicode="&#x12b;" horiz-adv-x="228" 
d="M92 0h-32c-6 0 -9 4 -8 10l80 457c1 6 5 10 11 10h32c6 0 9 -4 8 -10l-81 -457c-1 -6 -4 -10 -10 -10zM292 622h-234c-6 0 -9 4 -8 10l4 22c1 7 5 10 11 10h234c6 0 9 -4 8 -10l-4 -22c-1 -7 -5 -10 -11 -10z" />
    <glyph glyph-name="ibreve" unicode="&#x12d;" horiz-adv-x="228" 
d="M92 0h-32c-6 0 -9 4 -8 10l80 457c1 6 5 10 11 10h32c6 0 9 -4 8 -10l-81 -457c-1 -6 -4 -10 -10 -10zM176 572c-64 0 -102 41 -101 102c0 6 4 10 10 10h16c7 0 10 -4 11 -10c3 -40 27 -62 70 -62s75 24 93 62c3 6 6 10 13 10h17c6 0 9 -4 7 -10
c-20 -61 -71 -102 -136 -102z" />
    <glyph glyph-name="iogonek" unicode="&#x12f;" horiz-adv-x="228" 
d="M203 607h-41c-6 0 -9 4 -8 10l10 53c1 6 5 10 11 10h41c6 0 9 -4 8 -10l-10 -53c-1 -7 -5 -10 -11 -10zM28 -170c-33 0 -56 20 -56 54c0 35 21 68 81 121c-1 1 -1 3 -1 4l80 458c1 6 5 10 11 10h32c6 0 9 -4 8 -10l-81 -457c-1 -4 -2 -6 -5 -9c-65 -58 -80 -83 -80 -105
c0 -15 9 -23 24 -23c11 0 19 3 30 9c4 3 9 2 11 -2l6 -20c2 -5 0 -8 -5 -13c-13 -9 -33 -17 -55 -17z" />
    <glyph glyph-name="dotlessj" unicode="&#x237;" horiz-adv-x="228" 
d="M-48 -180h-10c-6 0 -9 4 -8 10l4 28c1 7 6 10 12 10h8c52 0 71 15 82 76l92 523c1 6 5 10 11 10h32c6 0 9 -4 8 -10l-92 -523c-17 -98 -51 -124 -139 -124z" />
    <glyph glyph-name="jcircumflex" unicode="&#x135;" horiz-adv-x="228" 
d="M-48 -180h-10c-6 0 -9 4 -8 10l4 28c1 7 6 10 12 10h8c52 0 71 15 82 76l92 523c1 6 5 10 11 10h32c6 0 9 -4 8 -10l-92 -523c-17 -98 -51 -124 -139 -124zM279 559h-20c-7 0 -10 2 -15 9l-52 91h-2l-86 -91c-7 -7 -11 -9 -19 -9h-22c-5 0 -7 5 -2 10l107 122
c6 7 10 9 17 9h20c6 0 10 -3 13 -9l65 -122c3 -5 1 -10 -4 -10z" />
    <glyph glyph-name="kcommaaccent" unicode="&#x137;" horiz-adv-x="480" 
d="M179 -196c-6 0 -9 4 -8 10l21 121c1 6 6 10 12 10h35c6 0 9 -4 8 -10l-7 -45c-2 -10 -4 -13 -9 -22l-40 -56c-4 -5 -7 -8 -12 -8zM395 0h-32c-7 0 -10 2 -14 10l-103 253l-121 -125l-23 -128c-1 -6 -5 -10 -11 -10h-32c-5 0 -8 4 -7 10l116 660c1 6 5 10 11 10h32
c6 0 9 -4 8 -10l-81 -454l249 251c7 7 11 10 18 10h41c6 0 8 -6 3 -10l-165 -168l119 -289c2 -5 -2 -10 -8 -10z" />
    <glyph glyph-name="kgreenlandic" unicode="&#x138;" horiz-adv-x="480" 
d="M395 0h-32c-7 0 -10 2 -14 10l-103 253l-121 -125l-23 -128c-1 -6 -5 -10 -11 -10h-32c-5 0 -8 4 -7 10l80 457c1 6 5 10 11 10h32c6 0 9 -4 8 -10l-45 -251l249 251c7 7 11 10 18 10h41c6 0 8 -6 3 -10l-165 -168l119 -289c2 -5 -2 -10 -8 -10z" />
    <glyph glyph-name="lacute" unicode="&#x13a;" horiz-adv-x="250" 
d="M224 764h-24c-6 0 -7 5 -2 11l94 103c7 7 11 10 19 10h36c6 0 8 -5 3 -10l-107 -104c-8 -8 -12 -10 -19 -10zM164 -3h-22c-67 0 -87 34 -74 109l103 564c1 6 5 10 10 10h32c6 0 9 -4 8 -10l-103 -563c-8 -47 2 -62 38 -62h16c6 0 9 -4 8 -10l-4 -28c-1 -7 -6 -10 -12 -10
z" />
    <glyph glyph-name="lcaron" unicode="&#x13e;" horiz-adv-x="250" 
d="M265 538c-5 0 -8 4 -7 10l21 122c1 6 5 10 11 10h36c6 0 9 -4 8 -10l-8 -46c-2 -9 -3 -14 -8 -21l-40 -57c-4 -5 -8 -8 -13 -8zM164 -3h-22c-67 0 -87 34 -74 109l103 564c1 6 5 10 10 10h32c6 0 9 -4 8 -10l-103 -563c-8 -47 2 -62 38 -62h16c6 0 9 -4 8 -10l-4 -28
c-1 -7 -6 -10 -12 -10z" />
    <glyph glyph-name="lcommaaccent" unicode="&#x13c;" horiz-adv-x="250" 
d="M58 -196c-6 0 -9 4 -8 10l21 121c1 6 6 10 12 10h35c6 0 9 -4 8 -10l-7 -45c-2 -10 -4 -13 -9 -22l-40 -56c-4 -5 -7 -8 -12 -8zM164 -3h-22c-67 0 -87 34 -74 109l103 564c1 6 5 10 10 10h32c6 0 9 -4 8 -10l-103 -563c-8 -47 2 -62 38 -62h16c6 0 9 -4 8 -10l-4 -28
c-1 -7 -6 -10 -12 -10z" />
    <glyph glyph-name="lslash" unicode="&#x142;" horiz-adv-x="250" 
d="M164 -3h-22c-67 0 -87 34 -74 109l40 219l-41 -20c-6 -3 -11 0 -10 6l4 28c1 7 4 11 13 15l43 21l54 295c1 6 5 10 10 10h32c6 0 9 -4 8 -10l-49 -268l59 29c7 3 11 0 10 -6l-4 -28c-1 -6 -4 -11 -12 -15l-62 -31l-45 -244c-8 -47 2 -62 38 -62h16c6 0 9 -4 8 -10l-4 -28
c-1 -7 -6 -10 -12 -10z" />
    <glyph glyph-name="ldot" unicode="&#x140;" horiz-adv-x="267" 
d="M164 -3h-22c-67 0 -87 34 -74 109l103 564c1 6 5 10 10 10h32c6 0 9 -4 8 -10l-103 -563c-8 -47 2 -62 38 -62h16c6 0 9 -4 8 -10l-4 -28c-1 -7 -6 -10 -12 -10zM283 287h-46c-6 0 -9 4 -8 10l11 65c1 6 5 10 11 10h45c6 0 9 -4 8 -10l-10 -65c-1 -6 -5 -10 -11 -10z" />
    <glyph glyph-name="nacute" unicode="&#x144;" horiz-adv-x="519" 
d="M303 558h-22c-6 0 -8 4 -3 10l92 122c5 6 11 10 19 10h34c6 0 8 -5 4 -10l-106 -122c-7 -7 -10 -10 -18 -10zM387 0h-32c-5 0 -8 4 -7 10l51 282c17 100 -14 147 -95 147c-66 0 -135 -53 -150 -135l-52 -294c-1 -6 -4 -10 -10 -10h-33c-5 0 -8 4 -7 10l80 457
c1 6 5 10 11 10h32c6 0 9 -4 8 -10l-10 -55h1c32 46 86 75 149 75c102 0 149 -66 129 -182l-54 -295c-1 -6 -5 -10 -11 -10z" />
    <glyph glyph-name="ncaron" unicode="&#x148;" horiz-adv-x="519" 
d="M326 559h-20c-6 0 -10 2 -13 9l-65 122c-3 5 -1 10 4 10h20c7 0 10 -2 15 -10l52 -90h2l86 90c7 8 11 10 19 10h22c5 0 7 -5 2 -10l-107 -122c-6 -7 -10 -9 -17 -9zM387 0h-32c-5 0 -8 4 -7 10l51 282c17 100 -14 147 -95 147c-66 0 -135 -53 -150 -135l-52 -294
c-1 -6 -4 -10 -10 -10h-33c-5 0 -8 4 -7 10l80 457c1 6 5 10 11 10h32c6 0 9 -4 8 -10l-10 -55h1c32 46 86 75 149 75c102 0 149 -66 129 -182l-54 -295c-1 -6 -5 -10 -11 -10z" />
    <glyph glyph-name="ntilde" unicode="&#xf1;" horiz-adv-x="519" 
d="M387 0h-32c-5 0 -8 4 -7 10l51 282c17 100 -14 147 -95 147c-66 0 -135 -53 -150 -135l-52 -294c-1 -6 -4 -10 -10 -10h-33c-5 0 -8 4 -7 10l80 457c1 6 5 10 11 10h32c6 0 9 -4 8 -10l-10 -55h1c32 46 86 75 149 75c102 0 149 -66 129 -182l-54 -295
c-1 -6 -5 -10 -11 -10zM368 598c-23 0 -38 9 -54 21c-15 10 -27 18 -44 18c-22 0 -41 -13 -62 -33c-4 -4 -9 -2 -8 3l5 29c1 6 3 10 9 16c19 17 41 27 65 27c22 0 38 -8 54 -20c14 -11 27 -18 44 -18c21 0 40 12 61 33c4 4 9 1 8 -3l-4 -30c-2 -6 -3 -9 -10 -15
c-19 -18 -41 -28 -64 -28z" />
    <glyph glyph-name="ncommaaccent" unicode="&#x146;" horiz-adv-x="519" 
d="M182 -196c-6 0 -9 4 -8 10l21 121c1 6 6 10 12 10h35c6 0 9 -4 8 -10l-7 -45c-2 -10 -4 -13 -9 -22l-40 -56c-4 -5 -7 -8 -12 -8zM387 0h-32c-5 0 -8 4 -7 10l51 282c17 100 -14 147 -95 147c-66 0 -135 -53 -150 -135l-52 -294c-1 -6 -4 -10 -10 -10h-33
c-5 0 -8 4 -7 10l80 457c1 6 5 10 11 10h32c6 0 9 -4 8 -10l-10 -55h1c32 46 86 75 149 75c102 0 149 -66 129 -182l-54 -295c-1 -6 -5 -10 -11 -10z" />
    <glyph glyph-name="eng" unicode="&#x14b;" horiz-adv-x="519" 
d="M248 -180h-9c-6 0 -9 4 -8 10l4 28c1 7 6 10 12 10h8c51 0 71 14 82 74l62 350c18 98 -14 147 -95 147c-70 0 -136 -56 -150 -135l-52 -294c-1 -6 -4 -10 -10 -10h-32c-6 0 -9 4 -8 10l80 457c1 6 5 10 11 10h32c6 0 9 -4 8 -10l-10 -55h1c31 44 83 75 149 75
c101 0 149 -65 129 -182l-65 -362c-16 -92 -54 -123 -139 -123z" />
    <glyph glyph-name="ograve" unicode="&#xf2;" horiz-adv-x="486" 
d="M98 369c39 82 105 118 191 118c101 0 153 -63 153 -161c0 -70 -24 -171 -47 -218c-39 -82 -105 -118 -191 -118c-101 0 -153 63 -153 161c0 70 24 171 47 218zM391 316c0 79 -32 123 -110 123c-61 0 -108 -30 -138 -91c-18 -36 -41 -132 -41 -187c0 -79 32 -123 110 -123
c61 0 108 30 138 91c18 36 41 132 41 187zM311 558h-20c-8 0 -10 3 -15 10l-62 122c-3 5 1 10 7 10h31c8 0 10 -3 13 -10l53 -122c3 -6 -1 -10 -7 -10z" />
    <glyph glyph-name="oacute" unicode="&#xf3;" horiz-adv-x="486" 
d="M308 558h-22c-6 0 -8 4 -3 10l92 122c5 6 11 10 19 10h34c6 0 8 -5 4 -10l-106 -122c-7 -7 -10 -10 -18 -10zM98 369c39 82 105 118 191 118c101 0 153 -63 153 -161c0 -70 -24 -171 -47 -218c-39 -82 -105 -118 -191 -118c-101 0 -153 63 -153 161c0 70 24 171 47 218z
M391 316c0 79 -32 123 -110 123c-61 0 -108 -30 -138 -91c-18 -36 -41 -132 -41 -187c0 -79 32 -123 110 -123c61 0 108 30 138 91c18 36 41 132 41 187z" />
    <glyph glyph-name="ocircumflex" unicode="&#xf4;" horiz-adv-x="486" 
d="M413 559h-20c-7 0 -10 2 -15 9l-52 91h-2l-86 -91c-7 -7 -11 -9 -19 -9h-22c-5 0 -7 5 -2 10l107 122c6 7 10 9 17 9h20c6 0 10 -3 13 -9l65 -122c3 -5 1 -10 -4 -10zM98 369c39 82 105 118 191 118c101 0 153 -63 153 -161c0 -70 -24 -171 -47 -218
c-39 -82 -105 -118 -191 -118c-101 0 -153 63 -153 161c0 70 24 171 47 218zM391 316c0 79 -32 123 -110 123c-61 0 -108 -30 -138 -91c-18 -36 -41 -132 -41 -187c0 -79 32 -123 110 -123c61 0 108 30 138 91c18 36 41 132 41 187z" />
    <glyph glyph-name="otilde" unicode="&#xf5;" horiz-adv-x="486" 
d="M98 369c39 82 105 118 191 118c101 0 153 -63 153 -161c0 -70 -24 -171 -47 -218c-39 -82 -105 -118 -191 -118c-101 0 -153 63 -153 161c0 70 24 171 47 218zM391 316c0 79 -32 123 -110 123c-61 0 -108 -30 -138 -91c-18 -36 -41 -132 -41 -187c0 -79 32 -123 110 -123
c61 0 108 30 138 91c18 36 41 132 41 187zM365 598c-23 0 -38 9 -54 21c-15 10 -27 18 -44 18c-22 0 -41 -13 -62 -33c-4 -4 -9 -2 -8 3l5 29c1 6 3 10 9 16c19 17 41 27 65 27c22 0 38 -8 54 -20c14 -11 27 -18 44 -18c21 0 40 12 61 33c4 4 9 1 8 -3l-4 -30
c-2 -6 -3 -9 -10 -15c-19 -18 -41 -28 -64 -28z" />
    <glyph glyph-name="odieresis" unicode="&#xf6;" horiz-adv-x="486" 
d="M428 607h-37c-6 0 -9 4 -8 10l9 53c1 6 5 10 11 10h37c6 0 9 -4 8 -10l-9 -53c-1 -6 -5 -10 -11 -10zM236 607h-37c-6 0 -9 4 -8 10l9 53c1 6 5 10 11 10h37c6 0 9 -4 8 -10l-9 -53c-1 -6 -5 -10 -11 -10zM98 369c39 82 105 118 191 118c101 0 153 -63 153 -161
c0 -70 -24 -171 -47 -218c-39 -82 -105 -118 -191 -118c-101 0 -153 63 -153 161c0 70 24 171 47 218zM391 316c0 79 -32 123 -110 123c-61 0 -108 -30 -138 -91c-18 -36 -41 -132 -41 -187c0 -79 32 -123 110 -123c61 0 108 30 138 91c18 36 41 132 41 187z" />
    <glyph glyph-name="omacron" unicode="&#x14d;" horiz-adv-x="486" 
d="M433 622h-234c-6 0 -9 4 -8 10l4 22c1 7 5 10 11 10h234c6 0 9 -4 8 -10l-4 -22c-1 -7 -5 -10 -11 -10zM98 369c39 82 105 118 191 118c101 0 153 -63 153 -161c0 -70 -24 -171 -47 -218c-39 -82 -105 -118 -191 -118c-101 0 -153 63 -153 161c0 70 24 171 47 218z
M391 316c0 79 -32 123 -110 123c-61 0 -108 -30 -138 -91c-18 -36 -41 -132 -41 -187c0 -79 32 -123 110 -123c61 0 108 30 138 91c18 36 41 132 41 187z" />
    <glyph glyph-name="obreve" unicode="&#x14f;" horiz-adv-x="486" 
d="M98 369c39 82 105 118 191 118c101 0 153 -63 153 -161c0 -70 -24 -171 -47 -218c-39 -82 -105 -118 -191 -118c-101 0 -153 63 -153 161c0 70 24 171 47 218zM391 316c0 79 -32 123 -110 123c-61 0 -108 -30 -138 -91c-18 -36 -41 -132 -41 -187c0 -79 32 -123 110 -123
c61 0 108 30 138 91c18 36 41 132 41 187zM317 572c-64 0 -102 41 -101 102c0 6 4 10 10 10h16c7 0 10 -4 11 -10c3 -40 27 -62 70 -62s75 24 93 62c3 6 6 10 13 10h17c6 0 9 -4 7 -10c-20 -61 -71 -102 -136 -102z" />
    <glyph glyph-name="ohungarumlaut" unicode="&#x151;" horiz-adv-x="486" 
d="M372 559h-21c-5 0 -8 4 -4 10l86 121c4 7 9 10 17 10h28c6 0 8 -5 4 -10l-95 -122c-5 -7 -8 -9 -15 -9zM254 559h-21c-5 0 -8 4 -4 10l86 121c4 7 9 10 17 10h28c6 0 8 -5 4 -10l-94 -122c-5 -7 -9 -9 -16 -9zM98 369c39 82 105 118 191 118c101 0 153 -63 153 -161
c0 -70 -24 -171 -47 -218c-39 -82 -105 -118 -191 -118c-101 0 -153 63 -153 161c0 70 24 171 47 218zM391 316c0 79 -32 123 -110 123c-61 0 -108 -30 -138 -91c-18 -36 -41 -132 -41 -187c0 -79 32 -123 110 -123c61 0 108 30 138 91c18 36 41 132 41 187z" />
    <glyph glyph-name="oslash" unicode="&#xf8;" horiz-adv-x="486" 
d="M36 -30h-15c-6 0 -7 5 -3 10l57 71c-16 26 -24 59 -24 99c0 71 24 171 47 219c40 82 106 118 191 118c48 0 85 -14 110 -39l40 48c6 8 10 10 17 10h15c6 0 7 -5 4 -10l-58 -71c16 -26 25 -60 25 -99c0 -70 -24 -171 -47 -218c-39 -82 -105 -118 -191 -118
c-48 0 -85 14 -111 39l-40 -49c-6 -8 -9 -10 -17 -10zM102 160c0 -25 3 -46 10 -64l253 311c-18 21 -46 32 -84 32c-60 0 -108 -30 -139 -92c-17 -36 -40 -131 -40 -187zM212 37c61 0 108 31 139 92c18 36 40 132 40 187c0 25 -4 47 -11 65l-253 -312c18 -21 46 -32 85 -32z
" />
    <glyph glyph-name="oe" unicode="&#x153;" horiz-adv-x="800" 
d="M530 -10c-82 0 -131 36 -144 108h-1c-39 -71 -99 -108 -181 -108c-101 0 -153 61 -153 160c0 71 24 171 47 219c40 82 106 118 191 118c78 0 126 -35 142 -108h1c39 75 107 108 178 108c87 0 148 -54 148 -157c0 -23 -2 -49 -10 -93c-1 -6 -5 -10 -12 -10h-297
c-4 0 -7 -2 -8 -6c-5 -26 -6 -44 -6 -66c0 -75 36 -117 112 -117c59 0 107 28 141 64c5 5 10 5 14 2l17 -19c4 -5 4 -10 -1 -15c-42 -47 -103 -80 -178 -80zM445 270h252c4 0 7 2 8 6c3 18 5 37 5 51c0 76 -38 113 -106 113c-60 0 -109 -31 -139 -90c-9 -20 -19 -48 -24 -74
c-1 -4 0 -6 4 -6zM212 38c61 0 108 30 138 91c18 36 41 132 41 187c0 79 -32 123 -110 123c-60 0 -107 -30 -138 -92c-18 -36 -41 -131 -41 -187c0 -78 32 -122 110 -122z" />
    <glyph glyph-name="racute" unicode="&#x155;" horiz-adv-x="381" 
d="M256 558h-22c-6 0 -8 4 -3 10l92 122c5 6 11 10 19 10h34c6 0 8 -5 4 -10l-106 -122c-7 -7 -10 -10 -18 -10zM92 0h-32c-6 0 -9 4 -8 10l80 457c1 6 5 10 11 10h32c6 0 9 -4 8 -10l-11 -61h1c25 48 73 81 136 81c36 0 68 -13 87 -33c3 -4 4 -8 0 -13l-21 -25
c-5 -4 -10 -4 -14 -1c-20 14 -41 24 -70 24c-81 0 -126 -78 -142 -164l-47 -265c-1 -6 -4 -10 -10 -10z" />
    <glyph glyph-name="rcaron" unicode="&#x159;" horiz-adv-x="381" 
d="M293 559h-20c-6 0 -10 2 -13 9l-65 122c-3 5 -1 10 4 10h20c7 0 10 -2 15 -10l52 -90h2l86 90c7 8 11 10 19 10h22c5 0 7 -5 2 -10l-107 -122c-6 -7 -10 -9 -17 -9zM92 0h-32c-6 0 -9 4 -8 10l80 457c1 6 5 10 11 10h32c6 0 9 -4 8 -10l-11 -61h1c25 48 73 81 136 81
c36 0 68 -13 87 -33c3 -4 4 -8 0 -13l-21 -25c-5 -4 -10 -4 -14 -1c-20 14 -41 24 -70 24c-81 0 -126 -78 -142 -164l-47 -265c-1 -6 -4 -10 -10 -10z" />
    <glyph glyph-name="rcommaaccent" unicode="&#x157;" horiz-adv-x="381" 
d="M22 -196c-6 0 -9 4 -8 10l21 121c1 6 6 10 12 10h35c6 0 9 -4 8 -10l-7 -45c-2 -10 -4 -13 -9 -22l-40 -56c-4 -5 -7 -8 -12 -8zM92 0h-32c-6 0 -9 4 -8 10l80 457c1 6 5 10 11 10h32c6 0 9 -4 8 -10l-11 -61h1c25 48 73 81 136 81c36 0 68 -13 87 -33c3 -4 4 -8 0 -13
l-21 -25c-5 -4 -10 -4 -14 -1c-20 14 -41 24 -70 24c-81 0 -126 -78 -142 -164l-47 -265c-1 -6 -4 -10 -10 -10z" />
    <glyph glyph-name="sacute" unicode="&#x15b;" horiz-adv-x="462" 
d="M282 558h-22c-6 0 -8 4 -3 10l92 122c5 6 11 10 19 10h34c6 0 8 -5 4 -10l-106 -122c-7 -7 -10 -10 -18 -10zM197 -10c-82 0 -142 36 -171 67c-4 4 -3 9 1 13l23 22c5 4 10 3 13 0c32 -29 75 -55 139 -55c89 0 143 51 143 114c0 40 -22 60 -86 67l-46 5
c-80 9 -119 46 -119 108c0 93 75 156 185 156c56 0 113 -22 145 -46c4 -4 4 -8 1 -13l-19 -21c-3 -5 -8 -7 -15 -3c-27 17 -70 36 -118 36c-77 0 -128 -45 -128 -102c0 -40 24 -61 91 -68l46 -5c78 -8 114 -45 114 -104c0 -104 -77 -171 -199 -171z" />
    <glyph glyph-name="scircumflex" unicode="&#x15d;" horiz-adv-x="462" 
d="M395 559h-20c-7 0 -10 2 -15 9l-52 91h-2l-86 -91c-7 -7 -11 -9 -19 -9h-22c-5 0 -7 5 -2 10l107 122c6 7 10 9 17 9h20c6 0 10 -3 13 -9l65 -122c3 -5 1 -10 -4 -10zM197 -10c-82 0 -142 36 -171 67c-4 4 -3 9 1 13l23 22c5 4 10 3 13 0c32 -29 75 -55 139 -55
c89 0 143 51 143 114c0 40 -22 60 -86 67l-46 5c-80 9 -119 46 -119 108c0 93 75 156 185 156c56 0 113 -22 145 -46c4 -4 4 -8 1 -13l-19 -21c-3 -5 -8 -7 -15 -3c-27 17 -70 36 -118 36c-77 0 -128 -45 -128 -102c0 -40 24 -61 91 -68l46 -5c78 -8 114 -45 114 -104
c0 -104 -77 -171 -199 -171z" />
    <glyph glyph-name="scaron" unicode="&#x161;" horiz-adv-x="462" 
d="M306 559h-20c-6 0 -10 2 -13 9l-65 122c-3 5 -1 10 4 10h20c7 0 10 -2 15 -10l52 -90h2l86 90c7 8 11 10 19 10h22c5 0 7 -5 2 -10l-107 -122c-6 -7 -10 -9 -17 -9zM197 -10c-82 0 -142 36 -171 67c-4 4 -3 9 1 13l23 22c5 4 10 3 13 0c32 -29 75 -55 139 -55
c89 0 143 51 143 114c0 40 -22 60 -86 67l-46 5c-80 9 -119 46 -119 108c0 93 75 156 185 156c56 0 113 -22 145 -46c4 -4 4 -8 1 -13l-19 -21c-3 -5 -8 -7 -15 -3c-27 17 -70 36 -118 36c-77 0 -128 -45 -128 -102c0 -40 24 -61 91 -68l46 -5c78 -8 114 -45 114 -104
c0 -104 -77 -171 -199 -171z" />
    <glyph glyph-name="scedilla" unicode="&#x15f;" horiz-adv-x="462" 
d="M144 -147h-27c-6 0 -9 4 -6 10l71 128c-74 4 -129 37 -156 66c-4 4 -3 9 1 13l23 22c5 4 10 3 13 0c32 -29 75 -55 139 -55c89 0 143 51 143 114c0 40 -22 60 -86 67l-46 5c-80 9 -119 46 -119 108c0 93 75 156 185 156c56 0 113 -22 145 -46c4 -4 4 -8 1 -13l-19 -21
c-3 -5 -8 -7 -15 -3c-27 17 -70 36 -118 36c-77 0 -128 -45 -128 -102c0 -40 24 -61 91 -68l46 -5c78 -8 114 -45 114 -104c0 -96 -65 -160 -171 -170l-64 -128c-4 -8 -9 -10 -17 -10z" />
    <glyph glyph-name="scommaaccent" unicode="&#x219;" horiz-adv-x="462" 
d="M144 -196c-6 0 -9 4 -8 10l21 121c1 6 6 10 12 10h35c6 0 9 -4 8 -10l-7 -45c-2 -10 -4 -13 -9 -22l-40 -56c-4 -5 -7 -8 -12 -8zM197 -10c-82 0 -142 36 -171 67c-4 4 -3 9 1 13l23 22c5 4 10 3 13 0c32 -29 75 -55 139 -55c89 0 143 51 143 114c0 40 -22 60 -86 67
l-46 5c-80 9 -119 46 -119 108c0 93 75 156 185 156c56 0 113 -22 145 -46c4 -4 4 -8 1 -13l-19 -21c-3 -5 -8 -7 -15 -3c-27 17 -70 36 -118 36c-77 0 -128 -45 -128 -102c0 -40 24 -61 91 -68l46 -5c78 -8 114 -45 114 -104c0 -104 -77 -171 -199 -171z" />
    <glyph glyph-name="germandbls" unicode="&#xdf;" horiz-adv-x="527" 
d="M245 -5h-14c-6 0 -9 4 -8 10l4 28c1 6 6 10 12 10h13c59 0 98 18 122 65c17 35 40 176 40 212c0 58 -32 81 -100 81h-11c-6 0 -9 4 -8 10l5 29c1 6 6 10 12 10h17c79 0 123 45 123 117c0 49 -35 75 -105 75c-94 0 -140 -42 -159 -145l-86 -487c-1 -6 -5 -10 -10 -10h-32
c-6 0 -9 4 -8 10l86 487c22 125 84 193 215 193c100 0 150 -44 150 -115c0 -65 -28 -126 -94 -148v-2c39 -16 56 -47 56 -94c0 -51 -25 -197 -48 -244c-34 -70 -90 -92 -172 -92z" />
    <glyph glyph-name="tcaron" unicode="&#x165;" horiz-adv-x="295" 
d="M320 538c-5 0 -8 4 -7 10l21 122c1 6 5 10 11 10h36c6 0 9 -4 8 -10l-8 -46c-2 -9 -3 -14 -8 -21l-40 -57c-4 -5 -8 -8 -13 -8zM203 -3h-24c-84 0 -112 34 -96 128l57 302c1 4 -1 6 -5 6h-48c-6 0 -9 4 -8 10l4 24c1 6 5 10 11 10h49c4 0 7 2 8 6l23 137c1 6 6 10 11 10
h32c6 0 9 -4 8 -10l-24 -137c-1 -4 1 -6 4 -6h86c6 0 9 -4 8 -10l-4 -24c-1 -7 -5 -10 -11 -10h-86c-4 0 -6 -2 -7 -6l-57 -298c-12 -68 3 -84 60 -84h17c6 0 9 -4 8 -10l-4 -28c-1 -7 -6 -10 -12 -10z" />
    <glyph glyph-name="uni0163" unicode="&#x163;" horiz-adv-x="295" 
d="M80 -196c-6 0 -9 4 -8 10l21 121c1 6 6 10 12 10h35c6 0 9 -4 8 -10l-7 -45c-2 -10 -4 -13 -9 -22l-40 -56c-4 -5 -7 -8 -12 -8zM203 -3h-24c-84 0 -112 34 -96 128l57 302c1 4 -1 6 -5 6h-48c-6 0 -9 4 -8 10l4 24c1 6 5 10 11 10h49c4 0 7 2 8 6l23 137c1 6 6 10 11 10
h32c6 0 9 -4 8 -10l-24 -137c-1 -4 1 -6 4 -6h86c6 0 9 -4 8 -10l-4 -24c-1 -7 -5 -10 -11 -10h-86c-4 0 -6 -2 -7 -6l-57 -298c-12 -68 3 -84 60 -84h17c6 0 9 -4 8 -10l-4 -28c-1 -7 -6 -10 -12 -10z" />
    <glyph glyph-name="uni021B" unicode="&#x21b;" horiz-adv-x="295" 
d="M80 -196c-6 0 -9 4 -8 10l21 121c1 6 6 10 12 10h35c6 0 9 -4 8 -10l-7 -45c-2 -10 -4 -13 -9 -22l-40 -56c-4 -5 -7 -8 -12 -8zM203 -3h-24c-84 0 -112 34 -96 128l57 302c1 4 -1 6 -5 6h-48c-6 0 -9 4 -8 10l4 24c1 6 5 10 11 10h49c4 0 7 2 8 6l23 137c1 6 6 10 11 10
h32c6 0 9 -4 8 -10l-24 -137c-1 -4 1 -6 4 -6h86c6 0 9 -4 8 -10l-4 -24c-1 -7 -5 -10 -11 -10h-86c-4 0 -6 -2 -7 -6l-57 -298c-12 -68 3 -84 60 -84h17c6 0 9 -4 8 -10l-4 -28c-1 -7 -6 -10 -12 -10z" />
    <glyph glyph-name="tbar" unicode="&#x167;" horiz-adv-x="295" 
d="M203 -3h-24c-84 0 -114 34 -96 128l34 176c1 4 -1 6 -5 6h-38c-6 0 -9 4 -8 10l4 22c1 6 6 9 12 9h38c4 0 6 2 7 6l13 73c1 4 -1 6 -5 6h-48c-6 0 -9 4 -8 10l4 24c1 6 5 10 11 10h49c4 0 7 2 8 6l23 137c1 6 6 10 11 10h32c6 0 9 -4 8 -10l-24 -137c-1 -4 1 -6 4 -6h86
c6 0 9 -4 8 -10l-4 -24c-1 -7 -5 -10 -11 -10h-86c-4 0 -6 -2 -7 -6l-13 -73c-1 -4 0 -6 4 -6h75c6 0 9 -4 8 -10l-4 -22c-1 -6 -5 -9 -11 -9h-75c-4 0 -6 -2 -7 -6l-34 -172c-12 -68 3 -84 60 -84h17c6 0 9 -4 8 -10l-4 -28c-1 -7 -6 -10 -12 -10z" />
    <glyph glyph-name="thorn" unicode="&#xfe;" horiz-adv-x="509" 
d="M241 -10c-71 0 -111 36 -127 81h-1l-42 -241c-1 -6 -5 -10 -11 -10h-32c-6 0 -9 4 -8 10l148 840c1 6 5 10 11 10h32c6 0 9 -4 8 -10l-46 -261h1c30 44 78 78 152 78c91 0 138 -59 138 -155c0 -77 -25 -183 -49 -230c-36 -76 -94 -112 -174 -112zM238 38
c61 0 105 31 133 87c25 51 42 144 42 199c0 69 -28 115 -104 115c-56 0 -106 -28 -138 -93c-15 -30 -39 -144 -39 -197c0 -66 36 -111 106 -111z" />
    <glyph glyph-name="ugrave" unicode="&#xf9;" horiz-adv-x="513" 
d="M137 477h32c5 0 8 -4 7 -10l-51 -283c-17 -99 13 -146 92 -146c65 0 134 52 148 135l52 294c1 6 5 10 11 10h32c6 0 9 -4 8 -10l-81 -457c-1 -6 -5 -10 -11 -10h-31c-6 0 -9 4 -8 10l10 55h-1c-34 -47 -86 -75 -147 -75c-100 0 -147 65 -126 181l53 296c1 6 5 10 11 10z
M326 558h-20c-8 0 -10 3 -15 10l-62 122c-3 5 1 10 7 10h31c8 0 10 -3 13 -10l53 -122c3 -6 -1 -10 -7 -10z" />
    <glyph glyph-name="uacute" unicode="&#xfa;" horiz-adv-x="513" 
d="M316 558h-22c-6 0 -8 4 -3 10l92 122c5 6 11 10 19 10h34c6 0 8 -5 4 -10l-106 -122c-7 -7 -10 -10 -18 -10zM137 477h32c5 0 8 -4 7 -10l-51 -283c-17 -99 13 -146 92 -146c65 0 134 52 148 135l52 294c1 6 5 10 11 10h32c6 0 9 -4 8 -10l-81 -457c-1 -6 -5 -10 -11 -10
h-31c-6 0 -9 4 -8 10l10 55h-1c-34 -47 -86 -75 -147 -75c-100 0 -147 65 -126 181l53 296c1 6 5 10 11 10z" />
    <glyph glyph-name="ucircumflex" unicode="&#xfb;" horiz-adv-x="513" 
d="M418 559h-20c-7 0 -10 2 -15 9l-52 91h-2l-86 -91c-7 -7 -11 -9 -19 -9h-22c-5 0 -7 5 -2 10l107 122c6 7 10 9 17 9h20c6 0 10 -3 13 -9l65 -122c3 -5 1 -10 -4 -10zM137 477h32c5 0 8 -4 7 -10l-51 -283c-17 -99 13 -146 92 -146c65 0 134 52 148 135l52 294
c1 6 5 10 11 10h32c6 0 9 -4 8 -10l-81 -457c-1 -6 -5 -10 -11 -10h-31c-6 0 -9 4 -8 10l10 55h-1c-34 -47 -86 -75 -147 -75c-100 0 -147 65 -126 181l53 296c1 6 5 10 11 10z" />
    <glyph glyph-name="utilde" unicode="&#x169;" horiz-adv-x="513" 
d="M137 477h32c5 0 8 -4 7 -10l-51 -283c-17 -99 13 -146 92 -146c65 0 134 52 148 135l52 294c1 6 5 10 11 10h32c6 0 9 -4 8 -10l-81 -457c-1 -6 -5 -10 -11 -10h-31c-6 0 -9 4 -8 10l10 55h-1c-34 -47 -86 -75 -147 -75c-100 0 -147 65 -126 181l53 296c1 6 5 10 11 10z
M368 598c-23 0 -38 9 -54 21c-15 10 -27 18 -44 18c-22 0 -41 -13 -62 -33c-4 -4 -9 -2 -8 3l5 29c1 6 3 10 9 16c19 17 41 27 65 27c22 0 38 -8 54 -20c14 -11 27 -18 44 -18c21 0 40 12 61 33c4 4 9 1 8 -3l-4 -30c-2 -6 -3 -9 -10 -15c-19 -18 -41 -28 -64 -28z" />
    <glyph glyph-name="udieresis" unicode="&#xfc;" horiz-adv-x="513" 
d="M433 607h-37c-6 0 -9 4 -8 10l9 53c1 6 5 10 11 10h37c6 0 9 -4 8 -10l-9 -53c-1 -6 -5 -10 -11 -10zM241 607h-37c-6 0 -9 4 -8 10l9 53c1 6 5 10 11 10h37c6 0 9 -4 8 -10l-9 -53c-1 -6 -5 -10 -11 -10zM137 477h32c5 0 8 -4 7 -10l-51 -283c-17 -99 13 -146 92 -146
c65 0 134 52 148 135l52 294c1 6 5 10 11 10h32c6 0 9 -4 8 -10l-81 -457c-1 -6 -5 -10 -11 -10h-31c-6 0 -9 4 -8 10l10 55h-1c-34 -47 -86 -75 -147 -75c-100 0 -147 65 -126 181l53 296c1 6 5 10 11 10z" />
    <glyph glyph-name="umacron" unicode="&#x16b;" horiz-adv-x="513" 
d="M137 477h32c5 0 8 -4 7 -10l-51 -283c-17 -99 13 -146 92 -146c65 0 134 52 148 135l52 294c1 6 5 10 11 10h32c6 0 9 -4 8 -10l-81 -457c-1 -6 -5 -10 -11 -10h-31c-6 0 -9 4 -8 10l10 55h-1c-34 -47 -86 -75 -147 -75c-100 0 -147 65 -126 181l53 296c1 6 5 10 11 10z
M436 622h-234c-6 0 -9 4 -8 10l4 22c1 7 5 10 11 10h234c6 0 9 -4 8 -10l-4 -22c-1 -7 -5 -10 -11 -10z" />
    <glyph glyph-name="ubreve" unicode="&#x16d;" horiz-adv-x="513" 
d="M137 477h32c5 0 8 -4 7 -10l-51 -283c-17 -99 13 -146 92 -146c65 0 134 52 148 135l52 294c1 6 5 10 11 10h32c6 0 9 -4 8 -10l-81 -457c-1 -6 -5 -10 -11 -10h-31c-6 0 -9 4 -8 10l10 55h-1c-34 -47 -86 -75 -147 -75c-100 0 -147 65 -126 181l53 296c1 6 5 10 11 10z
M312 572c-64 0 -102 41 -101 102c0 6 4 10 10 10h16c7 0 10 -4 11 -10c3 -40 27 -62 70 -62s75 24 93 62c3 6 6 10 13 10h17c6 0 9 -4 7 -10c-20 -61 -71 -102 -136 -102z" />
    <glyph glyph-name="uring" unicode="&#x16f;" horiz-adv-x="513" 
d="M311 542c-41 0 -70 30 -70 71c0 56 42 103 101 103c41 0 70 -30 70 -71c0 -56 -42 -103 -101 -103zM317 572c35 0 64 30 64 68c0 27 -17 46 -45 46c-35 0 -63 -30 -63 -68c0 -27 16 -46 44 -46zM137 477h32c5 0 8 -4 7 -10l-51 -283c-17 -99 13 -146 92 -146
c65 0 134 52 148 135l52 294c1 6 5 10 11 10h32c6 0 9 -4 8 -10l-81 -457c-1 -6 -5 -10 -11 -10h-31c-6 0 -9 4 -8 10l10 55h-1c-34 -47 -86 -75 -147 -75c-100 0 -147 65 -126 181l53 296c1 6 5 10 11 10z" />
    <glyph glyph-name="uhungarumlaut" unicode="&#x171;" horiz-adv-x="513" 
d="M137 477h32c5 0 8 -4 7 -10l-51 -283c-17 -99 13 -146 92 -146c65 0 134 52 148 135l52 294c1 6 5 10 11 10h32c6 0 9 -4 8 -10l-81 -457c-1 -6 -5 -10 -11 -10h-31c-6 0 -9 4 -8 10l10 55h-1c-34 -47 -86 -75 -147 -75c-100 0 -147 65 -126 181l53 296c1 6 5 10 11 10z
M381 559h-21c-5 0 -8 4 -4 10l86 121c4 7 9 10 17 10h28c6 0 8 -5 4 -10l-95 -122c-5 -7 -8 -9 -15 -9zM263 559h-21c-5 0 -8 4 -4 10l86 121c4 7 9 10 17 10h28c6 0 8 -5 4 -10l-94 -122c-5 -7 -9 -9 -16 -9z" />
    <glyph glyph-name="uogonek" unicode="&#x173;" horiz-adv-x="513" 
d="M294 -170c-32 0 -56 20 -56 54c0 43 30 74 99 122c0 0 -1 2 0 3l10 56h-1c-34 -47 -86 -75 -147 -75c-100 0 -147 65 -126 181l53 296c1 6 5 10 11 10h32c5 0 8 -4 7 -10l-51 -283c-17 -99 13 -146 92 -146c65 0 134 52 148 135l52 294c1 6 5 10 11 10h32c6 0 9 -4 8 -10
l-81 -457c-1 -5 -3 -8 -6 -11c-79 -53 -97 -78 -97 -103c0 -15 9 -23 24 -23c11 0 19 3 29 9c5 3 10 2 12 -2l6 -20c2 -5 0 -8 -6 -13c-13 -9 -33 -17 -55 -17z" />
    <glyph glyph-name="wcircumflex" unicode="&#x175;" horiz-adv-x="706" 
d="M526 559h-20c-7 0 -10 2 -15 9l-52 91h-2l-86 -91c-7 -7 -11 -9 -19 -9h-22c-5 0 -7 5 -2 10l107 122c6 7 10 9 17 9h20c6 0 10 -3 13 -9l65 -122c3 -5 1 -10 -4 -10zM474 0h-27c-7 0 -10 3 -10 10l-52 388h-1l-191 -388c-3 -7 -7 -10 -13 -10h-27c-7 0 -10 3 -10 10
l-63 457c-1 6 2 10 9 10h29c7 0 11 -3 12 -10l49 -387h1l188 387c3 6 7 10 13 10h26c7 0 10 -4 11 -10l54 -387h1l184 387c4 7 7 10 14 10h33c7 0 9 -4 6 -10l-223 -457c-4 -7 -7 -10 -13 -10z" />
    <glyph glyph-name="wacute" unicode="&#x1e83;" horiz-adv-x="706" 
d="M428 558h-22c-6 0 -8 4 -3 10l92 122c5 6 11 10 19 10h34c6 0 8 -5 4 -10l-106 -122c-7 -7 -10 -10 -18 -10zM474 0h-27c-7 0 -10 3 -10 10l-52 388h-1l-191 -388c-3 -7 -7 -10 -13 -10h-27c-7 0 -10 3 -10 10l-63 457c-1 6 2 10 9 10h29c7 0 11 -3 12 -10l49 -387h1
l188 387c3 6 7 10 13 10h26c7 0 10 -4 11 -10l54 -387h1l184 387c4 7 7 10 14 10h33c7 0 9 -4 6 -10l-223 -457c-4 -7 -7 -10 -13 -10z" />
    <glyph glyph-name="wdieresis" unicode="&#x1e85;" horiz-adv-x="706" 
d="M541 607h-37c-6 0 -9 4 -8 10l9 53c1 6 5 10 11 10h37c6 0 9 -4 8 -10l-9 -53c-1 -6 -5 -10 -11 -10zM349 607h-37c-6 0 -9 4 -8 10l9 53c1 6 5 10 11 10h37c6 0 9 -4 8 -10l-9 -53c-1 -6 -5 -10 -11 -10zM474 0h-27c-7 0 -10 3 -10 10l-52 388h-1l-191 -388
c-3 -7 -7 -10 -13 -10h-27c-7 0 -10 3 -10 10l-63 457c-1 6 2 10 9 10h29c7 0 11 -3 12 -10l49 -387h1l188 387c3 6 7 10 13 10h26c7 0 10 -4 11 -10l54 -387h1l184 387c4 7 7 10 14 10h33c7 0 9 -4 6 -10l-223 -457c-4 -7 -7 -10 -13 -10z" />
    <glyph glyph-name="wgrave" unicode="&#x1e81;" horiz-adv-x="706" 
d="M474 0h-27c-7 0 -10 3 -10 10l-52 388h-1l-191 -388c-3 -7 -7 -10 -13 -10h-27c-7 0 -10 3 -10 10l-63 457c-1 6 2 10 9 10h29c7 0 11 -3 12 -10l49 -387h1l188 387c3 6 7 10 13 10h26c7 0 10 -4 11 -10l54 -387h1l184 387c4 7 7 10 14 10h33c7 0 9 -4 6 -10l-223 -457
c-4 -7 -7 -10 -13 -10zM410 558h-20c-8 0 -10 3 -15 10l-62 122c-3 5 1 10 7 10h31c8 0 10 -3 13 -10l53 -122c3 -6 -1 -10 -7 -10z" />
    <glyph glyph-name="yacute" unicode="&#xfd;" horiz-adv-x="449" 
d="M27 -180h-19c-6 0 -9 4 -8 10l4 28c1 7 6 10 12 10h17c40 0 64 19 104 93l27 49l-89 457c-1 6 2 10 8 10h33c7 0 10 -3 11 -10l71 -387h1l207 387c3 7 7 10 13 10h35c7 0 9 -4 6 -10l-278 -514c-59 -109 -96 -133 -155 -133zM281 558h-22c-6 0 -8 4 -3 10l92 122
c5 6 11 10 19 10h34c6 0 8 -5 4 -10l-106 -122c-7 -7 -10 -10 -18 -10z" />
    <glyph glyph-name="ycircumflex" unicode="&#x177;" horiz-adv-x="449" 
d="M27 -180h-19c-6 0 -9 4 -8 10l4 28c1 7 6 10 12 10h17c40 0 64 19 104 93l27 49l-89 457c-1 6 2 10 8 10h33c7 0 10 -3 11 -10l71 -387h1l207 387c3 7 7 10 13 10h35c7 0 9 -4 6 -10l-278 -514c-59 -109 -96 -133 -155 -133zM394 559h-20c-7 0 -10 2 -15 9l-52 91h-2
l-86 -91c-7 -7 -11 -9 -19 -9h-22c-5 0 -7 5 -2 10l107 122c6 7 10 9 17 9h20c6 0 10 -3 13 -9l65 -122c3 -5 1 -10 -4 -10z" />
    <glyph glyph-name="ydieresis" unicode="&#xff;" horiz-adv-x="449" 
d="M27 -180h-19c-6 0 -9 4 -8 10l4 28c1 7 6 10 12 10h17c40 0 64 19 104 93l27 49l-89 457c-1 6 2 10 8 10h33c7 0 10 -3 11 -10l71 -387h1l207 387c3 7 7 10 13 10h35c7 0 9 -4 6 -10l-278 -514c-59 -109 -96 -133 -155 -133zM407 607h-37c-6 0 -9 4 -8 10l9 53
c1 6 5 10 11 10h37c6 0 9 -4 8 -10l-9 -53c-1 -6 -5 -10 -11 -10zM215 607h-37c-6 0 -9 4 -8 10l9 53c1 6 5 10 11 10h37c6 0 9 -4 8 -10l-9 -53c-1 -6 -5 -10 -11 -10z" />
    <glyph glyph-name="ygrave" unicode="&#x1ef3;" horiz-adv-x="449" 
d="M27 -180h-19c-6 0 -9 4 -8 10l4 28c1 7 6 10 12 10h17c40 0 64 19 104 93l27 49l-89 457c-1 6 2 10 8 10h33c7 0 10 -3 11 -10l71 -387h1l207 387c3 7 7 10 13 10h35c7 0 9 -4 6 -10l-278 -514c-59 -109 -96 -133 -155 -133zM285 558h-20c-8 0 -10 3 -15 10l-62 122
c-3 5 1 10 7 10h31c8 0 10 -3 13 -10l53 -122c3 -6 -1 -10 -7 -10z" />
    <glyph glyph-name="zacute" unicode="&#x17a;" horiz-adv-x="447" 
d="M281 558h-22c-6 0 -8 4 -3 10l92 122c5 6 11 10 19 10h34c6 0 8 -5 4 -10l-106 -122c-7 -7 -10 -10 -18 -10zM346 0h-319c-6 0 -9 4 -8 10l4 27c1 4 3 8 7 13l337 378v1h-253c-6 0 -9 4 -8 10l5 28c1 6 4 10 11 10h307c6 0 9 -4 8 -10l-4 -28c-1 -5 -4 -9 -8 -14
l-336 -376v-1h265c6 0 9 -4 8 -10l-5 -28c-1 -6 -4 -10 -11 -10z" />
    <glyph glyph-name="zcaron" unicode="&#x17e;" horiz-adv-x="447" 
d="M294 559h-20c-6 0 -10 2 -13 9l-65 122c-3 5 -1 10 4 10h20c7 0 10 -2 15 -10l52 -90h2l86 90c7 8 11 10 19 10h22c5 0 7 -5 2 -10l-107 -122c-6 -7 -10 -9 -17 -9zM346 0h-319c-6 0 -9 4 -8 10l4 27c1 4 3 8 7 13l337 378v1h-253c-6 0 -9 4 -8 10l5 28c1 6 4 10 11 10
h307c6 0 9 -4 8 -10l-4 -28c-1 -5 -4 -9 -8 -14l-336 -376v-1h265c6 0 9 -4 8 -10l-5 -28c-1 -6 -4 -10 -11 -10z" />
    <glyph glyph-name="zdotaccent" unicode="&#x17c;" horiz-adv-x="447" 
d="M346 0h-319c-6 0 -9 4 -8 10l4 27c1 4 3 8 7 13l337 378v1h-253c-6 0 -9 4 -8 10l5 28c1 6 4 10 11 10h307c6 0 9 -4 8 -10l-4 -28c-1 -5 -4 -9 -8 -14l-336 -376v-1h265c6 0 9 -4 8 -10l-5 -28c-1 -6 -4 -10 -11 -10zM314 607h-42c-6 0 -9 4 -8 10l10 53c1 6 5 10 11 10
h41c6 0 9 -4 8 -10l-9 -53c-1 -6 -5 -10 -11 -10z" />
    <glyph glyph-name="f_i" unicode="&#xf001;" horiz-adv-x="523" 
d="M497 607h-41c-6 0 -9 4 -8 10l10 53c1 6 5 10 11 10h41c6 0 9 -4 8 -10l-10 -53c-1 -7 -5 -10 -11 -10zM386 0h-32c-6 0 -9 4 -8 10l80 457c1 6 5 10 11 10h32c6 0 9 -4 8 -10l-81 -457c-1 -6 -4 -10 -10 -10zM107 0h-33c-5 0 -8 4 -7 10l74 417c1 4 -1 6 -5 6h-49
c-6 0 -8 4 -7 10l4 24c1 6 5 10 11 10h49c4 0 6 2 7 6l10 54c19 112 59 143 151 143h26c6 0 9 -4 8 -10l-4 -28c-1 -7 -6 -10 -12 -10h-20c-67 0 -84 -14 -98 -90l-11 -59c-1 -4 0 -6 4 -6h97c6 0 10 -4 9 -10l-4 -24c-1 -7 -6 -10 -12 -10h-97c-3 0 -5 -2 -6 -6l-75 -417
c-1 -6 -5 -10 -10 -10z" />
    <glyph glyph-name="f_l" unicode="&#xf002;" horiz-adv-x="544" 
d="M458 -3h-22c-67 0 -87 34 -74 109l103 564c1 6 5 10 10 10h32c6 0 9 -4 8 -10l-103 -563c-8 -47 2 -62 38 -62h16c6 0 9 -4 8 -10l-4 -28c-1 -7 -6 -10 -12 -10zM107 0h-33c-5 0 -8 4 -7 10l74 417c1 4 -1 6 -5 6h-49c-6 0 -8 4 -7 10l4 24c1 6 5 10 11 10h49
c4 0 6 2 7 6l10 54c19 112 59 143 151 143h26c6 0 9 -4 8 -10l-4 -28c-1 -7 -6 -10 -12 -10h-20c-67 0 -84 -14 -98 -90l-11 -59c-1 -4 0 -6 4 -6h97c6 0 10 -4 9 -10l-4 -24c-1 -7 -6 -10 -12 -10h-97c-3 0 -5 -2 -6 -6l-75 -417c-1 -6 -5 -10 -10 -10z" />
    <glyph glyph-name="grave.cap" horiz-adv-x="404" 
d="M360 764h-22c-8 0 -10 1 -16 10l-72 104c-3 5 0 10 5 10h33c9 0 12 -3 17 -10l60 -104c4 -5 1 -10 -5 -10z" />
    <glyph glyph-name="acute" unicode="&#xb4;" horiz-adv-x="404" 
d="M224 558h-22c-6 0 -8 4 -3 10l92 122c5 6 11 10 19 10h34c6 0 8 -5 4 -10l-106 -122c-7 -7 -10 -10 -18 -10z" />
    <glyph glyph-name="acute.cap" horiz-adv-x="404" 
d="M258 764h-24c-6 0 -7 5 -2 11l94 103c7 7 11 10 19 10h36c6 0 8 -5 3 -10l-107 -104c-8 -8 -12 -10 -19 -10z" />
    <glyph glyph-name="circumflex" unicode="&#x2c6;" horiz-adv-x="404" 
d="M368 559h-20c-7 0 -10 2 -15 9l-52 91h-2l-86 -91c-7 -7 -11 -9 -19 -9h-22c-5 0 -7 5 -2 10l107 122c6 7 10 9 17 9h20c6 0 10 -3 13 -9l65 -122c3 -5 1 -10 -4 -10z" />
    <glyph glyph-name="circumflex.cap" horiz-adv-x="404" 
d="M402 755h-19c-8 0 -11 2 -16 9l-52 91h-2l-86 -91c-6 -7 -11 -9 -18 -9h-23c-5 0 -7 5 -2 10l107 122c6 7 11 9 17 9h20c7 0 10 -3 13 -9l65 -122c3 -5 1 -10 -4 -10z" />
    <glyph glyph-name="caron" unicode="&#x2c7;" horiz-adv-x="404" 
d="M269 559h-20c-6 0 -10 2 -13 9l-65 122c-3 5 -1 10 4 10h20c7 0 10 -2 15 -10l52 -90h2l86 90c7 8 11 10 19 10h22c5 0 7 -5 2 -10l-107 -122c-6 -7 -10 -9 -17 -9z" />
    <glyph glyph-name="caron.cap" horiz-adv-x="404" 
d="M304 754h-20c-7 0 -10 3 -13 9l-66 122c-3 5 0 10 5 10h19c8 0 11 -2 15 -9l53 -90h2l86 90c6 7 11 9 18 9h22c6 0 8 -5 3 -10l-107 -122c-6 -7 -11 -9 -17 -9z" />
    <glyph glyph-name="caron.alt" horiz-adv-x="404" 
d="M240 538c-5 0 -8 4 -7 10l21 122c1 6 5 10 11 10h36c6 0 9 -4 8 -10l-8 -46c-2 -9 -3 -14 -8 -21l-40 -57c-4 -5 -8 -8 -13 -8z" />
    <glyph glyph-name="tilde" unicode="&#x2dc;" horiz-adv-x="404" 
d="M320 598c-23 0 -38 9 -54 21c-15 10 -27 18 -44 18c-22 0 -41 -13 -62 -33c-4 -4 -9 -2 -8 3l5 29c1 6 3 10 9 16c19 17 41 27 65 27c22 0 38 -8 54 -20c14 -11 27 -18 44 -18c21 0 40 12 61 33c4 4 9 1 8 -3l-4 -30c-2 -6 -3 -9 -10 -15c-19 -18 -41 -28 -64 -28z" />
    <glyph glyph-name="tilde.cap" horiz-adv-x="404" 
d="M353 784c-23 0 -38 8 -54 20c-14 11 -27 18 -44 18c-21 0 -40 -12 -61 -33c-4 -4 -9 -1 -8 3l4 30c1 6 3 9 10 15c18 18 40 28 64 28c23 0 38 -9 54 -21c14 -10 27 -18 44 -18c21 0 41 13 62 33c4 4 9 2 8 -3l-5 -29c-1 -6 -3 -10 -10 -16c-18 -17 -40 -27 -64 -27z" />
    <glyph glyph-name="dieresis" unicode="&#xa8;" horiz-adv-x="404" 
d="M386 607h-37c-6 0 -9 4 -8 10l9 53c1 6 5 10 11 10h37c6 0 9 -4 8 -10l-9 -53c-1 -6 -5 -10 -11 -10zM194 607h-37c-6 0 -9 4 -8 10l9 53c1 6 5 10 11 10h37c6 0 9 -4 8 -10l-9 -53c-1 -6 -5 -10 -11 -10z" />
    <glyph glyph-name="dieresis.cap" horiz-adv-x="404" 
d="M417 787h-37c-6 0 -9 4 -8 10l9 54c1 6 5 10 11 10h37c6 0 9 -4 8 -10l-9 -54c-1 -6 -5 -10 -11 -10zM225 787h-37c-6 0 -9 4 -8 10l9 54c1 6 5 10 11 10h37c6 0 9 -4 8 -10l-9 -54c-1 -6 -5 -10 -11 -10z" />
    <glyph glyph-name="macron" unicode="&#xaf;" horiz-adv-x="404" 
d="M390 622h-234c-6 0 -9 4 -8 10l4 22c1 7 5 10 11 10h234c6 0 9 -4 8 -10l-4 -22c-1 -7 -5 -10 -11 -10z" />
    <glyph glyph-name="macron.cap" horiz-adv-x="404" 
d="M422 802h-234c-6 0 -9 4 -8 10l4 23c1 7 5 10 11 10h233c6 0 9 -4 8 -10l-3 -23c-1 -6 -5 -10 -11 -10z" />
    <glyph glyph-name="uni02C9" unicode="&#x2c9;" horiz-adv-x="404" 
d="M422 802h-234c-6 0 -9 4 -8 10l4 23c1 7 5 10 11 10h233c6 0 9 -4 8 -10l-3 -23c-1 -6 -5 -10 -11 -10z" />
    <glyph glyph-name="breve" unicode="&#x2d8;" horiz-adv-x="404" 
d="M264 572c-64 0 -102 41 -101 102c0 6 4 10 10 10h16c7 0 10 -4 11 -10c3 -40 27 -62 70 -62s75 24 93 62c3 6 6 10 13 10h17c6 0 9 -4 7 -10c-20 -61 -71 -102 -136 -102z" />
    <glyph glyph-name="breve.cap" horiz-adv-x="404" 
d="M299 769c-64 0 -102 41 -101 102c0 6 4 10 10 10h16c7 0 10 -4 11 -10c3 -40 27 -62 70 -62s75 24 93 62c3 6 6 10 13 10h17c6 0 9 -4 7 -10c-20 -61 -71 -102 -136 -102z" />
    <glyph glyph-name="ring" unicode="&#x2da;" horiz-adv-x="404" 
d="M258 542c-41 0 -70 30 -70 71c0 56 42 103 101 103c41 0 70 -30 70 -71c0 -56 -42 -103 -101 -103zM264 572c35 0 64 30 64 68c0 27 -17 46 -45 46c-35 0 -63 -30 -63 -68c0 -27 16 -46 44 -46z" />
    <glyph glyph-name="ring.cap" horiz-adv-x="404" 
d="M294 739c-42 0 -70 30 -70 71c0 56 41 103 100 103c42 0 71 -30 71 -71c0 -56 -42 -103 -101 -103zM300 769c34 0 63 30 63 68c0 27 -16 46 -45 46c-34 0 -63 -30 -63 -68c0 -27 16 -46 45 -46z" />
    <glyph glyph-name="hungarumlaut" unicode="&#x2dd;" horiz-adv-x="404" 
d="M291 559h-21c-5 0 -8 4 -4 10l86 121c4 7 9 10 17 10h28c6 0 8 -5 4 -10l-95 -122c-5 -7 -8 -9 -15 -9zM173 559h-21c-5 0 -8 4 -4 10l86 121c4 7 9 10 17 10h28c6 0 8 -5 4 -10l-94 -122c-5 -7 -9 -9 -16 -9z" />
    <glyph glyph-name="hungarumlaut.cap" horiz-adv-x="404" 
d="M340 765h-21c-5 0 -9 4 -4 10l83 104c5 6 10 10 18 10h27c6 0 8 -5 4 -10l-91 -105c-5 -7 -9 -9 -16 -9zM222 765h-21c-5 0 -9 4 -4 10l83 104c5 6 10 10 18 10h28c6 0 8 -5 4 -10l-92 -105c-5 -7 -9 -9 -16 -9z" />
    <glyph glyph-name="dotaccent" unicode="&#x2d9;" horiz-adv-x="404" 
d="M292 607h-42c-6 0 -9 4 -8 10l10 53c1 6 5 10 11 10h41c6 0 9 -4 8 -10l-9 -53c-1 -6 -5 -10 -11 -10z" />
    <glyph glyph-name="dotaccent.cap" horiz-adv-x="404" 
d="M323 787h-42c-6 0 -9 4 -8 10l9 54c1 6 5 10 11 10h42c6 0 9 -4 8 -10l-9 -54c-1 -6 -5 -10 -11 -10z" />
    <glyph glyph-name="cedilla" unicode="&#xb8;" horiz-adv-x="404" 
d="M126 -147h-27c-6 0 -9 4 -6 10l77 137c4 7 7 10 14 10h22c6 0 9 -4 6 -10l-69 -137c-4 -8 -9 -10 -17 -10z" />
    <glyph glyph-name="ogonek" unicode="&#x2db;" horiz-adv-x="404" 
d="M133 -170c-32 0 -56 20 -56 54c0 40 26 72 89 116c10 7 16 10 24 10h30c6 0 7 -6 2 -10c-79 -53 -99 -79 -99 -104c0 -15 9 -23 24 -23c11 0 18 3 29 9c5 3 9 2 11 -2l7 -20c2 -5 0 -8 -6 -13c-13 -9 -33 -17 -55 -17z" />
    <glyph glyph-name="commaaccent" horiz-adv-x="404" 
d="M111 -196c-6 0 -9 4 -8 10l21 121c1 6 6 10 12 10h35c6 0 9 -4 8 -10l-7 -45c-2 -10 -4 -13 -9 -22l-40 -56c-4 -5 -7 -8 -12 -8z" />
    <glyph glyph-name="commaaccent.alt" horiz-adv-x="404" 
d="M282 573h-36c-6 0 -9 4 -8 10l8 45c2 9 3 13 8 21l41 56c4 6 7 8 12 8s8 -3 7 -9l-21 -121c-1 -6 -5 -10 -11 -10z" />
    <glyph glyph-name="ellipsis" unicode="&#x2026;" horiz-adv-x="625" 
d="M514 75l-11 -65c-1 -6 -5 -10 -11 -10h-45c-6 0 -10 4 -9 10l11 65c1 6 5 10 11 10h45c6 0 10 -4 9 -10zM305 75l-10 -65c-1 -6 -5 -10 -11 -10h-46c-6 0 -9 4 -8 10l11 65c1 6 5 10 11 10h45c6 0 9 -4 8 -10zM97 75l-10 -65c-1 -6 -5 -10 -11 -10h-46c-6 0 -9 4 -8 10
l10 65c1 6 5 10 11 10h46c6 0 9 -4 8 -10z" />
    <glyph glyph-name="uni00AD" unicode="&#xad;" horiz-adv-x="358" 
d="M305 242h-244c-6 0 -9 4 -8 10l5 30c1 6 5 9 11 9h245c6 0 9 -4 8 -10l-6 -31c-1 -6 -5 -8 -11 -8z" />
    <glyph glyph-name="exclamdown" unicode="&#xa1;" horiz-adv-x="253" 
d="M155 301c5 0 9 -4 8 -10l-78 -484c-1 -6 -5 -10 -11 -10h-37c-6 0 -9 4 -8 10l94 484c1 6 5 10 11 10h21zM206 467l-12 -65c-1 -6 -5 -10 -11 -10h-45c-6 0 -9 4 -8 10l10 65c2 6 6 10 12 10h45c6 0 10 -4 9 -10z" />
    <glyph glyph-name="questiondown" unicode="&#xbf;" horiz-adv-x="428" 
d="M258 304c6 0 9 -4 8 -10l-8 -40c-7 -41 -19 -67 -49 -99l-64 -72c-63 -66 -86 -105 -86 -154c0 -60 39 -94 96 -94c65 0 116 44 141 114c2 6 6 9 12 8l30 -5c6 -1 7 -6 5 -12c-29 -93 -101 -153 -196 -153c-87 0 -139 55 -139 135c0 57 28 110 88 175l64 73
c33 35 40 49 48 88l8 36c1 6 5 10 11 10h31zM300 467l-11 -65c-1 -6 -5 -10 -11 -10h-45c-6 0 -9 4 -8 10l10 65c1 6 5 10 11 10h46c6 0 9 -4 8 -10z" />
    <glyph glyph-name="quoteleft" unicode="&#x2018;" horiz-adv-x="199" 
d="M171 523h-36c-6 0 -8 4 -7 10l12 68c2 10 4 16 8 22l39 50c3 6 7 8 12 8s8 -3 7 -9l-24 -139c-1 -6 -5 -10 -11 -10z" />
    <glyph glyph-name="quoteright" unicode="&#x2019;" horiz-adv-x="199" 
d="M135 522c-5 0 -8 3 -7 9l23 139c1 6 5 10 11 10h37c6 0 8 -4 7 -10l-12 -67c-2 -10 -4 -17 -8 -22l-39 -51c-4 -5 -7 -8 -12 -8z" />
    <glyph glyph-name="quotedblleft" unicode="&#x201c;" horiz-adv-x="330" 
d="M302 523h-36c-6 0 -8 4 -7 10l12 68c2 10 4 16 8 22l39 50c3 6 7 8 12 8s8 -3 7 -9l-24 -139c-1 -6 -5 -10 -11 -10zM171 523h-36c-6 0 -8 4 -7 10l12 68c2 10 4 16 8 22l39 50c3 6 7 8 12 8s8 -3 7 -9l-24 -139c-1 -6 -5 -10 -11 -10z" />
    <glyph glyph-name="quotedblright" unicode="&#x201d;" horiz-adv-x="330" 
d="M266 522c-5 0 -8 3 -7 9l24 139c1 6 5 10 11 10h36c6 0 8 -4 7 -10l-12 -67c-2 -10 -4 -17 -8 -22l-39 -51c-4 -5 -7 -8 -12 -8zM135 522c-5 0 -8 3 -7 9l23 139c1 6 5 10 11 10h37c6 0 8 -4 7 -10l-12 -67c-2 -10 -4 -17 -8 -22l-39 -51c-4 -5 -7 -8 -12 -8z" />
    <glyph glyph-name="quotesinglbase" unicode="&#x201a;" horiz-adv-x="199" 
d="M28 -83c-5 0 -8 3 -7 9l23 139c1 6 5 10 11 10h37c6 0 8 -4 7 -10l-12 -67c-2 -10 -4 -17 -8 -22l-39 -51c-4 -5 -7 -8 -12 -8z" />
    <glyph glyph-name="quotedblbase" unicode="&#x201e;" horiz-adv-x="330" 
d="M159 -83c-5 0 -8 3 -7 9l24 139c1 6 5 10 11 10h36c6 0 8 -4 7 -10l-12 -67c-2 -10 -4 -17 -8 -22l-39 -51c-3 -5 -7 -8 -12 -8zM28 -83c-5 0 -8 3 -7 9l23 139c1 6 5 10 11 10h37c6 0 8 -4 7 -10l-12 -67c-2 -10 -4 -17 -8 -22l-39 -51c-4 -5 -7 -8 -12 -8z" />
    <glyph glyph-name="guilsinglleft" unicode="&#x2039;" horiz-adv-x="297" 
d="M188 84l-132 173c-4 5 -3 10 2 14l193 173c4 4 10 2 9 -4l-6 -42c-2 -8 -4 -12 -10 -19l-130 -114c-4 -3 -4 -5 -2 -8l88 -114c5 -6 6 -11 5 -19l-6 -37c-1 -6 -7 -7 -11 -3z" />
    <glyph glyph-name="guilsinglright" unicode="&#x203a;" horiz-adv-x="297" 
d="M60 84c-4 -4 -10 -2 -9 4l7 42c1 7 3 11 10 18l130 114c3 3 4 5 2 8l-89 115c-4 6 -5 10 -4 18l6 37c1 6 7 8 10 4l133 -174c4 -4 3 -10 -2 -14z" />
    <glyph glyph-name="guillemotleft" unicode="&#xab;" horiz-adv-x="490" 
d="M381 84l-133 173c-3 5 -3 10 2 14l194 173c4 4 10 2 9 -4l-6 -42c-2 -8 -4 -12 -10 -19l-130 -114c-4 -3 -4 -5 -2 -8l88 -114c5 -6 6 -11 4 -19l-5 -37c-1 -6 -7 -7 -11 -3zM188 84l-132 173c-4 5 -3 10 2 14l193 173c4 4 10 2 9 -4l-6 -42c-2 -8 -4 -12 -10 -19
l-130 -114c-4 -3 -4 -5 -2 -8l88 -114c5 -6 6 -11 5 -19l-6 -37c-1 -6 -7 -7 -11 -3z" />
    <glyph glyph-name="guillemotright" unicode="&#xbb;" horiz-adv-x="490" 
d="M253 84c-4 -4 -10 -2 -9 4l7 42c1 7 3 11 10 18l130 114c3 3 4 5 2 8l-89 115c-5 6 -6 10 -4 18l6 37c1 6 7 8 10 4l133 -174c3 -4 3 -10 -2 -14zM60 84c-4 -4 -10 -2 -9 4l7 42c1 7 3 11 10 18l130 114c3 3 4 5 2 8l-89 115c-4 6 -5 10 -4 18l6 37c1 6 7 8 10 4
l133 -174c4 -4 3 -10 -2 -14z" />
    <glyph glyph-name="endash" unicode="&#x2013;" horiz-adv-x="484" 
d="M452 244h-411c-5 0 -8 4 -7 10l4 27c1 6 5 8 11 8h410c6 0 9 -4 8 -10l-4 -26c-1 -6 -5 -9 -11 -9z" />
    <glyph glyph-name="emdash" unicode="&#x2014;" horiz-adv-x="796" 
d="M764 244h-723c-5 0 -8 4 -7 10l4 27c1 6 5 8 11 8h722c6 0 9 -4 8 -10l-4 -26c-1 -6 -5 -9 -11 -9z" />
    <glyph glyph-name="bullet" unicode="&#x2022;" horiz-adv-x="360" 
d="M198 192c-66 0 -115 49 -115 116s49 116 115 116c65 0 114 -49 114 -116s-49 -116 -114 -116z" />
    <glyph glyph-name="periodcentered" unicode="&#xb7;" horiz-adv-x="209" 
d="M129 223h-46c-6 0 -9 4 -8 10l11 65c1 6 5 10 11 10h45c6 0 9 -4 8 -10l-10 -65c-1 -6 -5 -10 -11 -10z" />
    <glyph glyph-name="uni2219" unicode="&#x2219;" horiz-adv-x="209" 
d="M129 223h-46c-6 0 -9 4 -8 10l11 65c1 6 5 10 11 10h45c6 0 9 -4 8 -10l-10 -65c-1 -6 -5 -10 -11 -10z" />
    <glyph glyph-name="dagger" unicode="&#x2020;" horiz-adv-x="424" 
d="M157 -180h-29c-6 0 -9 4 -8 10l96 545c1 4 -1 6 -4 6h-131c-6 0 -9 4 -8 10l4 27c1 6 6 9 12 9h129c4 0 7 2 8 6l42 237c1 7 5 10 11 10h29c6 0 10 -4 9 -10l-43 -237c-1 -4 1 -6 5 -6h130c6 0 9 -4 8 -10l-4 -27c-1 -6 -5 -9 -11 -9h-130c-4 0 -6 -2 -7 -6l-96 -545
c-2 -7 -6 -10 -12 -10z" />
    <glyph glyph-name="daggerdbl" unicode="&#x2021;" horiz-adv-x="424" 
d="M152 -180h-29c-6 0 -10 4 -8 10l37 210c1 4 -1 6 -4 6h-131c-6 0 -9 4 -8 10l4 27c1 6 5 9 11 9h130c4 0 7 2 8 6l54 306c1 4 -1 6 -4 6h-131c-6 0 -9 4 -8 10l4 27c1 6 5 9 11 9h130c4 0 7 2 8 6l37 208c1 7 5 10 11 10h29c6 0 10 -4 9 -10l-38 -208c-1 -4 1 -6 5 -6
h130c6 0 9 -4 8 -10l-4 -27c-1 -6 -5 -9 -11 -9h-130c-4 0 -6 -2 -7 -6l-55 -306c-1 -4 1 -6 5 -6h130c6 0 9 -4 8 -10l-4 -27c-1 -6 -5 -9 -11 -9h-130c-4 0 -6 -2 -7 -6l-37 -210c-2 -6 -6 -10 -12 -10z" />
    <glyph glyph-name="section" unicode="&#xa7;" horiz-adv-x="505" 
d="M180 -192c-97 0 -138 58 -127 146c1 6 3 11 9 12l30 6c6 1 8 -3 8 -8c-9 -66 11 -111 87 -111c71 0 124 51 124 128c0 51 -28 79 -115 97c-74 16 -107 62 -107 130c0 97 50 184 140 209v1c-42 19 -64 56 -64 98c0 98 65 176 174 176c86 0 130 -56 120 -135
c-1 -6 -4 -9 -10 -10l-29 -6c-7 -1 -9 2 -8 7c8 57 -16 99 -81 99c-72 0 -117 -53 -117 -123c0 -48 29 -77 107 -96c72 -17 107 -61 107 -131c0 -94 -47 -181 -135 -208v-1c44 -17 66 -53 66 -99c0 -105 -74 -181 -179 -181zM236 121c88 0 143 75 143 167
c0 62 -39 96 -98 96c-87 0 -143 -75 -143 -167c0 -61 39 -96 98 -96z" />
    <glyph glyph-name="paragraph" unicode="&#xb6;" horiz-adv-x="543" 
d="M380 -180h-28c-6 0 -9 4 -8 10l141 798c1 4 -1 6 -5 6h-95c-3 0 -5 -2 -6 -6l-141 -798c-1 -6 -5 -10 -11 -10h-27c-6 0 -9 4 -8 10l77 438c-103 6 -159 78 -153 176c6 134 107 236 251 236h164c5 0 9 -4 8 -10l-148 -840c-1 -6 -5 -10 -11 -10z" />
    <glyph glyph-name="brokenbar" unicode="&#xa6;" horiz-adv-x="236" 
d="M150 388h-25c-6 0 -10 4 -10 10v332c0 6 4 10 10 10h25c6 0 10 -4 10 -10v-332c0 -6 -4 -10 -10 -10zM150 -84h-25c-6 0 -10 4 -10 10v336c0 6 4 10 10 10h25c6 0 10 -4 10 -10v-336c0 -6 -4 -10 -10 -10z" />
    <glyph glyph-name="copyright" unicode="&#xa9;" horiz-adv-x="831" 
d="M437 -10c-199 0 -350 151 -350 350s151 350 350 350s350 -151 350 -350s-151 -350 -350 -350zM437 30c176 0 308 132 308 310s-132 310 -308 310c-177 0 -309 -132 -309 -310s132 -310 309 -310zM444 144c-70 0 -122 35 -143 101c-7 22 -11 45 -11 95s4 73 11 95
c21 66 73 101 143 101c61 0 106 -31 130 -70c3 -5 1 -10 -4 -13l-15 -14c-5 -3 -10 -2 -13 3c-22 33 -49 54 -98 54c-52 0 -87 -24 -104 -73c-6 -19 -8 -38 -8 -83s2 -64 8 -83c17 -49 52 -73 104 -73c49 0 76 21 98 54c3 5 8 6 13 3l15 -14c5 -3 7 -8 4 -13
c-24 -39 -69 -70 -130 -70z" />
    <glyph glyph-name="registered" unicode="&#xae;" horiz-adv-x="461" 
d="M277 300c-110 0 -193 83 -193 193c0 109 83 192 193 192c109 0 192 -83 192 -192c0 -110 -83 -193 -192 -193zM277 329c92 0 162 69 162 164c0 94 -70 163 -162 163c-94 0 -163 -69 -163 -163c0 -95 69 -164 163 -164zM228 386h-15c-6 0 -9 3 -9 9v198c0 6 3 9 9 9h79
c43 0 68 -25 68 -63c0 -29 -14 -51 -42 -59l42 -84c4 -7 0 -10 -6 -10h-17c-5 0 -8 4 -10 7l-42 83h-45c-2 0 -3 -1 -3 -2v-79c0 -6 -4 -9 -9 -9zM291 506c27 0 38 12 38 33s-11 34 -38 34h-51c-2 0 -3 -1 -3 -2v-63c0 -2 1 -2 3 -2h51z" />
    <glyph glyph-name="trademark" unicode="&#x2122;" horiz-adv-x="816" 
d="M788 286h-20c-6 0 -10 4 -10 10v289h-2l-115 -235c-3 -6 -6 -8 -12 -8h-18c-6 0 -8 2 -11 8l-115 235h-2v-289c0 -6 -4 -10 -10 -10h-20c-6 0 -10 4 -10 10v374c0 6 4 10 10 10h21c6 0 10 -3 13 -9l134 -277h2l131 277c3 6 6 9 12 9h22c6 0 10 -4 10 -10v-374
c0 -6 -4 -10 -10 -10zM232 286h-21c-6 0 -10 4 -10 10v340c0 4 -2 6 -6 6h-111c-6 0 -10 4 -10 10v18c0 6 4 10 10 10h275c6 0 10 -4 10 -10v-18c0 -6 -4 -10 -10 -10h-111c-4 0 -6 -2 -6 -6v-340c0 -6 -4 -10 -10 -10z" />
    <glyph glyph-name="currency" unicode="&#xa4;" 
d="M447 128l-20 -18c-5 -5 -10 -4 -13 0l-51 63c-34 -24 -75 -38 -120 -38c-44 0 -80 14 -106 39l-74 -65c-5 -4 -9 -4 -13 0l-16 21c-3 4 -3 9 2 14l74 65c-12 22 -18 49 -18 78c0 61 22 117 60 158l-48 62c-4 4 -4 9 1 13l20 19c5 4 10 4 13 0l50 -63c34 23 74 37 119 37
c43 0 79 -15 105 -39l75 66c5 4 9 4 13 0l16 -22c3 -3 4 -8 -2 -13l-75 -66c12 -23 19 -49 19 -78c0 -61 -22 -116 -59 -157l50 -63c3 -4 3 -9 -2 -13zM247 179c93 0 167 81 167 176c0 67 -44 114 -111 114c-93 0 -166 -81 -166 -176c0 -67 43 -114 110 -114z" />
    <glyph glyph-name="Euro" unicode="&#x20ac;" 
d="M241 -10c-95 0 -151 54 -151 157c0 26 3 51 13 107c1 4 -1 6 -5 6h-45c-6 0 -9 4 -8 10l4 23c1 6 5 10 11 10h45c4 0 6 2 7 6l13 69c1 3 -1 6 -5 6h-45c-6 0 -9 4 -8 10l3 22c1 6 6 10 12 10h44c4 0 6 1 7 5c14 69 24 106 39 137c39 82 107 122 192 122
c90 0 133 -55 147 -117c2 -6 -1 -10 -6 -12l-26 -13c-5 -2 -10 0 -12 6c-16 56 -46 88 -111 88c-59 0 -109 -30 -137 -87c-12 -25 -24 -57 -35 -123c-1 -4 1 -6 5 -6h197c6 0 8 -6 5 -11l-11 -22c-3 -5 -7 -9 -13 -9h-186c-4 0 -6 -2 -7 -6l-12 -69c-1 -4 1 -6 5 -6h178
c6 0 8 -6 5 -11l-12 -23c-3 -5 -8 -9 -13 -9h-165c-4 0 -6 -2 -7 -6c-11 -63 -13 -80 -13 -99c0 -79 36 -117 108 -117c62 0 109 36 143 88c3 6 8 8 13 6l24 -13c4 -2 6 -7 3 -13c-37 -63 -100 -116 -190 -116z" />
    <glyph glyph-name="cent" unicode="&#xa2;" 
d="M219 -102h-13c-6 0 -9 4 -8 10l14 83c-86 8 -131 64 -131 159c0 70 15 150 44 213c36 74 96 117 174 123l15 82c1 6 5 10 11 10h13c6 0 9 -4 8 -10l-14 -81c64 -4 107 -37 127 -92c2 -6 1 -11 -4 -14l-25 -14c-6 -4 -11 -2 -13 4c-17 44 -46 65 -94 68l-70 -401
c42 4 81 23 118 69c4 5 10 6 15 2l20 -18c5 -4 4 -10 0 -15c-41 -52 -97 -83 -162 -86l-14 -82c-1 -6 -5 -10 -11 -10zM132 159c0 -69 25 -112 89 -120l70 398c-47 -7 -92 -39 -117 -90c-30 -61 -42 -143 -42 -188z" />
    <glyph glyph-name="sterling" unicode="&#xa3;" 
d="M383 0h-314c-6 0 -9 4 -8 10l4 29c1 4 4 7 7 10c31 28 47 51 58 109l24 135c1 4 -1 6 -5 6h-47c-6 0 -9 4 -8 10l4 23c1 6 6 10 12 10h47c4 0 6 2 7 6l30 169c20 119 83 173 170 173c73 0 116 -46 120 -119c0 -6 -1 -10 -8 -12l-29 -8c-7 -2 -10 1 -10 7
c-3 53 -33 84 -79 84c-58 0 -100 -42 -113 -119l-31 -175c-1 -4 1 -6 4 -6h132c6 0 9 -4 8 -10l-4 -23c-1 -6 -6 -10 -12 -10h-131c-4 0 -6 -2 -7 -6l-23 -129c-10 -61 -26 -91 -53 -114v-2h262c5 0 9 -4 8 -10l-4 -28c-1 -6 -5 -10 -11 -10z" />
    <glyph glyph-name="florin" unicode="&#x192;" 
d="M414 350h-103l-126 -390c-34 -103 -77 -140 -162 -140h-21c-6 0 -9 4 -8 10l4 27c1 7 6 10 12 10h19c52 0 82 23 105 91l127 392h-82c-6 0 -9 4 -8 10l4 24c1 6 6 10 12 10h88l48 146c34 103 78 140 162 140h21c6 0 10 -4 9 -10l-5 -27c-1 -7 -6 -10 -12 -10h-19
c-52 0 -82 -23 -105 -91l-48 -148h96c6 0 9 -4 8 -10l-4 -24c-1 -6 -6 -10 -12 -10z" />
    <glyph glyph-name="yen" unicode="&#xa5;" 
d="M237 0h-31c-6 0 -9 4 -8 10l26 145c1 4 -1 6 -5 6h-127c-6 0 -9 4 -8 10l4 22c1 6 5 10 11 10h127c4 0 6 2 7 6l11 63c1 4 -1 6 -5 6h-127c-6 0 -9 4 -8 10l4 22c1 6 6 10 12 10h115v2l-94 347c-2 6 1 11 8 11h33c7 0 10 -3 12 -10l85 -330h2l201 330c5 7 7 10 17 10h31
c7 0 10 -6 5 -13l-215 -345v-2h116c6 0 9 -4 8 -10l-3 -22c-1 -6 -6 -10 -12 -10h-128c-3 0 -6 -2 -7 -6l-11 -63c-1 -4 1 -6 5 -6h128c6 0 9 -4 8 -10l-4 -22c-1 -6 -5 -10 -11 -10h-129c-3 0 -5 -2 -6 -6l-26 -145c-1 -6 -5 -10 -11 -10z" />
    <glyph glyph-name="ordfeminine" unicode="&#xaa;" horiz-adv-x="325" 
d="M294 392h-22c-5 0 -9 4 -8 10l4 20h-1c-20 -23 -55 -36 -95 -36c-51 0 -85 27 -85 73c0 71 56 103 132 103h67c3 0 5 2 6 6l5 21c7 40 -6 60 -63 60c-29 0 -56 -10 -76 -22c-6 -4 -12 -4 -14 1l-6 18c-2 5 -1 11 4 14c24 16 61 27 102 27c81 0 105 -32 93 -100l-33 -185
c-1 -6 -4 -10 -10 -10zM187 423c47 0 85 27 91 58l7 40c1 4 -1 6 -5 6h-64c-53 0 -87 -21 -87 -61c0 -26 22 -43 58 -43z" />
    <glyph glyph-name="ordmasculine" unicode="&#xba;" horiz-adv-x="332" 
d="M195 385c-62 0 -101 35 -101 105c0 35 9 82 26 119c27 54 70 78 127 78c61 0 101 -35 101 -105c0 -35 -9 -82 -26 -119c-27 -54 -70 -78 -127 -78zM201 425c38 0 63 19 82 53c14 27 21 71 21 97c0 45 -18 72 -62 72c-39 0 -64 -19 -83 -53c-14 -27 -21 -71 -21 -97
c0 -45 18 -72 63 -72z" />
    <glyph glyph-name="fraction" unicode="&#x2044;" horiz-adv-x="201" 
d="M-121 -10h-25c-6 0 -9 4 -4 10l497 680c5 7 9 10 16 10h25c6 0 7 -4 4 -10l-497 -680c-6 -7 -9 -10 -16 -10z" />
    <glyph glyph-name="uni2215" unicode="&#x2215;" horiz-adv-x="201" 
d="M-121 -10h-25c-6 0 -9 4 -4 10l497 680c5 7 9 10 16 10h25c6 0 7 -4 4 -10l-497 -680c-6 -7 -9 -10 -16 -10z" />
    <glyph glyph-name="onequarter" unicode="&#xbc;" horiz-adv-x="793" 
d="M173 -10h-25c-6 0 -9 4 -4 10l497 680c5 7 9 10 16 10h25c6 0 7 -4 4 -10l-497 -680c-6 -7 -9 -10 -16 -10zM213 274h-22c-6 0 -9 4 -8 10l60 341h-2l-74 -46c-5 -4 -10 -1 -9 5l4 28c1 7 4 10 10 14l74 48c6 4 11 6 16 6h22c6 0 10 -4 9 -10l-68 -386
c-1 -6 -6 -10 -12 -10zM617 0h-22c-5 0 -8 4 -7 10l10 61c1 4 -1 6 -5 6h-155c-5 0 -9 4 -8 10l3 21c1 5 3 9 7 15l177 273c4 7 9 10 14 10h27c5 0 8 -5 4 -10l-178 -278v-1h116c4 0 6 2 7 6l18 100c1 6 5 10 11 10h22c6 0 9 -4 8 -10l-17 -100c-1 -4 1 -6 5 -6h35
c6 0 8 -4 7 -10l-3 -21c-1 -6 -4 -9 -10 -9h-37c-3 0 -5 -2 -6 -6l-11 -61c-1 -6 -6 -10 -12 -10z" />
    <glyph glyph-name="onehalf" unicode="&#xbd;" horiz-adv-x="823" 
d="M173 -10h-25c-6 0 -9 4 -4 10l497 680c5 7 9 10 16 10h25c6 0 7 -4 4 -10l-497 -680c-6 -7 -9 -10 -16 -10zM213 274h-22c-6 0 -9 4 -8 10l60 341h-2l-74 -46c-5 -4 -10 -1 -9 5l4 28c1 7 4 10 10 14l74 48c6 4 11 6 16 6h22c6 0 10 -4 9 -10l-68 -386
c-1 -6 -6 -10 -12 -10zM695 0h-215c-6 0 -9 4 -8 10l4 20c1 5 3 9 8 14l182 183c25 25 49 54 49 90c0 34 -22 55 -58 55c-39 0 -68 -23 -84 -61c-2 -6 -6 -9 -12 -8l-21 5c-5 1 -7 5 -5 12c16 49 62 93 127 93c62 0 95 -40 95 -89c0 -47 -23 -84 -61 -122l-162 -161v-1h168
c5 0 9 -4 8 -10l-3 -20c-1 -6 -6 -10 -12 -10z" />
    <glyph glyph-name="threequarters" unicode="&#xbe;" horiz-adv-x="856" 
d="M237 -10h-25c-6 0 -9 4 -4 10l497 680c5 7 9 10 16 10h25c6 0 7 -4 4 -10l-497 -680c-6 -7 -9 -10 -16 -10zM680 0h-22c-5 0 -8 4 -7 10l10 61c1 4 -1 6 -5 6h-155c-5 0 -9 4 -8 10l3 21c1 5 3 9 7 15l177 273c4 7 9 10 14 10h27c5 0 8 -5 4 -10l-178 -278v-1h116
c4 0 6 2 7 6l18 100c1 6 5 10 11 10h22c6 0 9 -4 8 -10l-17 -100c-1 -4 1 -6 5 -6h35c6 0 8 -4 7 -10l-3 -21c-1 -6 -4 -9 -10 -9h-37c-3 0 -5 -2 -6 -6l-11 -61c-1 -6 -6 -10 -12 -10zM222 267c-63 0 -98 37 -105 83c-1 6 1 10 8 12l22 6c7 2 9 -1 11 -7
c5 -29 26 -53 68 -53c53 0 93 41 93 94c0 36 -24 62 -66 62h-17c-5 0 -8 4 -7 10l3 21c1 6 5 10 12 10h13c47 0 87 37 87 87c0 32 -21 54 -59 54c-40 0 -66 -20 -80 -48c-3 -6 -6 -9 -12 -8l-20 6c-6 1 -7 5 -5 11c17 42 58 80 123 80c61 0 96 -37 96 -87
c0 -47 -22 -88 -69 -112v-1c21 -11 44 -37 44 -78c0 -82 -57 -142 -140 -142z" />
    <glyph glyph-name="perthousand" unicode="&#x2030;" horiz-adv-x="1023" 
d="M147 -10h-25c-6 0 -8 4 -4 10l499 680c5 7 8 10 15 10h25c6 0 7 -4 4 -10l-498 -680c-5 -7 -9 -10 -16 -10zM217 330c-56 0 -94 33 -94 93c0 38 21 154 39 191c24 50 60 74 113 74c55 0 93 -33 93 -93c0 -38 -20 -154 -38 -191c-24 -50 -61 -74 -113 -74zM221 368
c31 0 54 15 70 46c17 34 36 141 36 178c0 35 -19 58 -56 58c-31 0 -55 -15 -71 -46c-17 -34 -36 -141 -36 -178c0 -35 19 -58 57 -58zM795 -8c-55 0 -93 33 -93 92c0 38 20 155 38 192c24 50 61 74 114 74c55 0 93 -33 93 -93c0 -38 -20 -155 -38 -192
c-24 -49 -61 -73 -114 -73zM505 -8c-55 0 -94 33 -94 92c0 38 21 155 39 192c24 50 61 74 113 74c55 0 94 -33 94 -93c0 -38 -21 -155 -39 -192c-24 -49 -60 -73 -113 -73zM799 30c31 0 55 15 71 45c17 34 36 142 36 179c0 35 -19 57 -57 57c-31 0 -54 -14 -70 -45
c-18 -34 -37 -141 -37 -178c0 -35 20 -58 57 -58zM509 30c31 0 54 15 70 45c18 34 37 142 37 179c0 35 -20 57 -57 57c-31 0 -54 -14 -71 -45c-17 -34 -36 -141 -36 -178c0 -35 19 -58 57 -58z" />
    <glyph glyph-name="minus" unicode="&#x2212;" 
d="M447 253h-376c-6 0 -10 4 -10 10v27c0 6 4 10 10 10h376c6 0 10 -4 10 -10v-27c0 -6 -4 -10 -10 -10z" />
    <glyph glyph-name="plusminus" unicode="&#xb1;" 
d="M273 107h-28c-6 0 -10 4 -10 10v160c0 4 -2 6 -6 6h-158c-6 0 -10 4 -10 10v28c0 6 4 10 10 10h158c4 0 6 2 6 6v160c0 6 4 10 10 10h28c6 0 10 -4 10 -10v-160c0 -4 2 -6 6 -6h158c6 0 10 -4 10 -10v-28c0 -6 -4 -10 -10 -10h-158c-4 0 -6 -2 -6 -6v-160
c0 -6 -4 -10 -10 -10zM447 0h-376c-6 0 -10 4 -10 10v28c0 6 4 10 10 10h376c6 0 10 -4 10 -10v-28c0 -6 -4 -10 -10 -10z" />
    <glyph glyph-name="multiply" unicode="&#xd7;" 
d="M433 131l-17 -20c-4 -4 -10 -4 -14 0l-129 127c-3 3 -5 3 -8 0l-128 -127c-4 -4 -10 -4 -14 0l-18 20c-4 4 -4 10 0 14l129 127c3 3 3 5 0 8l-129 127c-4 4 -4 10 0 14l18 20c4 4 10 4 14 0l128 -127c3 -3 5 -3 8 0l129 127c4 4 10 4 14 0l17 -20c4 -4 4 -10 0 -14
l-128 -127c-3 -3 -3 -5 0 -8l128 -127c4 -4 4 -10 0 -14z" />
    <glyph glyph-name="divide" unicode="&#xf7;" 
d="M261 377c-24 0 -42 19 -42 43s18 43 42 43c23 0 41 -19 41 -43s-18 -43 -41 -43zM449 253h-376c-6 0 -10 4 -10 10v27c0 6 4 10 10 10h376c6 0 10 -4 10 -10v-27c0 -6 -4 -10 -10 -10zM261 88c-24 0 -42 19 -42 43s18 43 42 43c23 0 41 -19 41 -43s-18 -43 -41 -43z" />
    <glyph glyph-name="notequal" unicode="&#x2260;" 
d="M137 45h-25c-6 0 -8 5 -5 10l57 100h-97c-6 0 -10 4 -10 10v28c0 6 4 10 10 10h124l83 146h-207c-6 0 -10 4 -10 10v28c0 6 4 10 10 10h235l57 100c3 7 8 10 14 10h25c6 0 8 -5 5 -10l-57 -100h97c6 0 10 -4 10 -10v-28c0 -6 -4 -10 -10 -10h-125l-83 -146h208
c6 0 10 -4 10 -10v-28c0 -6 -4 -10 -10 -10h-235l-57 -100c-3 -7 -8 -10 -14 -10z" />
    <glyph glyph-name="approxequal" unicode="&#x2248;" 
d="M348 313c-41 0 -71 20 -97 39c-23 16 -46 32 -75 32c-35 0 -57 -17 -82 -57c-3 -5 -8 -6 -13 -2l-18 11c-5 3 -6 7 -3 14c25 49 68 79 118 79c41 0 71 -21 97 -40c23 -16 46 -31 75 -31c34 0 57 17 81 56c3 5 9 6 14 3l17 -11c6 -3 7 -7 3 -14c-24 -49 -67 -79 -117 -79z
M348 123c-41 0 -71 21 -97 40c-23 16 -46 31 -75 31c-35 0 -57 -17 -82 -56c-3 -5 -8 -6 -13 -3l-18 11c-5 3 -6 7 -3 14c25 49 68 79 118 79c41 0 71 -20 97 -39c23 -16 46 -32 75 -32c34 0 57 17 81 57c3 5 9 6 14 2l17 -11c6 -3 7 -7 3 -14c-24 -49 -67 -79 -117 -79z
" />
    <glyph glyph-name="lessequal" unicode="&#x2264;" 
d="M449 128l-376 154c-8 3 -10 7 -10 13v23c0 7 2 10 10 13l376 154c6 2 10 -1 10 -7v-32c0 -7 -2 -10 -10 -13l-319 -125v-2l319 -126c8 -3 10 -6 10 -13v-32c0 -6 -4 -9 -10 -7zM449 0h-376c-6 0 -10 4 -10 10v28c0 6 4 10 10 10h376c6 0 10 -4 10 -10v-28
c0 -6 -4 -10 -10 -10z" />
    <glyph glyph-name="greaterequal" unicode="&#x2265;" 
d="M445 282l-376 -154c-6 -2 -10 1 -10 7v32c0 7 2 10 10 13l318 126v2l-318 125c-8 3 -10 6 -10 13v32c0 6 4 9 10 7l376 -154c8 -3 10 -6 10 -13v-23c0 -6 -2 -10 -10 -13zM445 0h-376c-6 0 -10 4 -10 10v28c0 6 4 10 10 10h376c6 0 10 -4 10 -10v-28c0 -6 -4 -10 -10 -10
z" />
    <glyph glyph-name="logicalnot" unicode="&#xac;" 
d="M443 119h-27c-6 0 -10 4 -10 10v118c0 4 -2 6 -6 6h-333c-6 0 -10 4 -10 10v27c0 6 4 10 10 10h376c6 0 10 -4 10 -10v-161c0 -6 -4 -10 -10 -10z" />
    <glyph glyph-name="Delta" unicode="&#x2206;" horiz-adv-x="565" 
d="M497 0h-497c-6 0 -8 4 -5 10l345 660c3 6 7 10 13 10h33c5 0 8 -4 9 -10l110 -660c1 -6 -2 -10 -8 -10zM442 47c4 0 6 2 5 6l-89 541h-2l-283 -541c-2 -4 -1 -6 3 -6h366z" />
    <glyph glyph-name="Omega" unicode="&#x2126;" horiz-adv-x="605" 
d="M483 0h-166c-6 0 -9 4 -8 10l5 33c1 6 5 9 11 11c111 38 148 104 182 286c14 79 17 120 17 149c0 96 -48 150 -141 150c-83 0 -143 -40 -180 -115c-14 -28 -31 -70 -52 -184c-10 -56 -16 -100 -16 -137c0 -84 28 -124 97 -149c6 -2 8 -5 7 -11l-5 -33
c-1 -6 -5 -10 -11 -10h-165c-6 0 -9 4 -8 10l5 30c1 6 4 10 10 10h90l1 2c-48 29 -74 69 -74 147c0 37 7 85 17 141c21 119 37 164 53 198c50 105 129 152 239 152c117 0 187 -69 187 -194c0 -32 -4 -74 -18 -156c-32 -181 -73 -246 -157 -288v-2h87c5 0 8 -4 7 -10l-4 -30
c-1 -6 -5 -10 -10 -10z" />
    <glyph glyph-name="mu" unicode="&#xb5;" horiz-adv-x="521" 
d="M27 -180c-5 0 -9 4 -8 9l112 639c1 5 5 9 11 9h33c5 0 8 -4 7 -9l-47 -261c-9 -51 -9 -60 -9 -73c0 -62 30 -96 98 -96c51 0 130 39 147 135l52 295c1 5 5 9 11 9h33c5 0 8 -4 7 -10l-62 -351c-4 -20 -5 -35 -5 -45c0 -26 10 -26 26 -26c6 0 9 -4 8 -10l-4 -27
c-1 -7 -5 -11 -12 -11h-5c-42 0 -60 15 -63 53c0 6 0 14 1 21h-1c-32 -50 -84 -80 -145 -81c-50 0 -87 16 -103 56h-1l-38 -217c-1 -5 -5 -9 -10 -9h-33z" />
    <glyph glyph-name="degree" unicode="&#xb0;" horiz-adv-x="450" 
d="M276 401c-82 0 -143 61 -143 143s61 143 143 143s142 -61 142 -143s-60 -143 -142 -143zM276 439c60 0 104 45 104 105s-43 105 -104 105s-104 -45 -104 -105s44 -105 104 -105z" />
    <glyph glyph-name="afii61289" unicode="&#x2113;" horiz-adv-x="353" 
d="M80 214c-5 -4 -10 -4 -13 1l-11 21c-3 5 -2 11 3 14l66 53l38 213c21 122 62 174 126 174c45 0 75 -33 75 -91c0 -112 -81 -219 -193 -316l-32 -183c-8 -42 6 -62 34 -62c20 0 41 11 64 33c5 4 10 3 13 -1l11 -20c3 -5 2 -10 -2 -14c-29 -29 -63 -46 -98 -46
c-59 0 -84 40 -72 111l25 140zM214 519l-31 -172c78 77 134 157 134 249c0 32 -13 50 -33 50c-28 0 -53 -28 -70 -127z" />
    <glyph glyph-name="estimated" unicode="&#x212e;" horiz-adv-x="646" 
d="M322 -10c-141 0 -231 111 -231 249c0 139 90 248 231 248c140 0 232 -102 233 -248h-363v-164c34 -33 79 -51 130 -51c74 0 129 32 173 108l32 -21c-55 -84 -111 -121 -205 -121zM454 272v130c-39 35 -82 54 -132 54c-51 0 -96 -19 -130 -54v-130h262z" />
    <glyph glyph-name="infinity" unicode="&#x221e;" horiz-adv-x="770" 
d="M571 90c-66 0 -120 40 -186 121c-66 -80 -120 -121 -187 -121c-87 0 -150 63 -150 157c0 93 60 156 151 156c65 0 118 -41 185 -122c71 86 124 122 186 122c89 0 152 -60 152 -156c0 -92 -62 -157 -151 -157zM569 131c69 0 111 57 111 117c0 64 -39 114 -111 114
c-51 0 -91 -33 -157 -116c69 -85 105 -115 157 -115zM200 131c51 0 93 35 157 116c-66 82 -107 115 -157 115c-70 0 -110 -49 -110 -114c0 -66 46 -117 110 -117z" />
    <glyph glyph-name="partialdiff" unicode="&#x2202;" horiz-adv-x="509" 
d="M211 -10c-96 0 -150 68 -150 165c0 131 88 259 229 259c68 0 116 -30 147 -90h1c9 48 14 92 14 131c0 113 -39 188 -129 188c-38 0 -77 -15 -121 -45c-5 -4 -9 -2 -11 3l-11 24c-2 5 -1 9 5 14c42 30 93 51 146 51c120 0 169 -95 169 -227c0 -96 -25 -222 -68 -311
c-52 -107 -125 -162 -221 -162zM222 38c98 0 168 93 204 235c-28 62 -76 95 -135 95c-110 0 -181 -100 -181 -207c0 -75 42 -123 112 -123z" />
    <glyph glyph-name="integral" unicode="&#x222b;" horiz-adv-x="364" 
d="M19 -180c-7 0 -22 0 -30 2c-5 1 -8 4 -7 10l4 27c1 7 6 11 11 10c9 -1 18 -1 25 -1c48 0 78 37 93 115l103 581c22 128 68 175 148 177c7 0 22 -1 30 -2c5 -1 8 -4 7 -10l-4 -28c-1 -7 -6 -11 -11 -10c-9 1 -18 2 -25 2c-48 0 -78 -37 -93 -116l-103 -580
c-22 -128 -68 -175 -148 -177z" />
    <glyph glyph-name="radical" unicode="&#x221a;" horiz-adv-x="600" 
d="M244 -180h-25c-6 0 -9 4 -11 10l-88 302c-1 4 -4 5 -8 3l-76 -35c-7 -3 -11 -1 -12 4l-7 24c-2 6 0 11 5 13l118 54c6 3 11 1 12 -4l84 -297h3l370 836c3 7 7 10 13 10h28c6 0 9 -4 6 -10l-399 -900c-3 -7 -7 -10 -13 -10z" />
    <glyph glyph-name="summation" unicode="&#x2211;" horiz-adv-x="531" 
d="M474 -180h-403c-6 0 -10 4 -10 10v31c0 4 1 7 2 9l195 452l-190 362c-2 4 -3 7 -3 11v35c0 6 4 10 10 10h389c6 0 10 -4 10 -10v-35c0 -6 -4 -10 -10 -10h-333l186 -352c2 -5 2 -9 0 -14l-192 -444h349c6 0 10 -4 10 -10v-35c0 -6 -4 -10 -10 -10z" />
    <glyph glyph-name="product" unicode="&#x220f;" horiz-adv-x="637" 
d="M538 -180h-37c-6 0 -10 4 -10 10v849c0 4 -2 6 -6 6h-333c-4 0 -6 -2 -6 -6v-849c0 -6 -4 -10 -10 -10h-37c-6 0 -10 4 -10 10v900c0 6 4 10 10 10h439c6 0 10 -4 10 -10v-900c0 -6 -4 -10 -10 -10z" />
    <glyph glyph-name="lozenge" unicode="&#x25ca;" horiz-adv-x="535" 
d="M233 -52h-28c-6 0 -8 4 -9 10l-109 364c-1 5 0 9 3 14l236 364c4 6 8 10 14 10h27c7 0 9 -4 11 -10l107 -364c1 -5 0 -9 -3 -14l-235 -364c-4 -6 -8 -10 -14 -10zM230 10l208 324l-91 313h-2l-210 -324l93 -313h2z" />
    <glyph glyph-name="uniF8FF" unicode="&#xf8ff;" horiz-adv-x="470" 
d="M460 0h-450c-6 0 -10 4 -10 10v660c0 6 4 10 10 10h450c6 0 10 -4 10 -10v-660c0 -6 -4 -10 -10 -10zM425 37c4 0 6 2 6 6v594c0 4 -2 6 -6 6h-380c-4 0 -6 -2 -6 -6v-594c0 -4 2 -6 6 -6h380zM237 224h-22c-6 0 -10 4 -10 10v24c0 30 6 47 22 67l37 48
c30 36 37 53 37 80c0 42 -30 70 -72 70c-40 0 -67 -22 -77 -67c-1 -6 -5 -9 -12 -8l-21 4c-6 1 -9 5 -8 11c11 58 55 99 119 99c68 0 112 -48 112 -109c0 -38 -11 -62 -38 -94l-37 -48c-17 -21 -20 -31 -20 -55v-22c0 -6 -4 -10 -10 -10zM241 113h-31c-6 0 -10 4 -10 10v39
c0 6 4 10 10 10h31c6 0 10 -4 10 -10v-39c0 -6 -4 -10 -10 -10z" />
    <glyph glyph-name="uni03A9" unicode="&#x3a9;" horiz-adv-x="605" 
d="M483 0h-166c-6 0 -9 4 -8 10l5 33c1 6 5 9 11 11c111 38 148 104 182 286c14 79 17 120 17 149c0 96 -48 150 -141 150c-83 0 -143 -40 -180 -115c-14 -28 -31 -70 -52 -184c-10 -56 -16 -100 -16 -137c0 -84 28 -124 97 -149c6 -2 8 -5 7 -11l-5 -33
c-1 -6 -5 -10 -11 -10h-165c-6 0 -9 4 -8 10l5 30c1 6 4 10 10 10h90l1 2c-48 29 -74 69 -74 147c0 37 7 85 17 141c21 119 37 164 53 198c50 105 129 152 239 152c117 0 187 -69 187 -194c0 -32 -4 -74 -18 -156c-32 -181 -73 -246 -157 -288v-2h87c5 0 8 -4 7 -10l-4 -30
c-1 -6 -5 -10 -10 -10z" />
    <glyph glyph-name="uni03BC" unicode="&#x3bc;" horiz-adv-x="521" 
d="M27 -180c-5 0 -9 4 -8 9l112 639c1 5 5 9 11 9h33c5 0 8 -4 7 -9l-47 -261c-9 -51 -9 -60 -9 -73c0 -62 30 -96 98 -96c51 0 130 39 147 135l52 295c1 5 5 9 11 9h33c5 0 8 -4 7 -10l-62 -351c-4 -20 -5 -35 -5 -45c0 -26 10 -26 26 -26c6 0 9 -4 8 -10l-4 -27
c-1 -7 -5 -11 -12 -11h-5c-42 0 -60 15 -63 53c0 6 0 14 1 21h-1c-32 -50 -84 -80 -145 -81c-50 0 -87 16 -103 56h-1l-38 -217c-1 -5 -5 -9 -10 -9h-33z" />
    <glyph glyph-name="pi" unicode="&#x3c0;" horiz-adv-x="544" 
d="M78 0c-5 0 -9 3 -8 9l73 415c1 5 -2 7 -5 7h-63c-4 0 -8 2 -7 8l5 29c1 5 5 9 10 9h458c4 0 8 -2 7 -9l-4 -27c-1 -6 -4 -10 -13 -10h-58c-5 0 -7 -2 -8 -7l-56 -319c-2 -13 -3 -21 -3 -31c0 -24 16 -29 42 -29h5c6 0 9 -4 8 -10l-4 -28c-1 -6 -6 -10 -12 -10h-9
c-56 0 -83 26 -83 70c0 8 2 19 3 29l58 328c1 5 -2 7 -6 7h-207c-5 0 -7 -2 -8 -7l-73 -415c-1 -5 -5 -9 -9 -9h-33z" />
    <glyph glyph-name="uni0394" unicode="&#x394;" horiz-adv-x="565" 
d="M497 0h-497c-6 0 -8 4 -5 10l345 660c3 6 7 10 13 10h33c5 0 8 -4 9 -10l110 -660c1 -6 -2 -10 -8 -10zM442 47c4 0 6 2 5 6l-89 541h-2l-283 -541c-2 -4 -1 -6 3 -6h366z" />
    <glyph glyph-name="zero.denominator" horiz-adv-x="317" 
d="M120 -7c-61 0 -98 36 -98 98c0 42 29 207 47 244c25 54 67 78 124 78c61 0 99 -36 99 -98c0 -42 -30 -207 -48 -244c-25 -54 -67 -78 -124 -78zM126 34c34 0 60 13 79 51c17 34 43 188 43 225c0 38 -19 62 -61 62c-34 0 -60 -14 -78 -50c-17 -34 -44 -189 -44 -226
c0 -38 19 -62 61 -62z" />
    <glyph glyph-name="one.denominator" horiz-adv-x="317" 
d="M145 0h-22c-6 0 -9 4 -8 10l60 341h-2l-74 -46c-5 -4 -10 -1 -9 5l4 28c1 7 4 10 10 14l74 48c6 4 11 6 16 6h22c6 0 10 -4 9 -10l-68 -386c-1 -6 -6 -10 -12 -10z" />
    <glyph glyph-name="two.denominator" horiz-adv-x="317" 
d="M227 0h-215c-6 0 -9 4 -8 10l4 20c1 5 3 9 8 14l182 183c25 25 49 54 49 90c0 34 -22 55 -58 55c-39 0 -68 -23 -84 -61c-2 -6 -6 -9 -12 -8l-21 5c-5 1 -7 5 -5 12c16 49 62 93 127 93c62 0 95 -40 95 -89c0 -47 -23 -84 -61 -122l-162 -161v-1h168c5 0 9 -4 8 -10
l-3 -20c-1 -6 -6 -10 -12 -10z" />
    <glyph glyph-name="three.denominator" horiz-adv-x="317" 
d="M121 -7c-63 0 -98 37 -105 83c-1 6 1 10 8 12l22 6c7 2 9 -1 11 -7c5 -29 26 -53 68 -53c53 0 93 41 93 94c0 36 -24 62 -66 62h-17c-5 0 -8 4 -7 10l3 21c1 6 5 10 12 10h13c47 0 87 37 87 87c0 32 -21 54 -59 54c-40 0 -66 -20 -80 -48c-3 -6 -6 -9 -12 -8l-20 6
c-6 1 -7 5 -5 11c17 42 58 80 123 80c61 0 96 -37 96 -87c0 -47 -22 -88 -69 -112v-1c21 -11 44 -37 44 -78c0 -82 -57 -142 -140 -142z" />
    <glyph glyph-name="four.denominator" horiz-adv-x="317" 
d="M191 0h-22c-5 0 -8 4 -7 10l10 61c1 4 -1 6 -5 6h-155c-5 0 -9 4 -8 10l3 21c1 5 3 9 7 15l177 273c4 7 9 10 14 10h27c5 0 8 -5 4 -10l-178 -278v-1h116c4 0 6 2 7 6l18 100c1 6 5 10 11 10h22c6 0 9 -4 8 -10l-17 -100c-1 -4 1 -6 5 -6h35c6 0 8 -4 7 -10l-3 -21
c-1 -6 -4 -9 -10 -9h-37c-3 0 -5 -2 -6 -6l-11 -61c-1 -6 -6 -10 -12 -10z" />
    <glyph glyph-name="five.denominator" horiz-adv-x="317" 
d="M123 -7c-63 0 -91 36 -96 81c-1 5 0 11 6 13l24 8c5 1 8 -1 9 -6c6 -33 22 -55 64 -55c35 0 60 16 76 47c9 19 19 67 19 89c0 37 -21 56 -59 56c-36 0 -58 -17 -71 -38c-3 -5 -7 -9 -13 -9h-22c-6 0 -9 4 -8 10l36 207c1 6 5 10 11 10h195c5 0 9 -4 8 -10l-4 -21
c-1 -6 -4 -9 -10 -9h-158c-4 0 -6 -2 -7 -6l-23 -125h1c14 17 40 32 78 32c51 0 89 -30 89 -86c0 -29 -11 -90 -25 -117c-24 -49 -64 -71 -120 -71z" />
    <glyph glyph-name="six.denominator" horiz-adv-x="317" 
d="M120 -7c-63 0 -103 39 -103 99c0 41 17 78 46 120l132 185c4 7 7 9 13 9h29c6 0 8 -5 4 -10l-119 -167l1 -1c11 7 27 12 47 12c58 0 96 -37 96 -95c0 -83 -58 -152 -146 -152zM127 34c54 0 97 44 97 102c0 39 -25 65 -67 65c-54 0 -97 -45 -97 -103c0 -39 25 -64 67 -64z
" />
    <glyph glyph-name="seven.denominator" horiz-adv-x="317" 
d="M81 0h-25c-6 0 -8 5 -4 11l208 353v2h-138c-4 0 -6 -2 -7 -6l-8 -42c-1 -6 -4 -10 -10 -10h-22c-6 0 -9 4 -8 10l13 78c1 6 5 10 11 10h210c5 0 9 -4 8 -10l-4 -25c-1 -6 -3 -10 -6 -15l-205 -348c-4 -6 -7 -8 -13 -8z" />
    <glyph glyph-name="eight.denominator" horiz-adv-x="317" 
d="M120 -7c-64 0 -105 39 -105 97c0 52 28 100 80 124v2c-20 12 -36 35 -36 68c0 68 59 129 134 129c60 0 97 -39 97 -91c0 -44 -26 -85 -67 -108v-1c24 -13 43 -42 43 -77c0 -81 -62 -143 -146 -143zM163 232c42 0 85 37 85 84c0 33 -25 57 -62 57c-42 0 -85 -37 -85 -84
c0 -33 25 -57 62 -57zM126 33c52 0 98 42 98 95c0 39 -27 65 -69 65c-52 0 -98 -42 -98 -95c0 -39 27 -65 69 -65z" />
    <glyph glyph-name="nine.denominator" horiz-adv-x="317" 
d="M106 0h-29c-6 0 -8 5 -4 10l118 167v1c-11 -7 -28 -12 -47 -12c-58 0 -97 37 -97 95c0 83 59 152 147 152c63 0 103 -39 103 -99c0 -41 -17 -78 -46 -120l-132 -185c-4 -7 -8 -9 -13 -9zM157 205c54 0 97 45 97 103c0 39 -25 64 -67 64c-54 0 -97 -44 -97 -102
c0 -39 25 -65 67 -65z" />
    <glyph glyph-name="zero.inferior" unicode="&#x2080;" horiz-adv-x="317" 
d="M93 -163c-61 0 -98 36 -98 98c0 42 29 207 47 244c25 54 67 78 124 78c61 0 99 -36 99 -98c0 -42 -30 -207 -48 -244c-25 -54 -67 -78 -124 -78zM99 -122c34 0 60 13 79 51c17 34 43 188 43 225c0 38 -19 62 -61 62c-34 0 -60 -14 -78 -50c-17 -34 -44 -189 -44 -226
c0 -38 19 -62 61 -62z" />
    <glyph glyph-name="one.inferior" unicode="&#x2081;" horiz-adv-x="317" 
d="M118 -156h-22c-6 0 -9 4 -8 10l60 341h-2l-74 -46c-5 -4 -10 -1 -9 5l4 28c1 7 4 10 10 14l74 48c6 4 11 6 16 6h22c6 0 10 -4 9 -10l-68 -386c-1 -6 -6 -10 -12 -10z" />
    <glyph glyph-name="two.inferior" unicode="&#x2082;" horiz-adv-x="317" 
d="M200 -156h-215c-6 0 -9 4 -8 10l4 20c1 5 3 9 8 14l182 183c25 25 49 54 49 90c0 34 -22 55 -58 55c-39 0 -68 -23 -84 -61c-2 -6 -6 -9 -12 -8l-21 5c-5 1 -7 5 -5 12c16 49 62 93 127 93c62 0 95 -40 95 -89c0 -47 -23 -84 -61 -122l-162 -161v-1h168c5 0 9 -4 8 -10
l-3 -20c-1 -6 -6 -10 -12 -10z" />
    <glyph glyph-name="three.inferior" unicode="&#x2083;" horiz-adv-x="317" 
d="M94 -163c-63 0 -98 37 -105 83c-1 6 1 10 8 12l22 6c7 2 9 -1 11 -7c5 -29 26 -53 68 -53c53 0 93 41 93 94c0 36 -24 62 -66 62h-17c-5 0 -8 4 -7 10l3 21c1 6 5 10 12 10h13c47 0 87 37 87 87c0 32 -21 54 -59 54c-40 0 -66 -20 -80 -48c-3 -6 -6 -9 -12 -8l-20 6
c-6 1 -7 5 -5 11c17 42 58 80 123 80c61 0 96 -37 96 -87c0 -47 -22 -88 -69 -112v-1c21 -11 44 -37 44 -78c0 -82 -57 -142 -140 -142z" />
    <glyph glyph-name="four.inferior" unicode="&#x2084;" horiz-adv-x="317" 
d="M164 -156h-22c-5 0 -8 4 -7 10l10 61c1 4 -1 6 -5 6h-155c-5 0 -9 4 -8 10l3 21c1 5 3 9 7 15l177 273c4 7 9 10 14 10h27c5 0 8 -5 4 -10l-178 -278v-1h116c4 0 6 2 7 6l18 100c1 6 5 10 11 10h22c6 0 9 -4 8 -10l-17 -100c-1 -4 1 -6 5 -6h35c6 0 8 -4 7 -10l-3 -21
c-1 -6 -4 -9 -10 -9h-37c-3 0 -5 -2 -6 -6l-11 -61c-1 -6 -6 -10 -12 -10z" />
    <glyph glyph-name="five.inferior" unicode="&#x2085;" horiz-adv-x="317" 
d="M96 -163c-63 0 -91 36 -96 81c-1 5 0 11 6 13l24 8c5 1 8 -1 9 -6c6 -33 22 -55 64 -55c35 0 60 16 76 47c9 19 19 67 19 89c0 37 -21 56 -59 56c-36 0 -58 -17 -71 -38c-3 -5 -7 -9 -13 -9h-22c-6 0 -9 4 -8 10l36 207c1 6 5 10 11 10h195c5 0 9 -4 8 -10l-4 -21
c-1 -6 -4 -9 -10 -9h-158c-4 0 -6 -2 -7 -6l-23 -125h1c14 17 40 32 78 32c51 0 89 -30 89 -86c0 -29 -11 -90 -25 -117c-24 -49 -64 -71 -120 -71z" />
    <glyph glyph-name="six.inferior" unicode="&#x2086;" horiz-adv-x="317" 
d="M93 -163c-63 0 -103 39 -103 99c0 41 17 78 46 120l132 185c4 7 7 9 13 9h29c6 0 8 -5 4 -10l-119 -167l1 -1c11 7 27 12 47 12c58 0 96 -37 96 -95c0 -83 -58 -152 -146 -152zM100 -122c54 0 97 44 97 102c0 39 -25 65 -67 65c-54 0 -97 -45 -97 -103
c0 -39 25 -64 67 -64z" />
    <glyph glyph-name="seven.inferior" unicode="&#x2087;" horiz-adv-x="317" 
d="M54 -156h-25c-6 0 -8 5 -4 11l208 353v2h-138c-4 0 -6 -2 -7 -6l-8 -42c-1 -6 -4 -10 -10 -10h-22c-6 0 -9 4 -8 10l13 78c1 6 5 10 11 10h210c5 0 9 -4 8 -10l-4 -25c-1 -6 -3 -10 -6 -15l-205 -348c-4 -6 -7 -8 -13 -8z" />
    <glyph glyph-name="eight.inferior" unicode="&#x2088;" horiz-adv-x="317" 
d="M93 -163c-64 0 -105 39 -105 97c0 52 28 100 80 124v2c-20 12 -36 35 -36 68c0 68 59 129 134 129c60 0 97 -39 97 -91c0 -44 -26 -85 -67 -108v-1c24 -13 43 -42 43 -77c0 -81 -62 -143 -146 -143zM136 76c42 0 85 37 85 84c0 33 -25 57 -62 57c-42 0 -85 -37 -85 -84
c0 -33 25 -57 62 -57zM99 -123c52 0 98 42 98 95c0 39 -27 65 -69 65c-52 0 -98 -42 -98 -95c0 -39 27 -65 69 -65z" />
    <glyph glyph-name="nine.inferior" unicode="&#x2089;" horiz-adv-x="317" 
d="M79 -156h-29c-6 0 -8 5 -4 10l118 167v1c-11 -7 -28 -12 -47 -12c-58 0 -97 37 -97 95c0 83 59 152 147 152c63 0 103 -39 103 -99c0 -41 -17 -78 -46 -120l-132 -185c-4 -7 -8 -9 -13 -9zM130 49c54 0 97 45 97 103c0 39 -25 64 -67 64c-54 0 -97 -44 -97 -102
c0 -39 25 -65 67 -65z" />
    <glyph glyph-name="zero.numerator" horiz-adv-x="317" 
d="M167 267c-61 0 -98 36 -98 98c0 42 29 207 47 244c25 54 67 78 124 78c61 0 99 -36 99 -98c0 -42 -30 -207 -48 -244c-25 -54 -67 -78 -124 -78zM173 308c34 0 60 13 79 51c17 34 43 188 43 225c0 38 -19 62 -61 62c-34 0 -60 -14 -78 -50c-17 -34 -44 -189 -44 -226
c0 -38 19 -62 61 -62z" />
    <glyph glyph-name="one.numerator" horiz-adv-x="317" 
d="M192 274h-22c-6 0 -9 4 -8 10l60 341h-2l-74 -46c-5 -4 -10 -1 -9 5l4 28c1 7 4 10 10 14l74 48c6 4 11 6 16 6h22c6 0 10 -4 9 -10l-68 -386c-1 -6 -6 -10 -12 -10z" />
    <glyph glyph-name="two.numerator" horiz-adv-x="317" 
d="M275 274h-215c-6 0 -9 4 -8 10l4 20c1 5 3 9 8 14l182 183c25 25 49 54 49 90c0 34 -22 55 -58 55c-39 0 -68 -23 -84 -61c-2 -6 -6 -9 -12 -8l-21 5c-5 1 -7 5 -5 12c16 49 62 93 127 93c62 0 95 -40 95 -89c0 -47 -23 -84 -61 -122l-162 -161v-1h168c5 0 9 -4 8 -10
l-3 -20c-1 -6 -6 -10 -12 -10z" />
    <glyph glyph-name="three.numerator" horiz-adv-x="317" 
d="M168 267c-63 0 -98 37 -105 83c-1 6 1 10 8 12l22 6c7 2 9 -1 11 -7c5 -29 26 -53 68 -53c53 0 93 41 93 94c0 36 -24 62 -66 62h-17c-5 0 -8 4 -7 10l3 21c1 6 5 10 12 10h13c47 0 87 37 87 87c0 32 -21 54 -59 54c-40 0 -66 -20 -80 -48c-3 -6 -6 -9 -12 -8l-20 6
c-6 1 -7 5 -5 11c17 42 58 80 123 80c61 0 96 -37 96 -87c0 -47 -22 -88 -69 -112v-1c21 -11 44 -37 44 -78c0 -82 -57 -142 -140 -142z" />
    <glyph glyph-name="four.numerator" horiz-adv-x="317" 
d="M237 274h-22c-5 0 -8 4 -7 10l10 61c1 4 -1 6 -5 6h-155c-5 0 -9 4 -8 10l3 21c1 5 3 9 7 15l177 273c4 7 9 10 14 10h27c5 0 8 -5 4 -10l-178 -278v-1h116c4 0 6 2 7 6l18 100c1 6 5 10 11 10h22c6 0 9 -4 8 -10l-17 -100c-1 -4 1 -6 5 -6h35c6 0 8 -4 7 -10l-3 -21
c-1 -6 -4 -9 -10 -9h-37c-3 0 -5 -2 -6 -6l-11 -61c-1 -6 -6 -10 -12 -10z" />
    <glyph glyph-name="five.numerator" horiz-adv-x="317" 
d="M171 267c-63 0 -91 36 -96 81c-1 5 0 11 6 13l24 8c5 1 8 -1 9 -6c6 -33 22 -55 64 -55c35 0 60 16 76 47c9 19 19 67 19 89c0 37 -21 56 -59 56c-36 0 -58 -17 -71 -38c-3 -5 -7 -9 -13 -9h-22c-6 0 -9 4 -8 10l36 207c1 6 5 10 11 10h195c5 0 9 -4 8 -10l-4 -21
c-1 -6 -4 -9 -10 -9h-158c-4 0 -6 -2 -7 -6l-23 -125h1c14 17 40 32 78 32c51 0 89 -30 89 -86c0 -29 -11 -90 -25 -117c-24 -49 -64 -71 -120 -71z" />
    <glyph glyph-name="six.numerator" horiz-adv-x="317" 
d="M167 267c-63 0 -103 39 -103 99c0 41 17 78 46 120l132 185c4 7 7 9 13 9h29c6 0 8 -5 4 -10l-119 -167l1 -1c11 7 27 12 47 12c58 0 96 -37 96 -95c0 -83 -58 -152 -146 -152zM174 308c54 0 97 44 97 102c0 39 -25 65 -67 65c-54 0 -97 -45 -97 -103
c0 -39 25 -64 67 -64z" />
    <glyph glyph-name="seven.numerator" horiz-adv-x="317" 
d="M129 274h-25c-6 0 -8 5 -4 11l208 353v2h-138c-4 0 -6 -2 -7 -6l-8 -42c-1 -6 -4 -10 -10 -10h-22c-6 0 -9 4 -8 10l13 78c1 6 5 10 11 10h210c5 0 9 -4 8 -10l-4 -25c-1 -6 -3 -10 -6 -15l-205 -348c-4 -6 -7 -8 -13 -8z" />
    <glyph glyph-name="eight.numerator" horiz-adv-x="317" 
d="M167 267c-64 0 -105 39 -105 97c0 52 28 100 80 124v2c-20 12 -36 35 -36 68c0 68 59 129 134 129c60 0 97 -39 97 -91c0 -44 -26 -85 -67 -108v-1c24 -13 43 -42 43 -77c0 -81 -62 -143 -146 -143zM210 506c42 0 85 37 85 84c0 33 -25 57 -62 57c-42 0 -85 -37 -85 -84
c0 -33 25 -57 62 -57zM173 307c52 0 98 42 98 95c0 39 -27 65 -69 65c-52 0 -98 -42 -98 -95c0 -39 27 -65 69 -65z" />
    <glyph glyph-name="nine.numerator" horiz-adv-x="317" 
d="M153 274h-29c-6 0 -8 5 -4 10l118 167v1c-11 -7 -28 -12 -47 -12c-58 0 -97 37 -97 95c0 83 59 152 147 152c63 0 103 -39 103 -99c0 -41 -17 -78 -46 -120l-132 -185c-4 -7 -8 -9 -13 -9zM204 479c54 0 97 45 97 103c0 39 -25 64 -67 64c-54 0 -97 -44 -97 -102
c0 -39 25 -65 67 -65z" />
    <glyph glyph-name="zero.superior" unicode="&#x2070;" horiz-adv-x="317" 
d="M194 423c-61 0 -98 36 -98 98c0 42 29 207 47 244c25 54 67 78 124 78c61 0 99 -36 99 -98c0 -42 -30 -207 -48 -244c-25 -54 -67 -78 -124 -78zM200 464c34 0 60 13 79 51c17 34 43 188 43 225c0 38 -19 62 -61 62c-34 0 -60 -14 -78 -50c-17 -34 -44 -189 -44 -226
c0 -38 19 -62 61 -62z" />
    <glyph glyph-name="onesuperior" unicode="&#xb9;" horiz-adv-x="317" 
d="M219 430h-22c-6 0 -9 4 -8 10l60 341h-2l-74 -46c-5 -4 -10 -1 -9 5l4 28c1 7 4 10 10 14l74 48c6 4 11 6 16 6h22c6 0 10 -4 9 -10l-68 -386c-1 -6 -6 -10 -12 -10z" />
    <glyph glyph-name="twosuperior" unicode="&#xb2;" horiz-adv-x="317" 
d="M302 430h-215c-6 0 -9 4 -8 10l4 20c1 5 3 9 8 14l182 183c25 25 49 54 49 90c0 34 -22 55 -58 55c-39 0 -68 -23 -84 -61c-2 -6 -6 -9 -12 -8l-21 5c-5 1 -7 5 -5 12c16 49 62 93 127 93c62 0 95 -40 95 -89c0 -47 -23 -84 -61 -122l-162 -161v-1h168c5 0 9 -4 8 -10
l-3 -20c-1 -6 -6 -10 -12 -10z" />
    <glyph glyph-name="threesuperior" unicode="&#xb3;" horiz-adv-x="317" 
d="M195 423c-63 0 -98 37 -105 83c-1 6 1 10 8 12l22 6c7 2 9 -1 11 -7c5 -29 26 -53 68 -53c53 0 93 41 93 94c0 36 -24 62 -66 62h-17c-5 0 -8 4 -7 10l3 21c1 6 5 10 12 10h13c47 0 87 37 87 87c0 32 -21 54 -59 54c-40 0 -66 -20 -80 -48c-3 -6 -6 -9 -12 -8l-20 6
c-6 1 -7 5 -5 11c17 42 58 80 123 80c61 0 96 -37 96 -87c0 -47 -22 -88 -69 -112v-1c21 -11 44 -37 44 -78c0 -82 -57 -142 -140 -142z" />
    <glyph glyph-name="four.superior" unicode="&#x2074;" horiz-adv-x="317" 
d="M265 430h-22c-5 0 -8 4 -7 10l10 61c1 4 -1 6 -5 6h-155c-5 0 -9 4 -8 10l3 21c1 5 3 9 7 15l177 273c4 7 9 10 14 10h27c5 0 8 -5 4 -10l-178 -278v-1h116c4 0 6 2 7 6l18 100c1 6 5 10 11 10h22c6 0 9 -4 8 -10l-17 -100c-1 -4 1 -6 5 -6h35c6 0 8 -4 7 -10l-3 -21
c-1 -6 -4 -9 -10 -9h-37c-3 0 -5 -2 -6 -6l-11 -61c-1 -6 -6 -10 -12 -10z" />
    <glyph glyph-name="five.superior" unicode="&#x2075;" horiz-adv-x="317" 
d="M198 423c-63 0 -91 36 -96 81c-1 5 0 11 6 13l24 8c5 1 8 -1 9 -6c6 -33 22 -55 64 -55c35 0 60 16 76 47c9 19 19 67 19 89c0 37 -21 56 -59 56c-36 0 -58 -17 -71 -38c-3 -5 -7 -9 -13 -9h-22c-6 0 -9 4 -8 10l36 207c1 6 5 10 11 10h195c5 0 9 -4 8 -10l-4 -21
c-1 -6 -4 -9 -10 -9h-158c-4 0 -6 -2 -7 -6l-23 -125h1c14 17 40 32 78 32c51 0 89 -30 89 -86c0 -29 -11 -90 -25 -117c-24 -49 -64 -71 -120 -71z" />
    <glyph glyph-name="six.superior" unicode="&#x2076;" horiz-adv-x="317" 
d="M194 423c-63 0 -103 39 -103 99c0 41 17 78 46 120l132 185c4 7 7 9 13 9h29c6 0 8 -5 4 -10l-119 -167l1 -1c11 7 27 12 47 12c58 0 96 -37 96 -95c0 -83 -58 -152 -146 -152zM201 464c54 0 97 44 97 102c0 39 -25 65 -67 65c-54 0 -97 -45 -97 -103
c0 -39 25 -64 67 -64z" />
    <glyph glyph-name="seven.superior" unicode="&#x2077;" horiz-adv-x="317" 
d="M156 430h-25c-6 0 -8 5 -4 11l208 353v2h-138c-4 0 -6 -2 -7 -6l-8 -42c-1 -6 -4 -10 -10 -10h-22c-6 0 -9 4 -8 10l13 78c1 6 5 10 11 10h210c5 0 9 -4 8 -10l-4 -25c-1 -6 -3 -10 -6 -15l-205 -348c-4 -6 -7 -8 -13 -8z" />
    <glyph glyph-name="eight.superior" unicode="&#x2078;" horiz-adv-x="317" 
d="M194 423c-64 0 -105 39 -105 97c0 52 28 100 80 124v2c-20 12 -36 35 -36 68c0 68 59 129 134 129c60 0 97 -39 97 -91c0 -44 -26 -85 -67 -108v-1c24 -13 43 -42 43 -77c0 -81 -62 -143 -146 -143zM237 662c42 0 85 37 85 84c0 33 -25 57 -62 57c-42 0 -85 -37 -85 -84
c0 -33 25 -57 62 -57zM200 463c52 0 98 42 98 95c0 39 -27 65 -69 65c-52 0 -98 -42 -98 -95c0 -39 27 -65 69 -65z" />
    <glyph glyph-name="nine.superior" unicode="&#x2079;" horiz-adv-x="317" 
d="M180 430h-29c-6 0 -8 5 -4 10l118 167v1c-11 -7 -28 -12 -47 -12c-58 0 -97 37 -97 95c0 83 59 152 147 152c63 0 103 -39 103 -99c0 -41 -17 -78 -46 -120l-132 -185c-4 -7 -8 -9 -13 -9zM231 635c54 0 97 45 97 103c0 39 -25 64 -67 64c-54 0 -97 -44 -97 -102
c0 -39 25 -65 67 -65z" />
    <glyph glyph-name="interrobang" unicode="&#x203d;" horiz-adv-x="428" 
d="M190 173c-6 0 -9 4 -8 10l45 294c1 6 5 10 11 10h37c6 0 9 -4 8 -10l-31 -150h2l47 55c64 75 88 117 88 166c0 60 -39 94 -96 94c-65 0 -116 -44 -141 -114c-2 -6 -6 -9 -12 -8l-30 5c-6 1 -7 6 -5 12c29 93 101 153 196 153c87 0 139 -55 139 -135
c0 -57 -31 -114 -89 -180l-65 -75c-31 -37 -40 -49 -47 -81l-7 -36c-1 -6 -5 -10 -11 -10h-31zM148 10l11 65c1 6 5 10 11 10h45c6 0 9 -4 8 -10l-10 -65c-1 -6 -5 -10 -11 -10h-46c-6 0 -9 4 -8 10z" />
    <glyph glyph-name="afii61248" unicode="&#x2105;" horiz-adv-x="739" 
d="M118 0l498 680c5 7 8 10 15 10h25c6 0 8 -4 4 -10l-497 -680c-6 -7 -9 -10 -16 -10h-25c-6 0 -8 4 -4 10zM221 330c-65 0 -102 38 -102 111c0 55 14 115 34 159c28 62 73 88 130 88c52 0 80 -23 93 -68c1 -4 0 -7 -4 -9l-24 -14c-4 -2 -7 -1 -9 3c-12 38 -29 50 -63 50
c-33 0 -59 -8 -81 -56c-23 -50 -31 -111 -31 -145c0 -47 9 -81 63 -81c31 0 53 10 82 53c2 3 7 4 11 1l17 -15c4 -3 3 -7 0 -11c-30 -43 -66 -66 -116 -66zM505 -10c-72 0 -95 44 -95 114c0 56 19 130 34 162c28 58 63 84 122 84c72 0 95 -44 95 -115
c0 -55 -19 -129 -34 -161c-27 -60 -63 -84 -122 -84zM510 29c40 0 65 19 84 67c9 23 23 94 23 134c0 58 -10 84 -61 84c-40 0 -58 -20 -76 -66c-10 -24 -26 -93 -26 -137c0 -54 9 -82 56 -82z" />
    <glyph glyph-name="published" unicode="&#x2117;" horiz-adv-x="830" 
d="M415 -10c-199 0 -350 151 -350 350s151 350 350 350s350 -151 350 -350s-151 -350 -350 -350zM415 32c175 0 307 132 307 308s-132 308 -307 308s-307 -132 -307 -308s132 -308 307 -308zM338 140h-27c-5 0 -9 4 -9 9v368c0 6 4 9 9 9h98c93 0 160 -27 160 -118
c0 -101 -67 -129 -160 -129h-57c-3 0 -5 -2 -5 -5v-125c0 -5 -3 -9 -9 -9zM402 318c69 0 118 13 118 86c0 65 -45 81 -118 81h-51c-2 0 -4 -2 -4 -5v-157c0 -3 2 -5 4 -5h51z" />
    <glyph glyph-name="uni0406" unicode="&#x406;" horiz-adv-x="234" 
d="M62 0c-6 0 -9 4 -8 10l116 660c1 6 5 10 11 10h34c6 0 9 -4 8 -10l-116 -660c-1 -6 -5 -10 -11 -10h-34z" />
    <glyph glyph-name="uni0456" unicode="&#x456;" horiz-adv-x="228" 
d="M60 0c-6 0 -9 4 -8 10l80 457c1 6 5 10 11 10h32c6 0 9 -4 8 -10l-81 -457c-1 -6 -4 -10 -10 -10h-32zM162 607c-6 0 -9 4 -8 10l10 53c1 6 5 10 11 10h41c6 0 9 -4 8 -10l-10 -53c-1 -7 -5 -10 -11 -10h-41z" />
    <glyph glyph-name="uni0408" unicode="&#x408;" horiz-adv-x="459" 
d="M145 -10c-53 0 -106 26 -134 58c-3 3 -4 10 2 14l25 20c5 4 10 4 15 -1c26 -22 58 -40 97 -40c82 0 143 45 164 162l82 467c1 6 5 10 11 10h34c6 0 9 -4 8 -10l-83 -469c-28 -157 -107 -211 -221 -211z" />
    <glyph glyph-name="uni0458" unicode="&#x458;" horiz-adv-x="228" 
d="M-58 -180c-6 0 -9 4 -8 10l4 28c1 7 6 10 12 10h8c52 0 71 16 82 76l92 523c1 6 5 10 11 10h32c6 0 9 -4 8 -10l-92 -523c-17 -98 -51 -124 -139 -124h-10zM162 607c-6 0 -9 4 -8 10l10 53c1 6 5 10 11 10h41c6 0 9 -4 8 -10l-10 -53c-1 -7 -5 -10 -11 -10h-41z" />
    <glyph glyph-name="uni0410" unicode="&#x410;" horiz-adv-x="575" 
d="M1 0c-6 0 -8 4 -5 10l346 660c3 6 6 10 13 10h32c7 0 9 -4 10 -10l110 -660c1 -6 -3 -10 -9 -10h-32c-6 0 -10 2 -11 10l-28 170h-285l-89 -170c-4 -8 -8 -10 -14 -10h-38zM168 230h251l-59 363h-2z" />
    <glyph glyph-name="uni0411" unicode="&#x411;" horiz-adv-x="584" 
d="M63 0c-6 0 -10 5 -9 10l116 661c1 5 4 9 11 9h363c6 0 10 -4 9 -10l-6 -31c-1 -7 -5 -10 -11 -10h-314c-4 0 -6 -2 -7 -6l-42 -238c-1 -4 1 -6 5 -6h167c108 0 174 -56 174 -152c0 -144 -98 -227 -235 -227h-221zM120 51h166c107 0 180 64 180 173c0 68 -44 105 -128 105
h-168c-4 0 -6 -2 -7 -6l-48 -266c-1 -4 1 -6 5 -6z" />
    <glyph glyph-name="uni0412" unicode="&#x412;" horiz-adv-x="583" 
d="M62 0c-5 0 -9 4 -8 10l116 660c1 6 5 10 11 10h215c106 0 164 -53 164 -143c0 -95 -49 -161 -131 -186v-4c38 -11 87 -49 87 -127c0 -135 -84 -220 -235 -220h-219zM119 50h173c109 0 172 68 172 162c0 66 -41 109 -123 109h-173c-4 0 -6 -2 -7 -6l-46 -259
c-1 -4 0 -6 4 -6zM176 371h169c102 0 163 67 163 155c0 65 -40 104 -117 104h-169c-4 0 -6 -2 -7 -6l-43 -247c-1 -4 1 -6 4 -6z" />
    <glyph glyph-name="uni0413" unicode="&#x413;" horiz-adv-x="480" 
d="M63 0c-8 0 -10 5 -9 10l116 661c1 5 5 9 11 9h356c6 0 10 -4 9 -10l-6 -31c-1 -7 -5 -10 -12 -10h-306c-4 0 -6 -2 -7 -6l-108 -613c-1 -6 -3 -10 -10 -10h-34z" />
    <glyph glyph-name="uni0414" unicode="&#x414;" horiz-adv-x="652" 
d="M-46 -161c-4 0 -8 4 -7 9l32 193c1 6 8 10 13 10h43c6 0 11 3 14 7c77 104 128 207 189 573l7 40c1 5 4 9 11 9h364c7 0 9 -4 8 -9l-109 -614c-1 -4 1 -6 5 -6h66c5 0 9 -4 8 -10l-34 -193c-1 -5 -6 -9 -11 -9h-33c-5 0 -8 4 -7 9l25 146c1 4 0 6 -4 6h-503
c-4 0 -7 -2 -8 -6l-25 -146c-1 -5 -6 -9 -11 -9h-33zM113 51h346c4 0 6 2 7 6l100 566c1 4 -1 6 -5 6h-264c-4 0 -6 -2 -7 -6l-9 -48c-58 -308 -99 -423 -170 -518c-2 -3 -2 -6 2 -6z" />
    <glyph glyph-name="uni0415" unicode="&#x415;" horiz-adv-x="535" 
d="M62 0c-6 0 -9 4 -8 10l116 660c1 6 5 10 11 10h373c6 0 9 -4 8 -10l-5 -31c-1 -7 -5 -10 -12 -10h-323c-4 0 -6 -2 -7 -6l-43 -246c-1 -5 1 -7 5 -7h277c6 0 9 -4 8 -10l-5 -30c-1 -7 -5 -10 -12 -10h-277c-4 0 -6 -2 -7 -6l-46 -257c-1 -4 1 -6 5 -6h323c6 0 9 -4 8 -10
l-5 -31c-1 -7 -5 -10 -12 -10h-372z" />
    <glyph glyph-name="uni0416" unicode="&#x416;" horiz-adv-x="880" 
d="M-18 -3c-6 0 -10 5 -9 11l6 30c1 6 5 9 11 9h15c51 0 66 21 93 67l86 147c34 58 57 80 99 90v4c-29 19 -42 53 -54 95l-35 119c-13 44 -24 65 -71 65h-8c-6 0 -9 4 -8 10l5 30c1 6 5 9 11 9h15c60 0 84 -28 102 -89l39 -136c11 -39 35 -88 90 -88h64c4 0 6 2 7 6l51 294
c1 6 5 10 11 10h33c6 0 10 -4 9 -10l-51 -294c-1 -4 1 -6 5 -6h60c57 0 98 46 122 86l88 150c37 62 62 77 127 77h16c6 0 10 -5 9 -11l-5 -29c-1 -6 -6 -9 -12 -9h-8c-43 0 -56 -9 -87 -62l-77 -130c-28 -48 -52 -80 -91 -91v-4c36 -13 50 -45 62 -89l39 -141
c13 -46 23 -70 69 -70h15c6 0 10 -5 9 -11l-6 -30c-1 -6 -5 -9 -11 -9h-23c-66 0 -87 32 -103 93l-45 166c-14 51 -42 64 -99 64h-58c-4 0 -6 -2 -7 -6l-54 -304c-1 -6 -5 -10 -11 -10h-33c-6 0 -10 4 -9 10l54 304c1 4 -1 6 -5 6h-65c-54 0 -85 -13 -115 -64l-104 -176
c-36 -61 -62 -83 -134 -83h-24z" />
    <glyph glyph-name="uni0417" unicode="&#x417;" horiz-adv-x="530" 
d="M213 -10c-89 0 -168 39 -203 83c-4 4 -3 9 2 14l25 24c5 4 11 2 14 -2c33 -35 91 -68 163 -68c120 0 195 68 195 172c0 71 -51 109 -137 109h-70c-5 0 -9 5 -8 11l5 31c1 6 7 8 12 8h69c91 0 175 64 175 162c0 67 -51 106 -135 106c-70 0 -119 -24 -173 -66
c-6 -3 -11 -5 -15 0l-18 25c-3 4 -4 8 4 13c62 47 124 78 207 78c121 0 182 -57 182 -152c0 -83 -46 -155 -130 -186v-4c58 -19 85 -71 85 -133c0 -135 -89 -225 -249 -225z" />
    <glyph glyph-name="uni0418" unicode="&#x418;" horiz-adv-x="639" 
d="M63 0c-7 0 -10 5 -9 10l116 661c1 5 5 9 11 9h34c5 0 9 -4 8 -9l-100 -568h3l445 572c2 3 5 5 10 5h38c7 0 10 -4 9 -9l-115 -661c-1 -5 -5 -10 -11 -10h-34c-6 0 -10 5 -9 10l100 568h-3l-444 -568c-5 -6 -8 -10 -16 -10h-33z" />
    <glyph glyph-name="uni0419" unicode="&#x419;" horiz-adv-x="639" 
d="M411 762c-64 0 -98 39 -105 102c-1 6 1 9 6 10l23 4c4 1 7 -1 8 -6c10 -42 27 -69 74 -69s76 36 94 70c2 5 6 6 10 5l23 -6c4 -1 4 -6 2 -10c-30 -66 -70 -100 -135 -100zM63 0c-7 0 -10 5 -9 10l116 661c1 5 5 9 11 9h34c5 0 9 -4 8 -9l-100 -568h3l445 572
c2 3 5 5 10 5h38c7 0 10 -4 9 -9l-115 -661c-1 -5 -5 -10 -11 -10h-34c-6 0 -10 5 -9 10l100 568h-3l-444 -568c-5 -6 -8 -10 -16 -10h-33z" />
    <glyph glyph-name="uni041A" unicode="&#x41a;" horiz-adv-x="574" 
d="M63 0c-6 0 -10 4 -9 10l116 660c1 6 5 10 11 10h34c6 0 9 -4 8 -10l-52 -294c-1 -4 1 -6 5 -6h75c56 0 98 46 122 86l88 147c37 61 66 80 128 80h16c5 0 10 -5 9 -11l-5 -29c-1 -6 -7 -9 -12 -9h-8c-43 0 -59 -15 -87 -62l-78 -130c-29 -48 -54 -79 -93 -90v-4
c34 -9 52 -46 64 -90l40 -141c13 -46 23 -70 68 -70h15c6 0 10 -5 9 -11l-5 -30c-1 -6 -6 -9 -11 -9h-20c-67 0 -91 32 -107 93l-45 166c-13 51 -44 64 -98 64h-73c-4 0 -6 -2 -7 -6l-54 -304c-1 -6 -5 -10 -11 -10h-33z" />
    <glyph glyph-name="uni041B" unicode="&#x41b;" horiz-adv-x="641" 
d="M-29 -3c-4 0 -9 5 -8 12l6 29c1 6 6 9 10 9h11c91 0 162 56 218 367l46 257c1 5 4 9 11 9h356c7 0 10 -4 9 -9l-116 -661c-1 -5 -5 -10 -10 -10h-35c-5 0 -9 5 -8 10l108 613c1 4 -1 6 -5 6h-258c-4 0 -6 -2 -7 -6l-42 -235c-55 -315 -140 -391 -261 -391h-25z" />
    <glyph glyph-name="uni041C" unicode="&#x41c;" horiz-adv-x="725" 
d="M62 0c-5 0 -9 4 -8 10l116 660c1 6 5 10 11 10h30c7 0 10 -3 12 -10l128 -494h3l302 494c4 7 9 10 14 10h36c6 0 9 -4 8 -10l-116 -660c-1 -6 -5 -10 -11 -10h-31c-6 0 -9 4 -8 10l96 540h-3l-271 -438c-5 -9 -9 -11 -18 -11h-19c-9 0 -13 3 -15 11l-115 440h-3l-96 -542
c-1 -6 -5 -10 -11 -10h-31z" />
    <glyph glyph-name="uni041D" unicode="&#x41d;" horiz-adv-x="624" 
d="M62 0c-6 0 -9 4 -8 10l116 660c1 6 5 10 11 10h34c6 0 9 -4 8 -10l-52 -294c-1 -4 1 -6 5 -6h325c4 0 6 2 7 6l52 294c1 6 5 10 11 10h34c6 0 9 -4 8 -10l-116 -660c-1 -6 -5 -10 -11 -10h-34c-6 0 -9 4 -8 10l53 304c1 4 0 6 -4 6h-325c-4 0 -6 -2 -7 -6l-54 -304
c-1 -6 -5 -10 -11 -10h-34z" />
    <glyph glyph-name="uni041E" unicode="&#x41e;" horiz-adv-x="586" 
d="M251 -10c-116 0 -186 69 -186 193c0 76 34 280 72 357c51 103 126 150 237 150c116 0 186 -69 186 -193c0 -76 -34 -280 -72 -357c-51 -103 -126 -150 -237 -150zM259 41c83 0 143 41 180 116c36 74 68 263 68 334c0 94 -50 148 -141 148c-83 0 -143 -41 -180 -116
c-36 -74 -68 -263 -68 -334c0 -94 49 -148 141 -148z" />
    <glyph glyph-name="uni041F" unicode="&#x41f;" horiz-adv-x="616" 
d="M63 0c-6 0 -10 4 -9 10l116 660c1 6 4 10 11 10h415c7 0 10 -4 9 -10l-116 -660c-1 -6 -5 -10 -10 -10h-34c-5 0 -9 4 -8 10l108 613c1 4 -1 6 -5 6h-318c-4 0 -6 -2 -7 -6l-108 -613c-1 -6 -5 -10 -11 -10h-33z" />
    <glyph glyph-name="uni0420" unicode="&#x420;" horiz-adv-x="561" 
d="M62 0c-6 0 -9 4 -8 10l116 660c1 6 5 10 11 10h218c109 0 170 -56 170 -150c0 -150 -99 -234 -237 -234h-168c-4 0 -7 -2 -7 -6l-50 -280c-1 -6 -5 -10 -11 -10h-34zM172 347h164c108 1 181 65 181 176c0 68 -44 106 -128 106h-167c-4 0 -6 -2 -7 -6l-48 -270
c-1 -4 1 -6 5 -6z" />
    <glyph glyph-name="uni0421" unicode="&#x421;" horiz-adv-x="537" 
d="M249 -10c-114 0 -185 69 -185 193c0 76 34 279 72 357c51 104 122 150 227 150c82 0 148 -46 174 -131c2 -5 0 -9 -5 -11l-28 -13c-6 -3 -11 -1 -13 4c-24 65 -66 100 -134 100c-78 0 -133 -38 -172 -116c-36 -74 -68 -263 -68 -334c0 -93 48 -148 140 -148
c73 0 125 37 167 99c3 4 7 6 12 4l28 -16c5 -3 5 -8 2 -13c-55 -88 -127 -125 -217 -125z" />
    <glyph glyph-name="uni0422" unicode="&#x422;" horiz-adv-x="501" 
d="M196 0c-6 0 -9 4 -8 10l108 613c1 4 0 6 -4 6h-189c-5 0 -8 4 -7 10l5 31c1 6 5 10 11 10h441c5 0 9 -4 8 -10l-6 -31c-1 -6 -5 -10 -11 -10h-189c-3 0 -5 -2 -6 -6l-109 -613c-1 -6 -5 -10 -11 -10h-33z" />
    <glyph glyph-name="uni0423" unicode="&#x423;" horiz-adv-x="528" 
d="M51 -3c-5 0 -9 4 -8 11l5 30c1 6 6 9 11 9h30c50 0 76 23 108 76l40 69l-137 477c-2 8 2 11 7 11h37c7 0 9 -2 11 -9l119 -416h3l245 416c3 5 5 9 13 9h40c7 0 8 -5 4 -12l-339 -564c-38 -64 -75 -107 -147 -107h-42z" />
    <glyph glyph-name="uni0424" unicode="&#x424;" horiz-adv-x="716" 
d="M301 -10c-5 0 -9 5 -8 10l13 74c1 4 -1 6 -5 6c-156 10 -234 102 -234 239c0 177 136 301 330 304c4 0 6 2 7 6l9 53c1 5 4 8 11 8h34c7 0 10 -3 9 -8l-9 -53c-1 -4 1 -6 5 -6c155 -10 235 -101 235 -233c0 -182 -137 -307 -331 -310c-4 0 -6 -2 -7 -6l-13 -74
c-1 -5 -5 -10 -11 -10h-35zM310 129c4 0 6 2 7 6l76 433c1 4 -1 6 -5 6c-151 -2 -268 -102 -268 -253c0 -109 62 -184 190 -192zM376 129c149 4 269 103 269 259c0 105 -62 179 -190 186c-4 0 -7 -2 -8 -6l-76 -433c-1 -4 1 -6 5 -6z" />
    <glyph glyph-name="uni0425" unicode="&#x425;" horiz-adv-x="523" 
d="M1 0c-6 0 -8 5 -4 11l261 346l-123 312c-3 6 0 11 6 11h39c6 0 9 -3 11 -9l103 -260h1l196 260c4 6 7 9 14 9h41c6 0 8 -5 4 -11l-233 -313l136 -345c3 -6 0 -11 -6 -11h-38c-6 0 -9 3 -11 9l-117 293h-1l-223 -293c-4 -6 -7 -9 -12 -9h-44z" />
    <glyph glyph-name="uni0426" unicode="&#x426;" horiz-adv-x="629" 
d="M500 -161c-6 0 -9 4 -8 9l25 146c1 4 0 6 -4 6h-450c-6 0 -10 4 -9 10l116 660c1 6 5 10 11 10h33c6 0 10 -4 9 -10l-108 -613c-1 -4 1 -6 5 -6h318c4 0 6 2 7 6l108 613c1 6 4 10 10 10h33c6 0 10 -4 9 -10l-108 -613c-1 -4 1 -6 5 -6h66c5 0 10 -4 9 -10l-33 -193
c-1 -5 -6 -9 -11 -9h-33z" />
    <glyph glyph-name="uni0427" unicode="&#x427;" horiz-adv-x="587" 
d="M415 0c-5 0 -9 5 -8 10l48 277c1 5 -2 5 -6 4c-49 -17 -126 -35 -183 -35c-111 0 -174 53 -151 184l41 231c1 5 4 9 11 9h33c7 0 10 -4 9 -9l-41 -233c-20 -113 42 -133 114 -133c60 0 124 15 177 36c5 2 7 6 8 10l56 320c1 5 3 9 10 9h34c7 0 10 -4 9 -9l-116 -661
c-1 -5 -5 -10 -10 -10h-35z" />
    <glyph glyph-name="uni0428" unicode="&#x428;" horiz-adv-x="903" 
d="M63 0c-6 0 -10 4 -9 10l116 660c1 6 5 10 11 10h33c6 0 10 -4 9 -10l-108 -613c-1 -4 1 -6 5 -6h269c4 0 6 2 7 6l108 613c1 6 5 10 10 10h35c6 0 10 -4 9 -10l-108 -613c-1 -4 1 -6 5 -6h269c4 0 6 2 7 6l108 613c1 6 4 10 10 10h34c6 0 10 -4 9 -10l-116 -660
c-1 -6 -5 -10 -11 -10h-702z" />
    <glyph glyph-name="uni0429" unicode="&#x429;" horiz-adv-x="916" 
d="M786 -161c-6 0 -9 4 -8 9l25 146c1 4 0 6 -4 6h-736c-6 0 -10 4 -9 10l116 660c1 6 5 10 11 10h33c6 0 10 -4 9 -10l-108 -613c-1 -4 1 -6 5 -6h269c4 0 6 2 7 6l108 613c1 6 5 10 10 10h35c6 0 10 -4 9 -10l-108 -613c-1 -4 1 -6 5 -6h269c4 0 6 2 7 6l108 613
c1 6 4 10 10 10h34c6 0 10 -4 9 -10l-108 -613c-1 -4 1 -6 5 -6h65c5 0 9 -4 8 -10l-33 -193c-1 -5 -6 -9 -11 -9h-32z" />
    <glyph glyph-name="uni042A" unicode="&#x42a;" horiz-adv-x="681" 
d="M168 0c-7 0 -10 5 -9 10l109 613c1 5 -1 6 -5 6h-160c-5 0 -9 5 -8 10l5 33c1 6 5 8 10 8h211c6 0 10 -4 9 -9l-49 -275c-1 -4 1 -6 5 -6h175c112 0 174 -63 174 -160c0 -145 -98 -230 -235 -230h-232zM226 51h177c105 0 179 66 179 178c0 70 -46 110 -131 110h-174
c-4 0 -6 -2 -7 -6l-49 -276c-1 -4 1 -6 5 -6z" />
    <glyph glyph-name="uni042B" unicode="&#x42b;" horiz-adv-x="762" 
d="M63 0c-8 0 -10 5 -9 10l116 661c1 5 5 9 11 9h34c5 0 9 -4 8 -9l-47 -275c-1 -4 1 -6 5 -6h163c112 0 175 -63 175 -160c0 -145 -98 -230 -236 -230h-220zM120 51h167c106 0 179 66 179 178c0 70 -46 110 -131 110h-163c-4 0 -6 -2 -7 -6l-50 -276c-1 -4 1 -6 5 -6z
M590 0c-6 0 -10 5 -9 10l116 661c1 5 4 9 11 9h34c7 0 10 -4 9 -9l-116 -661c-1 -5 -5 -10 -11 -10h-34z" />
    <glyph glyph-name="uni042C" unicode="&#x42c;" horiz-adv-x="575" 
d="M63 0c-8 0 -10 5 -9 10l116 661c1 5 5 9 11 9h34c5 0 9 -4 8 -9l-47 -275c-1 -4 1 -6 5 -6h173c112 0 175 -63 175 -160c0 -145 -98 -230 -236 -230h-230zM120 51h177c106 0 179 66 179 178c0 70 -46 110 -131 110h-173c-4 0 -6 -2 -7 -6l-50 -276c-1 -4 1 -6 5 -6z" />
    <glyph glyph-name="uni042D" unicode="&#x42d;" horiz-adv-x="540" 
d="M210 -10c-93 0 -159 44 -184 125c-2 5 -1 10 6 13l29 13c7 3 11 1 13 -4c21 -62 62 -97 141 -97c66 0 122 22 164 90c26 41 44 95 60 184c1 4 -2 6 -5 6h-239c-4 0 -8 4 -7 10l5 32c1 6 7 8 11 8h238c5 0 7 2 8 6c5 31 11 78 11 115c0 88 -45 149 -146 149
c-83 0 -124 -40 -165 -97c-4 -5 -10 -6 -14 -4l-28 17c-5 3 -5 8 -1 12c55 82 121 122 214 122c120 0 193 -66 193 -200c0 -68 -32 -306 -99 -399c-54 -74 -113 -101 -205 -101z" />
    <glyph glyph-name="uni042E" unicode="&#x42e;" horiz-adv-x="783" 
d="M474 -10c-113 0 -185 66 -185 178c0 30 3 73 15 147c1 4 -1 6 -5 6h-131c-4 0 -6 -2 -7 -6l-54 -305c-1 -5 -5 -10 -10 -10h-34c-6 0 -10 5 -9 10l117 661c1 5 4 9 11 9h34c6 0 9 -4 8 -9l-52 -295c-1 -4 1 -6 5 -6h130c4 0 6 2 7 6c19 100 35 146 49 172
c49 94 124 142 227 142c113 0 183 -65 183 -183c0 -65 -34 -295 -75 -375c-48 -94 -119 -142 -224 -142zM477 41c79 0 137 36 172 106c37 74 71 294 71 357c0 79 -41 135 -135 135c-79 0 -138 -36 -173 -106c-37 -74 -70 -293 -70 -358c0 -80 46 -134 135 -134z" />
    <glyph glyph-name="uni042F" unicode="&#x42f;" horiz-adv-x="590" 
d="M-20 -3c-7 0 -10 5 -9 11l5 31c1 6 5 9 11 9h19c50 0 67 24 95 67l81 124c16 25 41 57 70 68v4c-78 13 -139 59 -139 154c0 133 99 215 229 215h228c6 0 10 -4 9 -10l-116 -660c-1 -6 -5 -10 -11 -10h-34c-6 0 -10 4 -9 10l50 283c1 4 -1 6 -5 6h-105
c-44 0 -78 -18 -108 -65l-96 -149c-38 -59 -66 -88 -136 -88h-29zM294 350h169c4 0 6 2 7 6l47 267c1 4 -1 6 -5 6h-168c-104 0 -178 -60 -178 -164c0 -72 52 -115 128 -115z" />
    <glyph glyph-name="uni0430" unicode="&#x430;" horiz-adv-x="492" 
d="M177 -10c-82 0 -131 45 -131 117c0 107 71 163 200 163h116c4 0 7 2 8 6l9 52c15 81 -4 112 -98 112c-53 0 -93 -15 -122 -38c-6 -5 -12 -4 -15 2l-13 22c-3 5 -1 10 3 13c39 30 91 48 158 48c115 0 157 -42 137 -157l-57 -320c-1 -6 -5 -10 -11 -10h-29c-6 0 -9 4 -8 10
l9 50h-1c-26 -40 -79 -70 -155 -70zM195 35c79 0 141 46 152 112l13 74c1 4 -1 6 -4 6h-109c-108 0 -151 -44 -151 -114c0 -48 32 -78 99 -78z" />
    <glyph glyph-name="uni0431" unicode="&#x431;" horiz-adv-x="504" 
d="M226 -10c-104 0 -161 61 -161 168c0 67 16 135 31 210c22 110 39 175 106 230c59 47 145 53 218 57c29 2 44 12 49 28c1 5 4 6 11 6h32c6 0 7 -5 5 -9c-14 -56 -41 -68 -102 -73c-79 -6 -139 -7 -195 -53c-46 -38 -57 -84 -76 -169h3c36 53 92 88 164 88
c100 0 146 -62 146 -171c0 -72 -23 -171 -65 -230c-34 -48 -86 -82 -166 -82zM228 38c62 0 104 27 130 73c28 49 48 138 48 190c0 96 -42 124 -111 124c-67 0 -127 -44 -161 -161c-10 -33 -18 -72 -18 -99c0 -94 48 -127 112 -127z" />
    <glyph glyph-name="uni0432" unicode="&#x432;" horiz-adv-x="490" 
d="M61 0c-6 0 -10 5 -9 10l80 458c1 6 7 9 12 9h189c79 0 117 -43 117 -104c0 -60 -28 -103 -87 -126v-4c38 -11 58 -43 58 -86c0 -97 -61 -157 -164 -157h-196zM115 46h144c67 0 111 41 111 106c0 43 -28 70 -83 70h-141c-4 0 -6 -2 -7 -6l-29 -164c-1 -4 1 -6 5 -6z
M154 268h141c57 0 105 41 105 101c0 41 -28 62 -79 62h-138c-4 0 -6 -2 -7 -5l-27 -153c-1 -3 1 -5 5 -5z" />
    <glyph glyph-name="uni0433" unicode="&#x433;" horiz-adv-x="390" 
d="M60 0c-5 0 -9 5 -8 10l80 458c1 7 7 9 11 9h265c5 0 9 -3 8 -9l-5 -30c-1 -7 -7 -9 -12 -9h-217c-4 0 -6 -2 -7 -6l-73 -413c-1 -5 -5 -10 -12 -10h-30z" />
    <glyph glyph-name="uni0434" unicode="&#x434;" horiz-adv-x="542" 
d="M-40 -135c-4 0 -7 4 -6 9l27 165c1 5 6 9 11 9h35c8 0 17 3 24 12c40 55 83 120 111 282l22 126c1 6 4 9 11 9h283c7 0 10 -3 9 -9l-73 -414c-1 -4 1 -6 5 -6h55c5 0 8 -4 7 -9l-28 -165c-1 -5 -6 -9 -11 -9h-29c-6 0 -9 4 -8 9l20 120c1 4 0 6 -4 6h-391
c-4 0 -7 -2 -8 -6l-21 -120c-1 -5 -6 -9 -10 -9h-31zM105 48h251c4 0 6 2 7 6l65 369c1 4 -1 6 -5 6h-190c-4 0 -6 -2 -7 -6l-16 -93c-27 -154 -69 -226 -107 -276c-3 -3 -1 -6 2 -6z" />
    <glyph glyph-name="uni0435" unicode="&#x435;" horiz-adv-x="476" 
d="M206 -10c-101 0 -155 59 -155 159c0 69 14 155 44 215c38 79 104 123 191 123c86 0 148 -54 148 -157c0 -23 -2 -49 -10 -93c-1 -6 -5 -10 -12 -10h-299c-4 0 -6 -2 -7 -6c-6 -26 -6 -44 -6 -66c0 -75 37 -117 113 -117c59 0 107 28 141 64c5 5 10 5 14 2l17 -19
c4 -5 4 -10 -1 -15c-42 -47 -103 -80 -178 -80zM121 270h252c4 0 6 2 7 6c4 18 6 37 6 51c0 76 -38 113 -106 113c-60 0 -110 -31 -139 -90c-10 -20 -19 -48 -24 -74c-1 -4 0 -6 4 -6z" />
    <glyph glyph-name="uni0436" unicode="&#x436;" horiz-adv-x="700" 
d="M-10 -3c-6 0 -10 5 -9 11l5 27c1 6 6 9 12 9h7c45 0 58 11 81 53l44 82c21 39 52 68 82 72v4c-18 12 -30 32 -37 60l-17 62c-12 43 -27 57 -65 57h-11c-7 0 -10 5 -9 11l5 26c1 6 6 9 13 9h20c51 0 78 -26 92 -81l16 -63c10 -40 32 -67 75 -67h35c4 0 6 2 7 6l34 193
c1 6 7 9 12 9h30c5 0 10 -3 9 -9l-34 -193c-1 -4 1 -6 5 -6h38c42 0 73 29 95 67l48 83c32 56 58 61 110 61h13c7 0 10 -4 9 -10l-4 -26c-1 -7 -6 -10 -13 -10h-3c-35 0 -48 -3 -73 -45l-45 -75c-19 -31 -42 -57 -65 -63v-4c25 -6 46 -29 54 -68l15 -67
c10 -41 22 -68 63 -68h12c6 0 9 -4 8 -10l-5 -27c-1 -6 -4 -10 -11 -10h-18c-60 0 -86 38 -98 94l-15 72c-11 55 -55 58 -85 58h-38c-4 0 -6 -2 -7 -6l-36 -205c-1 -5 -5 -10 -12 -10h-30c-6 0 -10 5 -9 10l36 205c1 4 -1 6 -5 6h-40c-27 0 -73 0 -103 -58l-44 -86
c-32 -63 -58 -80 -119 -80h-25z" />
    </font>
</defs>
</svg>
